<?xml version="1.0" encoding="UTF-8" standalone="no"?>
<!DOCTYPE svg PUBLIC "-//W3C//DTD SVG 1.1//EN"
 "http://www.w3.org/Graphics/SVG/1.1/DTD/svg11.dtd">
<!-- Generated by graphviz version 2.38.0 (20140413.2041)
 -->
<!-- Title: USA Pages: 1 -->
<svg width="1775pt" height="1198pt"
 viewBox="0.00 0.00 1774.88 1198.08" xmlns="http://www.w3.org/2000/svg" xmlns:xlink="http://www.w3.org/1999/xlink">
<g id="graph0" class="graph" transform="scale(1 1) rotate(0) translate(943.716 640.772)">
<title>USA</title>
<polygon fill="peru" stroke="none" points="-943.716,557.311 -943.716,-640.772 831.161,-640.772 831.161,557.311 -943.716,557.311"/>
<!-- pit -->
<g id="node1" class="node"><title>pit</title>
<ellipse fill="none" stroke="black" cx="416.166" cy="-292.787" rx="46.1289" ry="18"/>
<text text-anchor="middle" x="416.166" y="-288.587" font-family="Times,serif" font-size="14.00">Pittsburgh</text>
</g>
<!-- nsh -->
<g id="node3" class="node"><title>nsh</title>
<ellipse fill="none" stroke="black" cx="370.705" cy="10.7848" rx="43.9992" ry="18"/>
<text text-anchor="middle" x="370.705" y="14.9848" font-family="Times,serif" font-size="14.00">Nashville</text>
</g>
<!-- pit&#45;&#45;nsh -->
<g id="edge89" class="edge"><title>pit&#45;&#45;nsh</title>
<path fill="none" stroke="yellow" d="M413.458,-274.707C405.373,-220.713 381.465,-61.0705 373.398,-7.20114"/>
<text text-anchor="middle" x="389.928" y="-143.754" font-family="Times,serif" font-size="14.00">4</text>
</g>
<!-- ral -->
<g id="node6" class="node"><title>ral</title>
<ellipse fill="none" stroke="black" cx="504.27" cy="-153.117" rx="37.7266" ry="18"/>
<text text-anchor="middle" x="504.27" y="-148.917" font-family="Times,serif" font-size="14.00">Raleigh</text>
</g>
<!-- pit&#45;&#45;ral -->
<g id="edge88" class="edge"><title>pit&#45;&#45;ral</title>
<path fill="none" stroke="black" d="M427.324,-275.098C444.272,-248.232 476.309,-197.443 493.202,-170.662"/>
<text text-anchor="middle" x="456.763" y="-225.68" font-family="Times,serif" font-size="14.00">2</text>
</g>
<!-- wsh -->
<g id="node25" class="node"><title>wsh</title>
<ellipse fill="none" stroke="black" cx="559.976" cy="-288.768" rx="52.2788" ry="18"/>
<text text-anchor="middle" x="559.976" y="-284.568" font-family="Times,serif" font-size="14.00">Washington</text>
</g>
<!-- pit&#45;&#45;wsh -->
<g id="edge87" class="edge"><title>pit&#45;&#45;wsh</title>
<path fill="none" stroke="black" d="M462.46,-291.493C476.911,-291.089 492.95,-290.641 507.778,-290.227"/>
<text text-anchor="middle" x="481.619" y="-293.66" font-family="Times,serif" font-size="14.00">2</text>
</g>
<!-- mim -->
<g id="node2" class="node"><title>mim</title>
<ellipse fill="none" stroke="black" cx="793.473" cy="175.669" rx="33.877" ry="18"/>
<text text-anchor="middle" x="793.473" y="179.869" font-family="Times,serif" font-size="14.00">Miami</text>
</g>
<!-- nsh&#45;&#45;ral -->
<g id="edge90" class="edge"><title>nsh&#45;&#45;ral</title>
<path fill="none" stroke="black" d="M384.746,-6.44574C410.465,-38.0066 464.838,-104.729 490.417,-136.117"/>
<text text-anchor="middle" x="434.081" y="-74.0814" font-family="Times,serif" font-size="14.00">3</text>
</g>
<!-- atl -->
<g id="node24" class="node"><title>atl</title>
<ellipse fill="none" stroke="black" cx="444.573" cy="-1.56868" rx="36.2732" ry="18"/>
<text text-anchor="middle" x="444.573" y="2.63132" font-family="Times,serif" font-size="14.00">Atlanta</text>
</g>
<!-- nsh&#45;&#45;atl -->
<g id="edge91" class="edge"><title>nsh&#45;&#45;atl</title>
<path fill="none" stroke="black" d="M411.528,3.95768C411.661,3.93536 411.795,3.91306 411.928,3.89076"/>
<text text-anchor="middle" x="415.228" y="1.12422" font-family="Times,serif" font-size="14.00">1</text>
</g>
<!-- omh -->
<g id="node4" class="node"><title>omh</title>
<ellipse fill="none" stroke="black" cx="-1.95264" cy="-29.2981" rx="35.7887" ry="18"/>
<text text-anchor="middle" x="-1.95264" y="-25.0981" font-family="Times,serif" font-size="14.00">Omaha</text>
</g>
<!-- den -->
<g id="node11" class="node"><title>den</title>
<ellipse fill="none" stroke="black" cx="-202.81" cy="201.007" rx="36.2645" ry="18"/>
<text text-anchor="middle" x="-202.81" y="205.207" font-family="Times,serif" font-size="14.00">Denver</text>
</g>
<!-- omh&#45;&#45;den -->
<g id="edge37" class="edge"><title>omh&#45;&#45;den</title>
<path fill="none" stroke="pink" d="M-16.3978,-12.7351C-53.3675,29.6547 -151.104,141.72 -188.225,184.284"/>
<text text-anchor="middle" x="-105.812" y="82.9746" font-family="Times,serif" font-size="14.00">4</text>
</g>
<!-- chi -->
<g id="node26" class="node"><title>chi</title>
<ellipse fill="none" stroke="black" cx="210.221" cy="-157.192" rx="39.6558" ry="18"/>
<text text-anchor="middle" x="210.221" y="-152.992" font-family="Times,serif" font-size="14.00">Chicago</text>
</g>
<!-- omh&#45;&#45;chi -->
<g id="edge34" class="edge"><title>omh&#45;&#45;chi</title>
<path fill="none" stroke="blue" d="M21.1575,-43.2285C61.6487,-67.6358 145.016,-117.888 186.165,-142.692"/>
<text text-anchor="middle" x="100.161" y="-95.7602" font-family="Times,serif" font-size="14.00">4</text>
</g>
<!-- ksc -->
<g id="node35" class="node"><title>ksc</title>
<ellipse fill="none" stroke="black" cx="46.6214" cy="32.1152" rx="53.1871" ry="18"/>
<text text-anchor="middle" x="46.6214" y="36.3152" font-family="Times,serif" font-size="14.00">Kansas City</text>
</g>
<!-- omh&#45;&#45;ksc -->
<g id="edge35" class="edge"><title>omh&#45;&#45;ksc</title>
<path fill="none" stroke="black" d="M18.0925,-14.1122C25.7943,-5.55085 34.0364,5.12818 39.7981,14.1058"/>
<text text-anchor="middle" x="25.4453" y="11.1968" font-family="Times,serif" font-size="14.00">1</text>
</g>
<!-- omh&#45;&#45;ksc -->
<g id="edge36" class="edge"><title>omh&#45;&#45;ksc</title>
<path fill="none" stroke="black" d="M4.76362,-11.4558C10.1474,-3.04183 17.7367,6.89464 25.0272,15.1872"/>
<text text-anchor="middle" x="11.3954" y="-0.934271" font-family="Times,serif" font-size="14.00">1</text>
</g>
<!-- lav -->
<g id="node5" class="node"><title>lav</title>
<ellipse fill="none" stroke="black" cx="-565.521" cy="389.891" rx="46.1014" ry="18"/>
<text text-anchor="middle" x="-565.521" y="394.091" font-family="Times,serif" font-size="14.00">Las Vegas</text>
</g>
<!-- slc -->
<g id="node18" class="node"><title>slc</title>
<ellipse fill="none" stroke="black" cx="-448.656" cy="181.267" rx="61.3891" ry="18"/>
<text text-anchor="middle" x="-448.656" y="185.467" font-family="Times,serif" font-size="14.00">Salt Lake City</text>
</g>
<!-- lav&#45;&#45;slc -->
<g id="edge18" class="edge"><title>lav&#45;&#45;slc</title>
<path fill="none" stroke="orange" d="M-555.557,372.104C-533.533,332.787 -480.914,238.853 -458.76,199.305"/>
<text text-anchor="middle" x="-510.659" y="282.905" font-family="Times,serif" font-size="14.00">3</text>
</g>
<!-- ral&#45;&#45;wsh -->
<g id="edge96" class="edge"><title>ral&#45;&#45;wsh</title>
<path fill="none" stroke="black" d="M506.749,-171.221C514.482,-197.362 534.042,-245.274 547.436,-271.144"/>
<text text-anchor="middle" x="523.592" y="-223.982" font-family="Times,serif" font-size="14.00">2</text>
</g>
<!-- ral&#45;&#45;wsh -->
<g id="edge97" class="edge"><title>ral&#45;&#45;wsh</title>
<path fill="none" stroke="black" d="M516.641,-170.413C530.014,-196.159 549.661,-244.241 557.456,-270.524"/>
<text text-anchor="middle" x="533.548" y="-223.269" font-family="Times,serif" font-size="14.00">2</text>
</g>
<!-- chr -->
<g id="node30" class="node"><title>chr</title>
<ellipse fill="none" stroke="black" cx="586.573" cy="-30.8052" rx="48.3427" ry="18"/>
<text text-anchor="middle" x="586.573" y="-26.6052" font-family="Times,serif" font-size="14.00">Charleston</text>
</g>
<!-- ral&#45;&#45;chr -->
<g id="edge98" class="edge"><title>ral&#45;&#45;chr</title>
<path fill="none" stroke="black" d="M515.887,-135.852C531.484,-112.673 559.045,-71.7139 574.748,-48.3783"/>
<text text-anchor="middle" x="541.818" y="-94.9151" font-family="Times,serif" font-size="14.00">2</text>
</g>
<!-- elp -->
<g id="node7" class="node"><title>elp</title>
<ellipse fill="none" stroke="black" cx="-86.6493" cy="488.663" rx="36.7671" ry="18"/>
<text text-anchor="middle" x="-86.6493" y="492.863" font-family="Times,serif" font-size="14.00">El Paso</text>
</g>
<!-- hst -->
<g id="node10" class="node"><title>hst</title>
<ellipse fill="none" stroke="black" cx="245.021" cy="356.004" rx="40.1576" ry="18"/>
<text text-anchor="middle" x="245.021" y="360.204" font-family="Times,serif" font-size="14.00">Houston</text>
</g>
<!-- elp&#45;&#45;hst -->
<g id="edge49" class="edge"><title>elp&#45;&#45;hst</title>
<path fill="none" stroke="green" d="M-58.0842,477.238C4.13982,452.35 151.431,393.438 214.978,368.02"/>
<text text-anchor="middle" x="74.9467" y="419.829" font-family="Times,serif" font-size="14.00">6</text>
</g>
<!-- sfe -->
<g id="node13" class="node"><title>sfe</title>
<ellipse fill="none" stroke="black" cx="-136.297" cy="345.359" rx="40.6179" ry="18"/>
<text text-anchor="middle" x="-136.297" y="349.559" font-family="Times,serif" font-size="14.00">Santa Fe</text>
</g>
<!-- elp&#45;&#45;sfe -->
<g id="edge52" class="edge"><title>elp&#45;&#45;sfe</title>
<path fill="none" stroke="black" d="M-92.8369,470.804C-102.351,443.343 -120.471,391.04 -130.032,363.444"/>
<text text-anchor="middle" x="-114.934" y="414.324" font-family="Times,serif" font-size="14.00">2</text>
</g>
<!-- okc -->
<g id="node22" class="node"><title>okc</title>
<ellipse fill="none" stroke="black" cx="67.385" cy="200.881" rx="64.2795" ry="18"/>
<text text-anchor="middle" x="67.385" y="205.081" font-family="Times,serif" font-size="14.00">Oklahoma City</text>
</g>
<!-- elp&#45;&#45;okc -->
<g id="edge51" class="edge"><title>elp&#45;&#45;okc</title>
<path fill="none" stroke="yellow" d="M-77.2457,471.095C-49.8119,419.84 29.9371,270.845 57.7112,218.955"/>
<text text-anchor="middle" x="-13.2672" y="342.225" font-family="Times,serif" font-size="14.00">5</text>
</g>
<!-- dal -->
<g id="node28" class="node"><title>dal</title>
<ellipse fill="none" stroke="black" cx="183.319" cy="308.718" rx="32.8994" ry="18"/>
<text text-anchor="middle" x="183.319" y="312.918" font-family="Times,serif" font-size="14.00">Dallas</text>
</g>
<!-- elp&#45;&#45;dal -->
<g id="edge50" class="edge"><title>elp&#45;&#45;dal</title>
<path fill="none" stroke="red" d="M-64.5567,473.938C-13.429,439.859 112.477,355.937 162.419,322.649"/>
<text text-anchor="middle" x="45.4311" y="395.493" font-family="Times,serif" font-size="14.00">4</text>
</g>
<!-- dul -->
<g id="node8" class="node"><title>dul</title>
<ellipse fill="none" stroke="black" cx="-17.4872" cy="-196.531" rx="34.8458" ry="18"/>
<text text-anchor="middle" x="-17.4872" y="-192.331" font-family="Times,serif" font-size="14.00">Duluth</text>
</g>
<!-- dul&#45;&#45;omh -->
<g id="edge32" class="edge"><title>dul&#45;&#45;omh</title>
<path fill="none" stroke="black" d="M-11.4125,-178.723C-5.27359,-146.676 0.93621,-79.6393 0.735291,-47.3883"/>
<text text-anchor="middle" x="-8.8386" y="-115.856" font-family="Times,serif" font-size="14.00">2</text>
</g>
<!-- dul&#45;&#45;omh -->
<g id="edge33" class="edge"><title>dul&#45;&#45;omh</title>
<path fill="none" stroke="black" d="M-20.1745,-178.549C-20.3897,-146.387 -14.1914,-79.3855 -8.0544,-47.2474"/>
<text text-anchor="middle" x="-17.6144" y="-115.698" font-family="Times,serif" font-size="14.00">2</text>
</g>
<!-- ssm -->
<g id="node14" class="node"><title>ssm</title>
<ellipse fill="none" stroke="black" cx="127.536" cy="-416.302" rx="61.3978" ry="18"/>
<text text-anchor="middle" x="127.536" y="-412.102" font-family="Times,serif" font-size="14.00">Sault St Marie</text>
</g>
<!-- dul&#45;&#45;ssm -->
<g id="edge29" class="edge"><title>dul&#45;&#45;ssm</title>
<path fill="none" stroke="black" d="M-6.10752,-213.776C20.8688,-254.656 88.4821,-357.119 115.806,-398.526"/>
<text text-anchor="middle" x="51.3493" y="-308.951" font-family="Times,serif" font-size="14.00">3</text>
</g>
<!-- dul&#45;&#45;chi -->
<g id="edge31" class="edge"><title>dul&#45;&#45;chi</title>
<path fill="none" stroke="red" d="M15.6235,-190.811C57.4385,-183.587 129.191,-171.191 172.905,-163.639"/>
<text text-anchor="middle" x="90.7644" y="-180.025" font-family="Times,serif" font-size="14.00">3</text>
</g>
<!-- tor -->
<g id="node29" class="node"><title>tor</title>
<ellipse fill="none" stroke="black" cx="295.851" cy="-408.445" rx="37.9603" ry="18"/>
<text text-anchor="middle" x="295.851" y="-404.245" font-family="Times,serif" font-size="14.00">Toronto</text>
</g>
<!-- dul&#45;&#45;tor -->
<g id="edge30" class="edge"><title>dul&#45;&#45;tor</title>
<path fill="none" stroke="pink" d="M4.04977,-211.097C61.1535,-249.717 215.999,-354.44 273.746,-393.495"/>
<text text-anchor="middle" x="135.398" y="-305.096" font-family="Times,serif" font-size="14.00">6</text>
</g>
<!-- hel -->
<g id="node9" class="node"><title>hel</title>
<ellipse fill="none" stroke="black" cx="-391.04" cy="-30.841" rx="35.2956" ry="18"/>
<text text-anchor="middle" x="-391.04" y="-26.641" font-family="Times,serif" font-size="14.00">Helena</text>
</g>
<!-- hel&#45;&#45;omh -->
<g id="edge23" class="edge"><title>hel&#45;&#45;omh</title>
<path fill="none" stroke="red" d="M-355.825,-30.7014C-282.027,-30.4087 -111.865,-29.734 -37.6502,-29.4397"/>
<text text-anchor="middle" x="-200.237" y="-32.8705" font-family="Times,serif" font-size="14.00">5</text>
</g>
<!-- hel&#45;&#45;dul -->
<g id="edge24" class="edge"><title>hel&#45;&#45;dul</title>
<path fill="none" stroke="orange" d="M-364.175,-42.7571C-295.251,-73.3281 -112.764,-154.271 -44.1088,-184.723"/>
<text text-anchor="middle" x="-207.642" y="-116.54" font-family="Times,serif" font-size="14.00">6</text>
</g>
<!-- hel&#45;&#45;den -->
<g id="edge22" class="edge"><title>hel&#45;&#45;den</title>
<path fill="none" stroke="green" d="M-377.503,-14.1671C-342.857,28.5067 -251.265,141.323 -216.477,184.172"/>
<text text-anchor="middle" x="-300.49" y="82.2026" font-family="Times,serif" font-size="14.00">4</text>
</g>
<!-- win -->
<g id="node12" class="node"><title>win</title>
<ellipse fill="none" stroke="black" cx="-303.007" cy="-332.011" rx="44.7604" ry="18"/>
<text text-anchor="middle" x="-303.007" y="-327.811" font-family="Times,serif" font-size="14.00">Winnipeg</text>
</g>
<!-- hel&#45;&#45;win -->
<g id="edge25" class="edge"><title>hel&#45;&#45;win</title>
<path fill="none" stroke="blue" d="M-385.796,-48.7787C-370.176,-102.218 -324.063,-259.976 -308.334,-313.787"/>
<text text-anchor="middle" x="-350.565" y="-184.083" font-family="Times,serif" font-size="14.00">4</text>
</g>
<!-- nor -->
<g id="node27" class="node"><title>nor</title>
<ellipse fill="none" stroke="black" cx="398.798" cy="318.462" rx="56.5355" ry="18"/>
<text text-anchor="middle" x="398.798" y="322.662" font-family="Times,serif" font-size="14.00">New Orleans</text>
</g>
<!-- hst&#45;&#45;nor -->
<g id="edge60" class="edge"><title>hst&#45;&#45;nor</title>
<path fill="none" stroke="black" d="M280.301,347.391C302.114,342.066 330.321,335.179 353.742,329.462"/>
<text text-anchor="middle" x="313.522" y="335.626" font-family="Times,serif" font-size="14.00">2</text>
</g>
<!-- den&#45;&#45;sfe -->
<g id="edge45" class="edge"><title>den&#45;&#45;sfe</title>
<path fill="none" stroke="black" d="M-194.654,218.707C-181.888,246.412 -157.326,299.72 -144.52,327.514"/>
<text text-anchor="middle" x="-173.087" y="270.311" font-family="Times,serif" font-size="14.00">2</text>
</g>
<!-- pnx -->
<g id="node16" class="node"><title>pnx</title>
<ellipse fill="none" stroke="black" cx="-288.094" cy="535.311" rx="39.1887" ry="18"/>
<text text-anchor="middle" x="-288.094" y="539.511" font-family="Times,serif" font-size="14.00">Phoenix</text>
</g>
<!-- den&#45;&#45;pnx -->
<g id="edge46" class="edge"><title>den&#45;&#45;pnx</title>
<path fill="none" stroke="white" d="M-207.395,218.98C-222.203,277.027 -268.646,459.076 -283.486,517.249"/>
<text text-anchor="middle" x="-248.941" y="365.315" font-family="Times,serif" font-size="14.00">5</text>
</g>
<!-- den&#45;&#45;okc -->
<g id="edge44" class="edge"><title>den&#45;&#45;okc</title>
<path fill="none" stroke="red" d="M-166.65,200.99C-123.367,200.97 -50.0888,200.936 2.957,200.911"/>
<text text-anchor="middle" x="-85.3467" y="198.15" font-family="Times,serif" font-size="14.00">4</text>
</g>
<!-- win&#45;&#45;dul -->
<g id="edge27" class="edge"><title>win&#45;&#45;dul</title>
<path fill="none" stroke="black" d="M-274.058,-318.275C-218.2,-291.77 -96.3753,-233.964 -43.1887,-208.726"/>
<text text-anchor="middle" x="-162.123" y="-266.301" font-family="Times,serif" font-size="14.00">4</text>
</g>
<!-- win&#45;&#45;ssm -->
<g id="edge28" class="edge"><title>win&#45;&#45;ssm</title>
<path fill="none" stroke="black" d="M-262.502,-339.941C-183.794,-355.351 -10.3382,-389.309 76.2566,-406.262"/>
<text text-anchor="middle" x="-96.6229" y="-375.902" font-family="Times,serif" font-size="14.00">6</text>
</g>
<!-- sfe&#45;&#45;okc -->
<g id="edge53" class="edge"><title>sfe&#45;&#45;okc</title>
<path fill="none" stroke="blue" d="M-114.5,329.898C-76.015,302.599 3.66619,246.079 43.5526,217.786"/>
<text text-anchor="middle" x="-38.9735" y="271.042" font-family="Times,serif" font-size="14.00">3</text>
</g>
<!-- van -->
<g id="node15" class="node"><title>van</title>
<ellipse fill="none" stroke="black" cx="-891.796" cy="-165.136" rx="47.841" ry="18"/>
<text text-anchor="middle" x="-891.796" y="-160.936" font-family="Times,serif" font-size="14.00">Vancouver</text>
</g>
<!-- cal -->
<g id="node20" class="node"><title>cal</title>
<ellipse fill="none" stroke="black" cx="-801.754" cy="-388.843" rx="38.2024" ry="18"/>
<text text-anchor="middle" x="-801.754" y="-384.643" font-family="Times,serif" font-size="14.00">Calgary</text>
</g>
<!-- van&#45;&#45;cal -->
<g id="edge1" class="edge"><title>van&#45;&#45;cal</title>
<path fill="none" stroke="black" d="M-884.579,-183.065C-867.678,-225.056 -825.691,-329.372 -808.879,-371.139"/>
<text text-anchor="middle" x="-850.229" y="-279.902" font-family="Times,serif" font-size="14.00">3</text>
</g>
<!-- sea -->
<g id="node34" class="node"><title>sea</title>
<ellipse fill="none" stroke="black" cx="-866.483" cy="-94.909" rx="34.344" ry="18"/>
<text text-anchor="middle" x="-866.483" y="-90.709" font-family="Times,serif" font-size="14.00">Seattle</text>
</g>
<!-- van&#45;&#45;sea -->
<g id="edge2" class="edge"><title>van&#45;&#45;sea</title>
<path fill="none" stroke="black" d="M-878.984,-147.65C-874.183,-137.091 -869.469,-123.681 -866.86,-113.012"/>
<text text-anchor="middle" x="-876.422" y="-133.131" font-family="Times,serif" font-size="14.00">1</text>
</g>
<!-- van&#45;&#45;sea -->
<g id="edge3" class="edge"><title>van&#45;&#45;sea</title>
<path fill="none" stroke="black" d="M-891.382,-146.881C-888.735,-136.115 -883.965,-122.597 -879.13,-112.034"/>
<text text-anchor="middle" x="-888.756" y="-132.257" font-family="Times,serif" font-size="14.00">1</text>
</g>
<!-- pnx&#45;&#45;elp -->
<g id="edge48" class="edge"><title>pnx&#45;&#45;elp</title>
<path fill="none" stroke="black" d="M-253.005,527.186C-215.581,518.52 -156.743,504.895 -119.999,496.386"/>
<text text-anchor="middle" x="-190.002" y="508.986" font-family="Times,serif" font-size="14.00">3</text>
</g>
<!-- pnx&#45;&#45;sfe -->
<g id="edge47" class="edge"><title>pnx&#45;&#45;sfe</title>
<path fill="none" stroke="black" d="M-274.356,518.119C-245.455,481.955 -178.673,398.386 -149.896,362.375"/>
<text text-anchor="middle" x="-215.626" y="437.447" font-family="Times,serif" font-size="14.00">3</text>
</g>
<!-- por -->
<g id="node17" class="node"><title>por</title>
<ellipse fill="none" stroke="black" cx="-875.138" cy="-21.029" rx="40.149" ry="18"/>
<text text-anchor="middle" x="-875.138" y="-16.829" font-family="Times,serif" font-size="14.00">Portland</text>
</g>
<!-- por&#45;&#45;slc -->
<g id="edge8" class="edge"><title>por&#45;&#45;slc</title>
<path fill="none" stroke="blue" d="M-847.484,-7.91171C-771.897,27.9417 -562.094,127.459 -481.12,165.868"/>
<text text-anchor="middle" x="-667.802" y="76.178" font-family="Times,serif" font-size="14.00">6</text>
</g>
<!-- sfo -->
<g id="node31" class="node"><title>sfo</title>
<ellipse fill="none" stroke="black" cx="-767.784" cy="366.881" rx="59.9272" ry="18"/>
<text text-anchor="middle" x="-767.784" y="371.081" font-family="Times,serif" font-size="14.00">San Francisco</text>
</g>
<!-- por&#45;&#45;sfo -->
<g id="edge9" class="edge"><title>por&#45;&#45;sfo</title>
<path fill="none" stroke="green" d="M-866.963,-3.14877C-843.998,61.534 -782.77,282.875 -769.744,348.445"/>
<text text-anchor="middle" x="-821.853" y="169.848" font-family="Times,serif" font-size="14.00">5</text>
</g>
<!-- por&#45;&#45;sfo -->
<g id="edge10" class="edge"><title>por&#45;&#45;sfo</title>
<path fill="none" stroke="pink" d="M-873.22,-2.80434C-860.284,62.4977 -798.956,284.223 -775.963,348.99"/>
<text text-anchor="middle" x="-828.091" y="184.293" font-family="Times,serif" font-size="14.00">5</text>
</g>
<!-- slc&#45;&#45;hel -->
<g id="edge19" class="edge"><title>slc&#45;&#45;hel</title>
<path fill="none" stroke="pink" d="M-443.743,163.183C-432.858,123.11 -406.813,27.228 -395.94,-12.8026"/>
<text text-anchor="middle" x="-423.341" y="72.3901" font-family="Times,serif" font-size="14.00">3</text>
</g>
<!-- slc&#45;&#45;den -->
<g id="edge20" class="edge"><title>slc&#45;&#45;den</title>
<path fill="none" stroke="red" d="M-387.411,180.25C-339.38,182.694 -274.391,188.287 -235.715,193.553"/>
<text text-anchor="middle" x="-315.063" y="184.101" font-family="Times,serif" font-size="14.00">3</text>
</g>
<!-- slc&#45;&#45;den -->
<g id="edge21" class="edge"><title>slc&#45;&#45;den</title>
<path fill="none" stroke="yellow" d="M-396.969,191.071C-349.605,196.572 -280.695,201.868 -238.977,203.048"/>
<text text-anchor="middle" x="-321.473" y="208.26" font-family="Times,serif" font-size="14.00">3</text>
</g>
<!-- lax -->
<g id="node19" class="node"><title>lax</title>
<ellipse fill="none" stroke="black" cx="-548.226" cy="521.195" rx="54.1561" ry="18"/>
<text text-anchor="middle" x="-548.226" y="525.395" font-family="Times,serif" font-size="14.00">Los Angeles</text>
</g>
<!-- lax&#45;&#45;lav -->
<g id="edge15" class="edge"><title>lax&#45;&#45;lav</title>
<path fill="none" stroke="black" d="M-550.631,502.938C-553.935,477.852 -559.843,432.997 -563.136,407.993"/>
<text text-anchor="middle" x="-560.383" y="452.665" font-family="Times,serif" font-size="14.00">2</text>
</g>
<!-- lax&#45;&#45;elp -->
<g id="edge17" class="edge"><title>lax&#45;&#45;elp</title>
<path fill="none" stroke="black" d="M-495.277,517.463C-400.557,510.787 -204.431,496.965 -123.158,491.237"/>
<text text-anchor="middle" x="-312.717" y="501.55" font-family="Times,serif" font-size="14.00">6</text>
</g>
<!-- lax&#45;&#45;pnx -->
<g id="edge16" class="edge"><title>lax&#45;&#45;pnx</title>
<path fill="none" stroke="black" d="M-494.642,524.103C-444.817,526.806 -371.769,530.771 -327.217,533.188"/>
<text text-anchor="middle" x="-414.43" y="525.845" font-family="Times,serif" font-size="14.00">3</text>
</g>
<!-- cal&#45;&#45;win -->
<g id="edge26" class="edge"><title>cal&#45;&#45;win</title>
<path fill="none" stroke="white" d="M-764.674,-384.618C-674.26,-374.315 -442.81,-347.942 -346.291,-336.944"/>
<text text-anchor="middle" x="-558.983" y="-363.581" font-family="Times,serif" font-size="14.00">6</text>
</g>
<!-- mon -->
<g id="node21" class="node"><title>mon</title>
<ellipse fill="none" stroke="black" cx="422.293" cy="-618.772" rx="42.5456" ry="18"/>
<text text-anchor="middle" x="422.293" y="-614.572" font-family="Times,serif" font-size="14.00">Montreal</text>
</g>
<!-- mon&#45;&#45;ssm -->
<g id="edge77" class="edge"><title>mon&#45;&#45;ssm</title>
<path fill="none" stroke="black" d="M399.653,-603.221C345.326,-565.903 207.934,-471.528 151.897,-433.036"/>
<text text-anchor="middle" x="272.275" y="-520.928" font-family="Times,serif" font-size="14.00">5</text>
</g>
<!-- bos -->
<g id="node23" class="node"><title>bos</title>
<ellipse fill="none" stroke="black" cx="563.383" cy="-566.891" rx="35.3389" ry="18"/>
<text text-anchor="middle" x="563.383" y="-562.691" font-family="Times,serif" font-size="14.00">Boston</text>
</g>
<!-- mon&#45;&#45;bos -->
<g id="edge79" class="edge"><title>mon&#45;&#45;bos</title>
<path fill="none" stroke="black" d="M460.694,-611.032C486.261,-602.925 518.979,-590.64 540.541,-580.909"/>
<text text-anchor="middle" x="497.118" y="-598.77" font-family="Times,serif" font-size="14.00">2</text>
</g>
<!-- mon&#45;&#45;bos -->
<g id="edge80" class="edge"><title>mon&#45;&#45;bos</title>
<path fill="none" stroke="black" d="M446.963,-603.935C470.014,-593.675 504.573,-580.856 530.063,-573.047"/>
<text text-anchor="middle" x="485.013" y="-591.291" font-family="Times,serif" font-size="14.00">2</text>
</g>
<!-- nyc -->
<g id="node33" class="node"><title>nyc</title>
<ellipse fill="none" stroke="black" cx="518.907" cy="-421.642" rx="45.9718" ry="18"/>
<text text-anchor="middle" x="518.907" y="-417.442" font-family="Times,serif" font-size="14.00">New York</text>
</g>
<!-- mon&#45;&#45;nyc -->
<g id="edge78" class="edge"><title>mon&#45;&#45;nyc</title>
<path fill="none" stroke="blue" d="M431.037,-600.93C449.385,-563.494 491.722,-477.11 510.113,-439.585"/>
<text text-anchor="middle" x="467.075" y="-523.058" font-family="Times,serif" font-size="14.00">3</text>
</g>
<!-- okc&#45;&#45;dal -->
<g id="edge55" class="edge"><title>okc&#45;&#45;dal</title>
<path fill="none" stroke="black" d="M93.1657,217.439C117.771,237.622 153.561,271.261 171.846,291.67"/>
<text text-anchor="middle" x="129.006" y="251.754" font-family="Times,serif" font-size="14.00">2</text>
</g>
<!-- okc&#45;&#45;dal -->
<g id="edge56" class="edge"><title>okc&#45;&#45;dal</title>
<path fill="none" stroke="black" d="M79.759,218.931C99.312,240.544 137.21,275.935 161.406,295.296"/>
<text text-anchor="middle" x="117.082" y="254.313" font-family="Times,serif" font-size="14.00">2</text>
</g>
<!-- ltr -->
<g id="node36" class="node"><title>ltr</title>
<ellipse fill="none" stroke="black" cx="223.283" cy="171.288" rx="50.2802" ry="18"/>
<text text-anchor="middle" x="223.283" y="175.488" font-family="Times,serif" font-size="14.00">Little Rock</text>
</g>
<!-- okc&#45;&#45;ltr -->
<g id="edge54" class="edge"><title>okc&#45;&#45;ltr</title>
<path fill="none" stroke="black" d="M121.036,190.697C139.885,187.119 160.84,183.141 178.847,179.723"/>
<text text-anchor="middle" x="146.442" y="182.41" font-family="Times,serif" font-size="14.00">2</text>
</g>
<!-- bos&#45;&#45;nyc -->
<g id="edge81" class="edge"><title>bos&#45;&#45;nyc</title>
<path fill="none" stroke="yellow" d="M562.52,-548.62C556.944,-520.534 540.677,-467.155 529.304,-439.388"/>
<text text-anchor="middle" x="542.412" y="-496.804" font-family="Times,serif" font-size="14.00">2</text>
</g>
<!-- bos&#45;&#45;nyc -->
<g id="edge82" class="edge"><title>bos&#45;&#45;nyc</title>
<path fill="none" stroke="red" d="M553.164,-549.576C541.765,-521.891 525.324,-467.979 519.744,-439.782"/>
<text text-anchor="middle" x="532.954" y="-497.479" font-family="Times,serif" font-size="14.00">2</text>
</g>
<!-- atl&#45;&#45;mim -->
<g id="edge92" class="edge"><title>atl&#45;&#45;mim</title>
<path fill="none" stroke="blue" d="M469.946,11.3206C534.553,44.1401 704.674,130.56 768.663,163.066"/>
<text text-anchor="middle" x="615.805" y="84.3931" font-family="Times,serif" font-size="14.00">5</text>
</g>
<!-- atl&#45;&#45;ral -->
<g id="edge94" class="edge"><title>atl&#45;&#45;ral</title>
<path fill="none" stroke="black" d="M446.98,-19.6887C455.324,-49.1908 478.05,-107.103 492.527,-135.967"/>
<text text-anchor="middle" x="466.253" y="-80.6279" font-family="Times,serif" font-size="14.00">2</text>
</g>
<!-- atl&#45;&#45;ral -->
<g id="edge95" class="edge"><title>atl&#45;&#45;ral</title>
<path fill="none" stroke="black" d="M456.333,-18.7539C470.762,-47.5335 493.371,-105.12 501.779,-134.7"/>
<text text-anchor="middle" x="475.556" y="-79.5268" font-family="Times,serif" font-size="14.00">2</text>
</g>
<!-- atl&#45;&#45;chr -->
<g id="edge93" class="edge"><title>atl&#45;&#45;chr</title>
<path fill="none" stroke="black" d="M478.225,-8.49733C497.908,-12.55 522.945,-17.7049 543.992,-22.0382"/>
<text text-anchor="middle" x="507.608" y="-18.0678" font-family="Times,serif" font-size="14.00">2</text>
</g>
<!-- chi&#45;&#45;pit -->
<g id="edge71" class="edge"><title>chi&#45;&#45;pit</title>
<path fill="none" stroke="orange" d="M227.67,-173.684C262.943,-200.773 342.821,-253.591 386.448,-278.901"/>
<text text-anchor="middle" x="303.559" y="-229.092" font-family="Times,serif" font-size="14.00">3</text>
</g>
<!-- chi&#45;&#45;pit -->
<g id="edge72" class="edge"><title>chi&#45;&#45;pit</title>
<path fill="none" stroke="black" d="M238.441,-170.213C281.574,-195.085 362.512,-248.547 398.37,-276.03"/>
<text text-anchor="middle" x="314.906" y="-225.921" font-family="Times,serif" font-size="14.00">3</text>
</g>
<!-- chi&#45;&#45;tor -->
<g id="edge73" class="edge"><title>chi&#45;&#45;tor</title>
<path fill="none" stroke="white" d="M216.379,-175.262C232.179,-221.62 274.011,-344.362 289.748,-390.539"/>
<text text-anchor="middle" x="249.564" y="-285.7" font-family="Times,serif" font-size="14.00">4</text>
</g>
<!-- nor&#45;&#45;mim -->
<g id="edge61" class="edge"><title>nor&#45;&#45;mim</title>
<path fill="none" stroke="red" d="M436.284,304.9C514.982,276.427 695.88,210.978 765.478,185.798"/>
<text text-anchor="middle" x="597.381" y="242.549" font-family="Times,serif" font-size="14.00">6</text>
</g>
<!-- nor&#45;&#45;atl -->
<g id="edge62" class="edge"><title>nor&#45;&#45;atl</title>
<path fill="none" stroke="yellow" d="M398.056,300.333C401.489,243.994 426.011,72.4144 438.614,16.3558"/>
<text text-anchor="middle" x="414.835" y="155.544" font-family="Times,serif" font-size="14.00">4</text>
</g>
<!-- nor&#45;&#45;atl -->
<g id="edge63" class="edge"><title>nor&#45;&#45;atl</title>
<path fill="none" stroke="orange" d="M404.798,300.351C417.4,244.161 441.831,73.2159 445.303,16.7478"/>
<text text-anchor="middle" x="421.55" y="169.749" font-family="Times,serif" font-size="14.00">4</text>
</g>
<!-- nor&#45;&#45;ltr -->
<g id="edge64" class="edge"><title>nor&#45;&#45;ltr</title>
<path fill="none" stroke="green" d="M378.664,301.58C344.808,273.19 276.88,216.231 243.182,187.974"/>
<text text-anchor="middle" x="307.423" y="241.977" font-family="Times,serif" font-size="14.00">3</text>
</g>
<!-- dal&#45;&#45;hst -->
<g id="edge58" class="edge"><title>dal&#45;&#45;hst</title>
<path fill="none" stroke="black" d="M208.836,320.12C216.913,325.703 225.479,332.447 232.285,338.627"/>
<text text-anchor="middle" x="224.06" y="326.573" font-family="Times,serif" font-size="14.00">1</text>
</g>
<!-- dal&#45;&#45;hst -->
<g id="edge59" class="edge"><title>dal&#45;&#45;hst</title>
<path fill="none" stroke="black" d="M195.566,325.648C201.695,331.26 209.333,337.374 216.775,342.684"/>
<text text-anchor="middle" x="202.671" y="345.366" font-family="Times,serif" font-size="14.00">1</text>
</g>
<!-- dal&#45;&#45;ltr -->
<g id="edge57" class="edge"><title>dal&#45;&#45;ltr</title>
<path fill="none" stroke="black" d="M188.543,290.752C196.203,264.413 210.397,215.6 218.057,189.259"/>
<text text-anchor="middle" x="199.8" y="237.205" font-family="Times,serif" font-size="14.00">2</text>
</g>
<!-- tor&#45;&#45;pit -->
<g id="edge75" class="edge"><title>tor&#45;&#45;pit</title>
<path fill="none" stroke="black" d="M312.834,-392.119C335.505,-370.326 375.468,-331.91 398.487,-309.782"/>
<text text-anchor="middle" x="352.16" y="-353.751" font-family="Times,serif" font-size="14.00">2</text>
</g>
<!-- tor&#45;&#45;ssm -->
<g id="edge74" class="edge"><title>tor&#45;&#45;ssm</title>
<path fill="none" stroke="black" d="M257.658,-410.228C237.095,-411.188 211.252,-412.394 188.027,-413.478"/>
<text text-anchor="middle" x="219.342" y="-414.653" font-family="Times,serif" font-size="14.00">2</text>
</g>
<!-- tor&#45;&#45;mon -->
<g id="edge76" class="edge"><title>tor&#45;&#45;mon</title>
<path fill="none" stroke="black" d="M306.414,-426.015C330.215,-465.606 387.815,-561.42 411.671,-601.104"/>
<text text-anchor="middle" x="355.543" y="-516.359" font-family="Times,serif" font-size="14.00">3</text>
</g>
<!-- chr&#45;&#45;mim -->
<g id="edge99" class="edge"><title>chr&#45;&#45;mim</title>
<path fill="none" stroke="pink" d="M603.504,-13.9086C642.688,25.1943 739.181,121.489 777.456,159.685"/>
<text text-anchor="middle" x="686.98" y="70.088" font-family="Times,serif" font-size="14.00">4</text>
</g>
<!-- sfo&#45;&#45;slc -->
<g id="edge11" class="edge"><title>sfo&#45;&#45;slc</title>
<path fill="none" stroke="orange" d="M-746.197,350.001C-691.771,313.91 -548.816,230.563 -482.855,196.231"/>
<text text-anchor="middle" x="-618.026" y="270.316" font-family="Times,serif" font-size="14.00">5</text>
</g>
<!-- sfo&#45;&#45;slc -->
<g id="edge12" class="edge"><title>sfo&#45;&#45;slc</title>
<path fill="none" stroke="white" d="M-733.582,351.916C-667.658,317.603 -524.837,234.336 -470.339,198.211"/>
<text text-anchor="middle" x="-605.461" y="272.263" font-family="Times,serif" font-size="14.00">5</text>
</g>
<!-- sfo&#45;&#45;lax -->
<g id="edge13" class="edge"><title>sfo&#45;&#45;lax</title>
<path fill="none" stroke="yellow" d="M-737.29,382.601C-690.587,411.813 -603.001,473.615 -565.691,503.939"/>
<text text-anchor="middle" x="-654.99" y="440.47" font-family="Times,serif" font-size="14.00">3</text>
</g>
<!-- sfo&#45;&#45;lax -->
<g id="edge14" class="edge"><title>sfo&#45;&#45;lax</title>
<path fill="none" stroke="pink" d="M-750.259,384.186C-712.716,414.688 -624.468,476.934 -577.982,505.936"/>
<text text-anchor="middle" x="-667.62" y="442.261" font-family="Times,serif" font-size="14.00">3</text>
</g>
<!-- stl -->
<g id="node32" class="node"><title>stl</title>
<ellipse fill="none" stroke="black" cx="214.339" cy="11.391" rx="50.782" ry="18"/>
<text text-anchor="middle" x="214.339" y="15.591" font-family="Times,serif" font-size="14.00">Saint Louis</text>
</g>
<!-- stl&#45;&#45;pit -->
<g id="edge68" class="edge"><title>stl&#45;&#45;pit</title>
<path fill="none" stroke="green" d="M226.063,-6.27765C261.734,-60.0388 368.696,-221.244 404.41,-275.07"/>
<text text-anchor="middle" x="311.736" y="-143.474" font-family="Times,serif" font-size="14.00">5</text>
</g>
<!-- stl&#45;&#45;nsh -->
<g id="edge67" class="edge"><title>stl&#45;&#45;nsh</title>
<path fill="none" stroke="black" d="M265.107,11.1942C284.904,11.1175 307.386,11.0303 326.503,10.9562"/>
<text text-anchor="middle" x="292.305" y="8.27519" font-family="Times,serif" font-size="14.00">2</text>
</g>
<!-- stl&#45;&#45;chi -->
<g id="edge69" class="edge"><title>stl&#45;&#45;chi</title>
<path fill="none" stroke="white" d="M209.529,-6.54361C205.561,-38.9136 203.908,-106.743 206.302,-139.174"/>
<text text-anchor="middle" x="204.416" y="-75.6589" font-family="Times,serif" font-size="14.00">2</text>
</g>
<!-- stl&#45;&#45;chi -->
<g id="edge70" class="edge"><title>stl&#45;&#45;chi</title>
<path fill="none" stroke="green" d="M218.267,-6.75707C220.645,-39.1971 218.998,-106.757 215.046,-139.133"/>
<text text-anchor="middle" x="213.157" y="-75.745" font-family="Times,serif" font-size="14.00">2</text>
</g>
<!-- nyc&#45;&#45;pit -->
<g id="edge85" class="edge"><title>nyc&#45;&#45;pit</title>
<path fill="none" stroke="green" d="M510.457,-403.788C494.011,-378.676 458.229,-333.54 435.672,-309.218"/>
<text text-anchor="middle" x="469.564" y="-359.303" font-family="Times,serif" font-size="14.00">2</text>
</g>
<!-- nyc&#45;&#45;pit -->
<g id="edge86" class="edge"><title>nyc&#45;&#45;pit</title>
<path fill="none" stroke="white" d="M499.386,-405.194C476.792,-380.83 440.944,-335.605 424.537,-310.522"/>
<text text-anchor="middle" x="458.462" y="-360.658" font-family="Times,serif" font-size="14.00">2</text>
</g>
<!-- nyc&#45;&#45;wsh -->
<g id="edge83" class="edge"><title>nyc&#45;&#45;wsh</title>
<path fill="none" stroke="black" d="M529.473,-404.051C539.926,-378.823 554.12,-332.652 559.225,-307.048"/>
<text text-anchor="middle" x="540.849" y="-358.35" font-family="Times,serif" font-size="14.00">2</text>
</g>
<!-- nyc&#45;&#45;wsh -->
<g id="edge84" class="edge"><title>nyc&#45;&#45;wsh</title>
<path fill="none" stroke="orange" d="M519.643,-403.433C524.721,-377.92 538.863,-331.884 549.316,-306.584"/>
<text text-anchor="middle" x="530.98" y="-357.808" font-family="Times,serif" font-size="14.00">2</text>
</g>
<!-- sea&#45;&#45;hel -->
<g id="edge5" class="edge"><title>sea&#45;&#45;hel</title>
<path fill="none" stroke="yellow" d="M-833.051,-90.4039C-745.967,-78.6689 -512.822,-47.2517 -425.071,-35.427"/>
<text text-anchor="middle" x="-632.561" y="-65.7154" font-family="Times,serif" font-size="14.00">6</text>
</g>
<!-- sea&#45;&#45;por -->
<g id="edge6" class="edge"><title>sea&#45;&#45;por</title>
<path fill="none" stroke="black" d="M-862.734,-76.721C-862.899,-65.1478 -864.616,-50.2353 -867.091,-38.7529"/>
<text text-anchor="middle" x="-868.412" y="-60.537" font-family="Times,serif" font-size="14.00">1</text>
</g>
<!-- sea&#45;&#45;por -->
<g id="edge7" class="edge"><title>sea&#45;&#45;por</title>
<path fill="none" stroke="black" d="M-874.498,-77.3348C-877.006,-65.7598 -878.743,-50.6508 -878.89,-38.9968"/>
<text text-anchor="middle" x="-880.194" y="-60.9658" font-family="Times,serif" font-size="14.00">1</text>
</g>
<!-- sea&#45;&#45;cal -->
<g id="edge4" class="edge"><title>sea&#45;&#45;cal</title>
<path fill="none" stroke="black" d="M-862.532,-112.853C-850.976,-165.328 -817.331,-318.109 -805.736,-370.76"/>
<text text-anchor="middle" x="-837.634" y="-244.607" font-family="Times,serif" font-size="14.00">4</text>
</g>
<!-- ksc&#45;&#45;den -->
<g id="edge42" class="edge"><title>ksc&#45;&#45;den</title>
<path fill="none" stroke="black" d="M28.4027,49.1754C-15.253,83.1938 -125.665,158.063 -176.512,188.25"/>
<text text-anchor="middle" x="-77.5544" y="115.913" font-family="Times,serif" font-size="14.00">4</text>
</g>
<!-- ksc&#45;&#45;den -->
<g id="edge43" class="edge"><title>ksc&#45;&#45;den</title>
<path fill="none" stroke="orange" d="M16.4897,47.1645C-36.4725,79.0506 -144.405,152.391 -186.008,185.055"/>
<text text-anchor="middle" x="-88.2593" y="113.31" font-family="Times,serif" font-size="14.00">4</text>
</g>
<!-- ksc&#45;&#45;okc -->
<g id="edge40" class="edge"><title>ksc&#45;&#45;okc</title>
<path fill="none" stroke="black" d="M53.3222,50.2796C60.4709,82.767 68.7573,150.435 69.5141,182.836"/>
<text text-anchor="middle" x="57.9181" y="113.758" font-family="Times,serif" font-size="14.00">2</text>
</g>
<!-- ksc&#45;&#45;okc -->
<g id="edge41" class="edge"><title>ksc&#45;&#45;okc</title>
<path fill="none" stroke="black" d="M44.4978,50.387C45.2892,82.9353 53.5825,150.552 60.7233,182.894"/>
<text text-anchor="middle" x="49.1106" y="113.841" font-family="Times,serif" font-size="14.00">2</text>
</g>
<!-- ksc&#45;&#45;stl -->
<g id="edge38" class="edge"><title>ksc&#45;&#45;stl</title>
<path fill="none" stroke="pink" d="M88.6455,20.9066C111.337,17.1551 139.522,13.5821 163.449,11.3927"/>
<text text-anchor="middle" x="122.547" y="13.3497" font-family="Times,serif" font-size="14.00">2</text>
</g>
<!-- ksc&#45;&#45;stl -->
<g id="edge39" class="edge"><title>ksc&#45;&#45;stl</title>
<path fill="none" stroke="blue" d="M100.003,31.882C123.912,29.6268 151.647,26.0626 173.814,22.3502"/>
<text text-anchor="middle" x="133.408" y="24.3161" font-family="Times,serif" font-size="14.00">2</text>
</g>
<!-- ltr&#45;&#45;nsh -->
<g id="edge65" class="edge"><title>ltr&#45;&#45;nsh</title>
<path fill="none" stroke="white" d="M239.06,154.111C267.435,123.219 326.75,58.6403 355.042,27.838"/>
<text text-anchor="middle" x="293.551" y="88.1747" font-family="Times,serif" font-size="14.00">3</text>
</g>
<!-- ltr&#45;&#45;stl -->
<g id="edge66" class="edge"><title>ltr&#45;&#45;stl</title>
<path fill="none" stroke="black" d="M222.275,153.257C220.557,122.547 217.082,60.4332 215.358,29.6019"/>
<text text-anchor="middle" x="215.316" y="88.6293" font-family="Times,serif" font-size="14.00">2</text>
</g>
</g>
</svg>
