<?xml version="1.0" encoding="UTF-8" standalone="no"?>
<!DOCTYPE svg PUBLIC "-//W3C//DTD SVG 1.1//EN"
 "http://www.w3.org/Graphics/SVG/1.1/DTD/svg11.dtd">
<!-- Generated by graphviz version 2.38.0 (20140413.2041)
 -->
<!-- Title: USA Pages: 1 -->
<svg width="1141pt" height="1706pt"
 viewBox="0.00 0.00 1705.98 1141.40" xmlns="http://www.w3.org/2000/svg" xmlns:xlink="http://www.w3.org/1999/xlink">
<g id="graph0" class="graph" transform="scale(1 1) rotate(-90) translate(-803.534 606.706)">
<title>USA</title>
<polygon fill="darkgoldenrod" stroke="none" points="-902.441,534.695 -902.441,-606.706 803.534,-606.706 803.534,534.695 -902.441,534.695"/>
<!-- hel -->
<g id="node1" class="node"><title>hel</title>
<ellipse fill="none" stroke="black" cx="-385.852" cy="-70.928" rx="27.0958" ry="27.0958"/>
<text text-anchor="middle" x="-385.852" y="-66.728" font-family="Times,serif" font-size="14.00">HEL</text>
</g>
<!-- den -->
<g id="node10" class="node"><title>den</title>
<ellipse fill="none" stroke="black" cx="-222.454" cy="178.922" rx="28.0651" ry="28.0651"/>
<text text-anchor="middle" x="-222.454" y="183.122" font-family="Times,serif" font-size="14.00">DEN</text>
</g>
<!-- hel&#45;&#45;den -->
<g id="edge22" class="edge"><title>hel&#45;&#45;den</title>
<path fill="none" stroke="green" d="M-370.773,-47.8706C-339.803,-0.514761 -269.314,107.269 -237.973,155.191"/>
<text text-anchor="middle" x="-307.873" y="50.8604" font-family="Times,serif" font-size="14.00" fill="green">4</text>
</g>
<!-- dul -->
<g id="node23" class="node"><title>dul</title>
<ellipse fill="none" stroke="black" cx="2.84919" cy="-197.606" rx="28.0651" ry="28.0651"/>
<text text-anchor="middle" x="2.84919" y="-193.406" font-family="Times,serif" font-size="14.00">DUL</text>
</g>
<!-- hel&#45;&#45;dul -->
<g id="edge24" class="edge"><title>hel&#45;&#45;dul</title>
<path fill="none" stroke="orange" d="M-359.745,-79.4364C-289.275,-102.403 -95.6954,-165.49 -24.1725,-188.799"/>
<text text-anchor="middle" x="-195.459" y="-136.918" font-family="Times,serif" font-size="14.00" fill="orange">6</text>
</g>
<!-- win -->
<g id="node29" class="node"><title>win</title>
<ellipse fill="none" stroke="black" cx="-267.326" cy="-361.521" rx="27.5719" ry="27.5719"/>
<text text-anchor="middle" x="-267.326" y="-357.321" font-family="Times,serif" font-size="14.00">WIN</text>
</g>
<!-- hel&#45;&#45;win -->
<g id="edge25" class="edge"><title>hel&#45;&#45;win</title>
<path fill="none" stroke="blue" d="M-375.541,-96.2079C-353.182,-151.028 -300.435,-280.348 -277.868,-335.676"/>
<text text-anchor="middle" x="-330.205" y="-218.742" font-family="Times,serif" font-size="14.00" fill="blue">4</text>
</g>
<!-- omh -->
<g id="node34" class="node"><title>omh</title>
<ellipse fill="none" stroke="black" cx="1.01377" cy="-29.6706" rx="30.988" ry="30.988"/>
<text text-anchor="middle" x="1.01377" y="-25.4706" font-family="Times,serif" font-size="14.00">OMH</text>
</g>
<!-- hel&#45;&#45;omh -->
<g id="edge23" class="edge"><title>hel&#45;&#45;omh</title>
<path fill="none" stroke="red" d="M-358.649,-68.0269C-288.735,-60.5709 -103.124,-40.7763 -29.5999,-32.9354"/>
<text text-anchor="middle" x="-197.624" y="-53.2811" font-family="Times,serif" font-size="14.00" fill="red">5</text>
</g>
<!-- sfe -->
<g id="node2" class="node"><title>sfe</title>
<ellipse fill="none" stroke="black" cx="-171.136" cy="329.354" rx="25.1917" ry="25.1917"/>
<text text-anchor="middle" x="-171.136" y="333.554" font-family="Times,serif" font-size="14.00">SFE</text>
</g>
<!-- okc -->
<g id="node35" class="node"><title>okc</title>
<ellipse fill="none" stroke="black" cx="46.2477" cy="206.429" rx="28.5583" ry="28.5583"/>
<text text-anchor="middle" x="46.2477" y="210.629" font-family="Times,serif" font-size="14.00">OKC</text>
</g>
<!-- sfe&#45;&#45;okc -->
<g id="edge53" class="edge"><title>sfe&#45;&#45;okc</title>
<path fill="none" stroke="blue" d="M-148.691,316.662C-107.903,293.597 -21.8906,244.96 20.9256,220.748"/>
<text text-anchor="middle" x="-67.3826" y="265.905" font-family="Times,serif" font-size="14.00" fill="blue">3</text>
</g>
<!-- mim -->
<g id="node3" class="node"><title>mim</title>
<ellipse fill="none" stroke="black" cx="770.756" cy="257.054" rx="28.5583" ry="28.5583"/>
<text text-anchor="middle" x="770.756" y="261.254" font-family="Times,serif" font-size="14.00">MIM</text>
</g>
<!-- atl -->
<g id="node4" class="node"><title>atl</title>
<ellipse fill="none" stroke="black" cx="442.317" cy="44.2525" rx="26.1352" ry="26.1352"/>
<text text-anchor="middle" x="442.317" y="48.4525" font-family="Times,serif" font-size="14.00">ATL</text>
</g>
<!-- atl&#45;&#45;mim -->
<g id="edge92" class="edge"><title>atl&#45;&#45;mim</title>
<path fill="none" stroke="blue" d="M464.634,58.7119C523.83,97.0661 684.521,201.181 746.197,241.142"/>
<text text-anchor="middle" x="601.915" y="147.127" font-family="Times,serif" font-size="14.00" fill="blue">5</text>
</g>
<!-- ral -->
<g id="node8" class="node"><title>ral</title>
<ellipse fill="none" stroke="black" cx="517.446" cy="-100.295" rx="27.589" ry="27.589"/>
<text text-anchor="middle" x="517.446" y="-96.0952" font-family="Times,serif" font-size="14.00">RAL</text>
</g>
<!-- atl&#45;&#45;ral -->
<g id="edge94" class="edge"><title>atl&#45;&#45;ral</title>
<path fill="none" stroke="lightgray" d="M449.85,18.6695C461.719,-8.81415 484.113,-51.9783 500.016,-78.0869"/>
<text text-anchor="middle" x="471.433" y="-32.5087" font-family="Times,serif" font-size="14.00" fill="lightgray">2</text>
</g>
<!-- atl&#45;&#45;ral -->
<g id="edge95" class="edge"><title>atl&#45;&#45;ral</title>
<path fill="none" stroke="lightgray" d="M458.927,23.3872C474.646,-2.19659 497.193,-45.5102 509.397,-73.5208"/>
<text text-anchor="middle" x="480.662" y="-27.8668" font-family="Times,serif" font-size="14.00" fill="lightgray">2</text>
</g>
<!-- chr -->
<g id="node28" class="node"><title>chr</title>
<ellipse fill="none" stroke="black" cx="586.589" cy="29.9283" rx="28.0822" ry="28.0822"/>
<text text-anchor="middle" x="586.589" y="34.1283" font-family="Times,serif" font-size="14.00">CHR</text>
</g>
<!-- atl&#45;&#45;chr -->
<g id="edge93" class="edge"><title>atl&#45;&#45;chr</title>
<path fill="none" stroke="lightgray" d="M468.779,41.6252C494.159,39.1053 532.355,35.313 558.322,32.7348"/>
<text text-anchor="middle" x="510.05" y="34.38" font-family="Times,serif" font-size="14.00" fill="lightgray">2</text>
</g>
<!-- mon -->
<g id="node5" class="node"><title>mon</title>
<ellipse fill="none" stroke="black" cx="484.065" cy="-571.962" rx="30.988" ry="30.988"/>
<text text-anchor="middle" x="484.065" y="-567.762" font-family="Times,serif" font-size="14.00">MON</text>
</g>
<!-- nyc -->
<g id="node24" class="node"><title>nyc</title>
<ellipse fill="none" stroke="black" cx="559.875" cy="-365.841" rx="28.5583" ry="28.5583"/>
<text text-anchor="middle" x="559.875" y="-361.641" font-family="Times,serif" font-size="14.00">NYC</text>
</g>
<!-- mon&#45;&#45;nyc -->
<g id="edge78" class="edge"><title>mon&#45;&#45;nyc</title>
<path fill="none" stroke="blue" d="M494.766,-542.867C509.419,-503.029 535.534,-432.024 549.833,-393.145"/>
<text text-anchor="middle" x="518.8" y="-470.806" font-family="Times,serif" font-size="14.00" fill="blue">3</text>
</g>
<!-- ssm -->
<g id="node26" class="node"><title>ssm</title>
<ellipse fill="none" stroke="black" cx="169.922" cy="-401.152" rx="27.6147" ry="27.6147"/>
<text text-anchor="middle" x="169.922" y="-396.952" font-family="Times,serif" font-size="14.00">SSM</text>
</g>
<!-- mon&#45;&#45;ssm -->
<g id="edge77" class="edge"><title>mon&#45;&#45;ssm</title>
<path fill="none" stroke="black" d="M457.01,-557.251C396.734,-524.478 252.184,-445.881 194.399,-414.461"/>
<text text-anchor="middle" x="322.204" y="-488.656" font-family="Times,serif" font-size="14.00">5</text>
</g>
<!-- bos -->
<g id="node36" class="node"><title>bos</title>
<ellipse fill="none" stroke="black" cx="619.007" cy="-505.774" rx="27.1216" ry="27.1216"/>
<text text-anchor="middle" x="619.007" y="-501.574" font-family="Times,serif" font-size="14.00">BOS</text>
</g>
<!-- mon&#45;&#45;bos -->
<g id="edge79" class="edge"><title>mon&#45;&#45;bos</title>
<path fill="none" stroke="lightgray" d="M513.816,-563.55C539.044,-553.043 574.599,-535.516 597.246,-522.366"/>
<text text-anchor="middle" x="552.031" y="-545.758" font-family="Times,serif" font-size="14.00" fill="lightgray">2</text>
</g>
<!-- mon&#45;&#45;bos -->
<g id="edge80" class="edge"><title>mon&#45;&#45;bos</title>
<path fill="none" stroke="lightgray" d="M508.929,-553.587C532.681,-540.069 568.305,-522.683 592.566,-512.824"/>
<text text-anchor="middle" x="547.248" y="-522.005" font-family="Times,serif" font-size="14.00" fill="lightgray">2</text>
</g>
<!-- por -->
<g id="node6" class="node"><title>por</title>
<ellipse fill="none" stroke="black" cx="-869.281" cy="-110.953" rx="27.1216" ry="27.1216"/>
<text text-anchor="middle" x="-869.281" y="-106.753" font-family="Times,serif" font-size="14.00">POR</text>
</g>
<!-- slc -->
<g id="node14" class="node"><title>slc</title>
<ellipse fill="none" stroke="black" cx="-464.985" cy="134.184" rx="26.1523" ry="26.1523"/>
<text text-anchor="middle" x="-464.985" y="138.384" font-family="Times,serif" font-size="14.00">SLC</text>
</g>
<!-- por&#45;&#45;slc -->
<g id="edge8" class="edge"><title>por&#45;&#45;slc</title>
<path fill="none" stroke="blue" d="M-845.796,-96.7137C-774.003,-53.1834 -558.052,77.7544 -487.531,120.513"/>
<text text-anchor="middle" x="-670.164" y="9.09971" font-family="Times,serif" font-size="14.00" fill="blue">6</text>
</g>
<!-- sfo -->
<g id="node27" class="node"><title>sfo</title>
<ellipse fill="none" stroke="black" cx="-801.358" cy="286.173" rx="26.1609" ry="26.1609"/>
<text text-anchor="middle" x="-801.358" y="290.373" font-family="Times,serif" font-size="14.00">SFO</text>
</g>
<!-- por&#45;&#45;sfo -->
<g id="edge9" class="edge"><title>por&#45;&#45;sfo</title>
<path fill="none" stroke="green" d="M-861.103,-84.5782C-844.492,-12.4022 -810.285,187.739 -802.269,259.852"/>
<text text-anchor="middle" x="-835.186" y="84.8367" font-family="Times,serif" font-size="14.00" fill="green">5</text>
</g>
<!-- por&#45;&#45;sfo -->
<g id="edge10" class="edge"><title>por&#45;&#45;sfo</title>
<path fill="none" stroke="pink" d="M-868.227,-83.3598C-859.907,-9.76558 -825.653,190.367 -809.247,261.045"/>
<text text-anchor="middle" x="-842.237" y="86.0427" font-family="Times,serif" font-size="14.00" fill="pink">5</text>
</g>
<!-- hst -->
<g id="node7" class="node"><title>hst</title>
<ellipse fill="none" stroke="black" cx="206.864" cy="379.126" rx="26.6284" ry="26.6284"/>
<text text-anchor="middle" x="206.864" y="383.326" font-family="Times,serif" font-size="14.00">HST</text>
</g>
<!-- nor -->
<g id="node13" class="node"><title>nor</title>
<ellipse fill="none" stroke="black" cx="363.681" cy="357.775" rx="28.5583" ry="28.5583"/>
<text text-anchor="middle" x="363.681" y="361.975" font-family="Times,serif" font-size="14.00">NOR</text>
</g>
<!-- hst&#45;&#45;nor -->
<g id="edge60" class="edge"><title>hst&#45;&#45;nor</title>
<path fill="none" stroke="lightgray" d="M233.466,375.504C261.691,371.661 306.127,365.611 335.088,361.668"/>
<text text-anchor="middle" x="280.777" y="365.786" font-family="Times,serif" font-size="14.00" fill="lightgray">2</text>
</g>
<!-- ral&#45;&#45;chr -->
<g id="edge98" class="edge"><title>ral&#45;&#45;chr</title>
<path fill="none" stroke="lightgray" d="M530.614,-75.4947C542.839,-52.4705 560.95,-18.3595 573.234,4.77651"/>
<text text-anchor="middle" x="548.424" y="-38.1591" font-family="Times,serif" font-size="14.00" fill="lightgray">2</text>
</g>
<!-- wsh -->
<g id="node33" class="node"><title>wsh</title>
<ellipse fill="none" stroke="black" cx="586.878" cy="-229.442" rx="29.5189" ry="29.5189"/>
<text text-anchor="middle" x="586.878" y="-225.242" font-family="Times,serif" font-size="14.00">WSH</text>
</g>
<!-- ral&#45;&#45;wsh -->
<g id="edge96" class="edge"><title>ral&#45;&#45;wsh</title>
<path fill="none" stroke="lightgray" d="M525.74,-127.149C536.304,-150.479 554.21,-183.872 568.048,-206.108"/>
<text text-anchor="middle" x="543.394" y="-169.428" font-family="Times,serif" font-size="14.00" fill="lightgray">2</text>
</g>
<!-- ral&#45;&#45;wsh -->
<g id="edge97" class="edge"><title>ral&#45;&#45;wsh</title>
<path fill="none" stroke="lightgray" d="M535.272,-122.024C548.906,-143.704 566.884,-177.058 577.799,-200.865"/>
<text text-anchor="middle" x="553.036" y="-164.245" font-family="Times,serif" font-size="14.00" fill="lightgray">2</text>
</g>
<!-- ltr -->
<g id="node9" class="node"><title>ltr</title>
<ellipse fill="none" stroke="black" cx="204.36" cy="193.086" rx="25.9948" ry="25.9948"/>
<text text-anchor="middle" x="204.36" y="197.286" font-family="Times,serif" font-size="14.00">LTR</text>
</g>
<!-- nsh -->
<g id="node18" class="node"><title>nsh</title>
<ellipse fill="none" stroke="black" cx="367.544" cy="48.6948" rx="27.5976" ry="27.5976"/>
<text text-anchor="middle" x="367.544" y="52.8948" font-family="Times,serif" font-size="14.00">NSH</text>
</g>
<!-- ltr&#45;&#45;nsh -->
<g id="edge65" class="edge"><title>ltr&#45;&#45;nsh</title>
<path fill="none" stroke="white" d="M224.044,175.669C254.984,148.291 314.739,95.4184 346.501,67.3144"/>
<text text-anchor="middle" x="281.772" y="118.692" font-family="Times,serif" font-size="14.00" fill="white">3</text>
</g>
<!-- stl -->
<g id="node32" class="node"><title>stl</title>
<ellipse fill="none" stroke="black" cx="211.948" cy="33.1195" rx="25.6592" ry="25.6592"/>
<text text-anchor="middle" x="211.948" y="37.3195" font-family="Times,serif" font-size="14.00">STL</text>
</g>
<!-- ltr&#45;&#45;stl -->
<g id="edge66" class="edge"><title>ltr&#45;&#45;stl</title>
<path fill="none" stroke="lightgray" d="M205.596,167.029C207.007,137.282 209.301,88.9079 210.712,59.1657"/>
<text text-anchor="middle" x="204.654" y="110.297" font-family="Times,serif" font-size="14.00" fill="lightgray">2</text>
</g>
<!-- den&#45;&#45;sfe -->
<g id="edge45" class="edge"><title>den&#45;&#45;sfe</title>
<path fill="none" stroke="lightgray" d="M-213.279,205.816C-203.65,234.043 -188.65,278.014 -179.384,305.177"/>
<text text-anchor="middle" x="-199.831" y="252.696" font-family="Times,serif" font-size="14.00" fill="lightgray">2</text>
</g>
<!-- pnx -->
<g id="node30" class="node"><title>pnx</title>
<ellipse fill="none" stroke="black" cx="-341.479" cy="502.897" rx="27.5976" ry="27.5976"/>
<text text-anchor="middle" x="-341.479" y="507.097" font-family="Times,serif" font-size="14.00">PNX</text>
</g>
<!-- den&#45;&#45;pnx -->
<g id="edge46" class="edge"><title>den&#45;&#45;pnx</title>
<path fill="none" stroke="white" d="M-232.295,205.71C-254.741,266.805 -309.496,415.843 -331.793,476.531"/>
<text text-anchor="middle" x="-285.544" y="338.32" font-family="Times,serif" font-size="14.00" fill="white">5</text>
</g>
<!-- den&#45;&#45;okc -->
<g id="edge44" class="edge"><title>den&#45;&#45;okc</title>
<path fill="none" stroke="red" d="M-194.206,181.814C-142.734,187.083 -34.2181,198.192 17.5695,203.493"/>
<text text-anchor="middle" x="-91.8182" y="189.853" font-family="Times,serif" font-size="14.00" fill="red">4</text>
</g>
<!-- ksc -->
<g id="node11" class="node"><title>ksc</title>
<ellipse fill="none" stroke="black" cx="42.9916" cy="36.4243" rx="27.1216" ry="27.1216"/>
<text text-anchor="middle" x="42.9916" y="40.6243" font-family="Times,serif" font-size="14.00">KSC</text>
</g>
<!-- ksc&#45;&#45;den -->
<g id="edge42" class="edge"><title>ksc&#45;&#45;den</title>
<path fill="none" stroke="black" d="M20.8968,52.9163C-27.5845,82.9583 -142.973,144.926 -195.56,169.187"/>
<text text-anchor="middle" x="-90.8315" y="122.252" font-family="Times,serif" font-size="14.00">4</text>
</g>
<!-- ksc&#45;&#45;den -->
<g id="edge43" class="edge"><title>ksc&#45;&#45;den</title>
<path fill="none" stroke="orange" d="M17.0371,45.7263C-34.7915,69.5331 -150.2,131.463 -199.479,161.886"/>
<text text-anchor="middle" x="-94.7212" y="101.006" font-family="Times,serif" font-size="14.00" fill="orange">4</text>
</g>
<!-- ksc&#45;&#45;stl -->
<g id="edge38" class="edge"><title>ksc&#45;&#45;stl</title>
<path fill="none" stroke="pink" d="M70.0373,30.7795C102.083,27.9317 155.068,26.9363 186.43,28.6259"/>
<text text-anchor="middle" x="124.734" y="26.9027" font-family="Times,serif" font-size="14.00" fill="pink">2</text>
</g>
<!-- ksc&#45;&#45;stl -->
<g id="edge39" class="edge"><title>ksc&#45;&#45;stl</title>
<path fill="none" stroke="blue" d="M70.2374,41.0071C102.369,42.5996 155.354,41.5222 186.625,38.6075"/>
<text text-anchor="middle" x="124.931" y="51.0073" font-family="Times,serif" font-size="14.00" fill="blue">2</text>
</g>
<!-- ksc&#45;&#45;okc -->
<g id="edge40" class="edge"><title>ksc&#45;&#45;okc</title>
<path fill="none" stroke="lightgray" d="M48.5954,63.2646C51.3727,94.4941 52.3919,145.848 50.8962,177.816"/>
<text text-anchor="middle" x="46.2458" y="117.74" font-family="Times,serif" font-size="14.00" fill="lightgray">2</text>
</g>
<!-- ksc&#45;&#45;okc -->
<g id="edge41" class="edge"><title>ksc&#45;&#45;okc</title>
<path fill="none" stroke="lightgray" d="M38.4197,63.4595C36.8403,94.7725 37.7882,146.128 40.5069,178.015"/>
<text text-anchor="middle" x="35.9633" y="117.937" font-family="Times,serif" font-size="14.00" fill="lightgray">2</text>
</g>
<!-- tor -->
<g id="node12" class="node"><title>tor</title>
<ellipse fill="none" stroke="black" cx="336.561" cy="-375.883" rx="27.7773" ry="27.7773"/>
<text text-anchor="middle" x="336.561" y="-371.683" font-family="Times,serif" font-size="14.00">TOR</text>
</g>
<!-- tor&#45;&#45;mon -->
<g id="edge76" class="edge"><title>tor&#45;&#45;mon</title>
<path fill="none" stroke="lightgray" d="M353.195,-397.995C380.921,-434.852 436.399,-508.599 465.412,-547.166"/>
<text text-anchor="middle" x="405.803" y="-475.38" font-family="Times,serif" font-size="14.00" fill="lightgray">3</text>
</g>
<!-- pit -->
<g id="node15" class="node"><title>pit</title>
<ellipse fill="none" stroke="black" cx="444.262" cy="-248.368" rx="23.2447" ry="23.2447"/>
<text text-anchor="middle" x="444.262" y="-244.168" font-family="Times,serif" font-size="14.00">PIT</text>
</g>
<!-- tor&#45;&#45;pit -->
<g id="edge75" class="edge"><title>tor&#45;&#45;pit</title>
<path fill="none" stroke="lightgray" d="M354.587,-354.54C375.426,-329.867 409.365,-289.685 428.968,-266.475"/>
<text text-anchor="middle" x="388.278" y="-313.307" font-family="Times,serif" font-size="14.00" fill="lightgray">2</text>
</g>
<!-- tor&#45;&#45;ssm -->
<g id="edge74" class="edge"><title>tor&#45;&#45;ssm</title>
<path fill="none" stroke="lightgray" d="M309.044,-380.056C278.168,-384.738 228.372,-392.289 197.48,-396.973"/>
<text text-anchor="middle" x="249.762" y="-391.315" font-family="Times,serif" font-size="14.00" fill="lightgray">2</text>
</g>
<!-- nor&#45;&#45;mim -->
<g id="edge61" class="edge"><title>nor&#45;&#45;mim</title>
<path fill="none" stroke="red" d="M391.661,350.852C466.027,332.452 667.991,282.481 742.58,264.026"/>
<text text-anchor="middle" x="563.621" y="304.639" font-family="Times,serif" font-size="14.00" fill="red">6</text>
</g>
<!-- nor&#45;&#45;atl -->
<g id="edge62" class="edge"><title>nor&#45;&#45;atl</title>
<path fill="none" stroke="yellow" d="M366.734,328.967C378.303,267.834 413.907,126.079 432.12,68.8554"/>
<text text-anchor="middle" x="395.927" y="196.111" font-family="Times,serif" font-size="14.00" fill="yellow">4</text>
</g>
<!-- nor&#45;&#45;atl -->
<g id="edge63" class="edge"><title>nor&#45;&#45;atl</title>
<path fill="none" stroke="orange" d="M374.585,330.936C393.236,271.579 428.748,129.801 439.696,70.7555"/>
<text text-anchor="middle" x="403.64" y="198.046" font-family="Times,serif" font-size="14.00" fill="orange">4</text>
</g>
<!-- nor&#45;&#45;ltr -->
<g id="edge64" class="edge"><title>nor&#45;&#45;ltr</title>
<path fill="none" stroke="green" d="M343.503,336.917C312.354,304.719 253.016,243.381 222.894,212.245"/>
<text text-anchor="middle" x="279.698" y="271.781" font-family="Times,serif" font-size="14.00" fill="green">3</text>
</g>
<!-- slc&#45;&#45;hel -->
<g id="edge19" class="edge"><title>slc&#45;&#45;hel</title>
<path fill="none" stroke="pink" d="M-455.44,109.442C-440.313,70.232 -410.982,-5.79306 -395.68,-45.4556"/>
<text text-anchor="middle" x="-429.06" y="29.1934" font-family="Times,serif" font-size="14.00" fill="pink">3</text>
</g>
<!-- slc&#45;&#45;den -->
<g id="edge20" class="edge"><title>slc&#45;&#45;den</title>
<path fill="none" stroke="red" d="M-438.237,134.673C-391.599,140.088 -295.944,157.696 -249.263,169.42"/>
<text text-anchor="middle" x="-347.25" y="149.247" font-family="Times,serif" font-size="14.00" fill="red">3</text>
</g>
<!-- slc&#45;&#45;den -->
<g id="edge21" class="edge"><title>slc&#45;&#45;den</title>
<path fill="none" stroke="yellow" d="M-439.823,143.269C-394.322,154.851 -298.681,172.531 -250.889,178.233"/>
<text text-anchor="middle" x="-348.856" y="171.951" font-family="Times,serif" font-size="14.00" fill="yellow">3</text>
</g>
<!-- pit&#45;&#45;ral -->
<g id="edge88" class="edge"><title>pit&#45;&#45;ral</title>
<path fill="none" stroke="lightgray" d="M454.747,-227.153C468.027,-200.284 490.88,-154.047 505.021,-125.435"/>
<text text-anchor="middle" x="476.384" y="-179.094" font-family="Times,serif" font-size="14.00" fill="lightgray">2</text>
</g>
<!-- pit&#45;&#45;nsh -->
<g id="edge89" class="edge"><title>pit&#45;&#45;nsh</title>
<path fill="none" stroke="yellow" d="M438.369,-225.551C424.44,-171.614 389.529,-36.4366 374.55,21.5667"/>
<text text-anchor="middle" x="402.959" y="-104.792" font-family="Times,serif" font-size="14.00" fill="yellow">4</text>
</g>
<!-- pit&#45;&#45;wsh -->
<g id="edge87" class="edge"><title>pit&#45;&#45;wsh</title>
<path fill="none" stroke="lightgray" d="M467.493,-245.285C491.961,-242.038 530.565,-236.915 557.218,-233.378"/>
<text text-anchor="middle" x="508.855" y="-242.131" font-family="Times,serif" font-size="14.00" fill="lightgray">2</text>
</g>
<!-- lax -->
<g id="node16" class="node"><title>lax</title>
<ellipse fill="none" stroke="black" cx="-598.78" cy="462.226" rx="28.0651" ry="28.0651"/>
<text text-anchor="middle" x="-598.78" y="466.426" font-family="Times,serif" font-size="14.00">LAX</text>
</g>
<!-- lav -->
<g id="node21" class="node"><title>lav</title>
<ellipse fill="none" stroke="black" cx="-602.517" cy="329.851" rx="27.2842" ry="27.2842"/>
<text text-anchor="middle" x="-602.517" y="334.051" font-family="Times,serif" font-size="14.00">LAV</text>
</g>
<!-- lax&#45;&#45;lav -->
<g id="edge15" class="edge"><title>lax&#45;&#45;lav</title>
<path fill="none" stroke="lightgray" d="M-599.582,433.828C-600.221,411.189 -601.11,379.68 -601.742,357.295"/>
<text text-anchor="middle" x="-604.162" y="392.762" font-family="Times,serif" font-size="14.00" fill="lightgray">2</text>
</g>
<!-- lax&#45;&#45;pnx -->
<g id="edge16" class="edge"><title>lax&#45;&#45;pnx</title>
<path fill="none" stroke="lightgray" d="M-570.754,466.656C-521.13,474.5 -418.401,490.738 -369.081,498.534"/>
<text text-anchor="middle" x="-473.418" y="479.795" font-family="Times,serif" font-size="14.00" fill="lightgray">3</text>
</g>
<!-- elp -->
<g id="node31" class="node"><title>elp</title>
<ellipse fill="none" stroke="black" cx="-136.406" cy="476.999" rx="25.6592" ry="25.6592"/>
<text text-anchor="middle" x="-136.406" y="481.199" font-family="Times,serif" font-size="14.00">ELP</text>
</g>
<!-- lax&#45;&#45;elp -->
<g id="edge17" class="edge"><title>lax&#45;&#45;elp</title>
<path fill="none" stroke="black" d="M-570.205,463.139C-486.527,465.812 -242.867,473.597 -162.477,476.166"/>
<text text-anchor="middle" x="-369.841" y="466.852" font-family="Times,serif" font-size="14.00">6</text>
</g>
<!-- cal -->
<g id="node17" class="node"><title>cal</title>
<ellipse fill="none" stroke="black" cx="-757.786" cy="-469.029" rx="27.589" ry="27.589"/>
<text text-anchor="middle" x="-757.786" y="-464.829" font-family="Times,serif" font-size="14.00">CAL</text>
</g>
<!-- cal&#45;&#45;win -->
<g id="edge26" class="edge"><title>cal&#45;&#45;win</title>
<path fill="none" stroke="white" d="M-730.366,-463.019C-644.326,-444.159 -380.326,-386.29 -294.553,-367.489"/>
<text text-anchor="middle" x="-515.959" y="-418.054" font-family="Times,serif" font-size="14.00" fill="white">6</text>
</g>
<!-- nsh&#45;&#45;atl -->
<g id="edge91" class="edge"><title>nsh&#45;&#45;atl</title>
<path fill="none" stroke="lightgray" d="M395.387,47.0407C402.03,46.646 409.105,46.2257 415.692,45.8343"/>
<text text-anchor="middle" x="402.039" y="43.6375" font-family="Times,serif" font-size="14.00" fill="lightgray">1</text>
</g>
<!-- nsh&#45;&#45;ral -->
<g id="edge90" class="edge"><title>nsh&#45;&#45;ral</title>
<path fill="none" stroke="black" d="M387.45,28.9101C416.121,0.413702 468.742,-51.8868 497.458,-80.4287"/>
<text text-anchor="middle" x="438.954" y="-28.5593" font-family="Times,serif" font-size="14.00">3</text>
</g>
<!-- sea -->
<g id="node19" class="node"><title>sea</title>
<ellipse fill="none" stroke="black" cx="-851.254" cy="-183.237" rx="26.6284" ry="26.6284"/>
<text text-anchor="middle" x="-851.254" y="-179.037" font-family="Times,serif" font-size="14.00">SEA</text>
</g>
<!-- sea&#45;&#45;hel -->
<g id="edge5" class="edge"><title>sea&#45;&#45;hel</title>
<path fill="none" stroke="yellow" d="M-824.898,-176.877C-743.175,-157.156 -494.61,-97.1729 -412.496,-77.3575"/>
<text text-anchor="middle" x="-622.197" y="-129.917" font-family="Times,serif" font-size="14.00" fill="yellow">6</text>
</g>
<!-- sea&#45;&#45;por -->
<g id="edge6" class="edge"><title>sea&#45;&#45;por</title>
<path fill="none" stroke="lightgray" d="M-851.28,-156.39C-852.635,-149.463 -854.474,-142.048 -856.518,-135.259"/>
<text text-anchor="middle" x="-857.399" y="-148.624" font-family="Times,serif" font-size="14.00" fill="lightgray">1</text>
</g>
<!-- sea&#45;&#45;por -->
<g id="edge7" class="edge"><title>sea&#45;&#45;por</title>
<path fill="none" stroke="lightgray" d="M-863.838,-159.522C-865.894,-152.769 -867.752,-145.36 -869.135,-138.406"/>
<text text-anchor="middle" x="-869.987" y="-137.764" font-family="Times,serif" font-size="14.00" fill="lightgray">1</text>
</g>
<!-- sea&#45;&#45;cal -->
<g id="edge4" class="edge"><title>sea&#45;&#45;cal</title>
<path fill="none" stroke="lightgray" d="M-842.877,-208.851C-825.222,-262.832 -784.35,-387.805 -766.448,-442.542"/>
<text text-anchor="middle" x="-808.163" y="-328.496" font-family="Times,serif" font-size="14.00" fill="lightgray">4</text>
</g>
<!-- van -->
<g id="node20" class="node"><title>van</title>
<ellipse fill="none" stroke="black" cx="-870.315" cy="-255.508" rx="28.2531" ry="28.2531"/>
<text text-anchor="middle" x="-870.315" y="-251.308" font-family="Times,serif" font-size="14.00">VAN</text>
</g>
<!-- van&#45;&#45;cal -->
<g id="edge1" class="edge"><title>van&#45;&#45;cal</title>
<path fill="none" stroke="lightgray" d="M-857.186,-280.42C-835.503,-321.563 -792.459,-403.238 -770.831,-444.276"/>
<text text-anchor="middle" x="-817.509" y="-365.148" font-family="Times,serif" font-size="14.00" fill="lightgray">3</text>
</g>
<!-- van&#45;&#45;sea -->
<g id="edge2" class="edge"><title>van&#45;&#45;sea</title>
<path fill="none" stroke="lightgray" d="M-857.009,-230.673C-854.972,-224.144 -853.122,-217.07 -851.718,-210.425"/>
<text text-anchor="middle" x="-857.864" y="-209.349" font-family="Times,serif" font-size="14.00" fill="lightgray">1</text>
</g>
<!-- van&#45;&#45;sea -->
<g id="edge3" class="edge"><title>van&#45;&#45;sea</title>
<path fill="none" stroke="lightgray" d="M-869.642,-227.342C-868.195,-220.657 -866.315,-213.591 -864.259,-207.117"/>
<text text-anchor="middle" x="-870.45" y="-220.029" font-family="Times,serif" font-size="14.00" fill="lightgray">1</text>
</g>
<!-- lav&#45;&#45;slc -->
<g id="edge18" class="edge"><title>lav&#45;&#45;slc</title>
<path fill="none" stroke="orange" d="M-586.741,307.405C-560.07,269.461 -506.416,193.128 -480.159,155.771"/>
<text text-anchor="middle" x="-536.95" y="228.788" font-family="Times,serif" font-size="14.00" fill="orange">3</text>
</g>
<!-- dal -->
<g id="node22" class="node"><title>dal</title>
<ellipse fill="none" stroke="black" cx="150.453" cy="325.658" rx="28.0651" ry="28.0651"/>
<text text-anchor="middle" x="150.453" y="329.858" font-family="Times,serif" font-size="14.00">DAL</text>
</g>
<!-- dal&#45;&#45;hst -->
<g id="edge58" class="edge"><title>dal&#45;&#45;hst</title>
<path fill="none" stroke="lightgray" d="M174.967,339.947C180.789,344.968 186.814,350.705 192.066,356.231"/>
<text text-anchor="middle" x="187.016" y="345.289" font-family="Times,serif" font-size="14.00" fill="lightgray">1</text>
</g>
<!-- dal&#45;&#45;hst -->
<g id="edge59" class="edge"><title>dal&#45;&#45;hst</title>
<path fill="none" stroke="lightgray" d="M166.034,349.371C171.359,354.916 177.411,360.626 183.21,365.574"/>
<text text-anchor="middle" x="171.122" y="368.673" font-family="Times,serif" font-size="14.00" fill="lightgray">1</text>
</g>
<!-- dal&#45;&#45;ltr -->
<g id="edge57" class="edge"><title>dal&#45;&#45;ltr</title>
<path fill="none" stroke="lightgray" d="M161.232,299.148C170.941,275.271 185.094,240.466 194.507,217.317"/>
<text text-anchor="middle" x="174.369" y="255.433" font-family="Times,serif" font-size="14.00" fill="lightgray">2</text>
</g>
<!-- dul&#45;&#45;tor -->
<g id="edge30" class="edge"><title>dul&#45;&#45;tor</title>
<path fill="none" stroke="pink" d="M27.9318,-211.006C90.0791,-244.206 250.602,-329.962 312.094,-362.812"/>
<text text-anchor="middle" x="166.513" y="-289.709" font-family="Times,serif" font-size="14.00" fill="pink">6</text>
</g>
<!-- chi -->
<g id="node25" class="node"><title>chi</title>
<ellipse fill="none" stroke="black" cx="225.3" cy="-134.982" rx="25.1746" ry="25.1746"/>
<text text-anchor="middle" x="225.3" y="-130.782" font-family="Times,serif" font-size="14.00">CHI</text>
</g>
<!-- dul&#45;&#45;chi -->
<g id="edge31" class="edge"><title>dul&#45;&#45;chi</title>
<path fill="none" stroke="red" d="M30.126,-189.927C73.8646,-177.614 159.011,-153.644 200.871,-141.859"/>
<text text-anchor="middle" x="111.999" y="-168.693" font-family="Times,serif" font-size="14.00" fill="red">3</text>
</g>
<!-- dul&#45;&#45;ssm -->
<g id="edge29" class="edge"><title>dul&#45;&#45;ssm</title>
<path fill="none" stroke="lightgray" d="M21.047,-219.776C53.3541,-259.136 120.325,-340.728 152.251,-379.624"/>
<text text-anchor="middle" x="83.1491" y="-302.5" font-family="Times,serif" font-size="14.00" fill="lightgray">3</text>
</g>
<!-- dul&#45;&#45;omh -->
<g id="edge32" class="edge"><title>dul&#45;&#45;omh</title>
<path fill="none" stroke="lightgray" d="M7.73343,-169.44C9.42826,-139.165 8.95486,-91.207 6.69056,-60.0879"/>
<text text-anchor="middle" x="3.71199" y="-117.564" font-family="Times,serif" font-size="14.00" fill="lightgray">2</text>
</g>
<!-- dul&#45;&#45;omh -->
<g id="edge33" class="edge"><title>dul&#45;&#45;omh</title>
<path fill="none" stroke="lightgray" d="M-2.64947,-169.554C-5.00559,-139.323 -5.58049,-91.3659 -3.99686,-60.2047"/>
<text text-anchor="middle" x="-6.82317" y="-117.679" font-family="Times,serif" font-size="14.00" fill="lightgray">2</text>
</g>
<!-- nyc&#45;&#45;pit -->
<g id="edge85" class="edge"><title>nyc&#45;&#45;pit</title>
<path fill="none" stroke="green" d="M543.737,-341.969C522.787,-317.647 486.543,-280.999 463.99,-261.476"/>
<text text-anchor="middle" x="500.363" y="-304.523" font-family="Times,serif" font-size="14.00" fill="green">2</text>
</g>
<!-- nyc&#45;&#45;pit -->
<g id="edge86" class="edge"><title>nyc&#45;&#45;pit</title>
<path fill="none" stroke="white" d="M536.265,-349.323C512.28,-327.988 476.214,-291.164 457.054,-268.303"/>
<text text-anchor="middle" x="493.159" y="-311.613" font-family="Times,serif" font-size="14.00" fill="white">2</text>
</g>
<!-- nyc&#45;&#45;wsh -->
<g id="edge83" class="edge"><title>nyc&#45;&#45;wsh</title>
<path fill="none" stroke="black" d="M570.87,-338.991C576.99,-316.066 583.529,-283.136 586.692,-259.369"/>
<text text-anchor="middle" x="575.281" y="-301.98" font-family="Times,serif" font-size="14.00">2</text>
</g>
<!-- nyc&#45;&#45;wsh -->
<g id="edge84" class="edge"><title>nyc&#45;&#45;wsh</title>
<path fill="none" stroke="orange" d="M559.94,-336.827C563.015,-313.3 569.516,-280.362 575.647,-257.183"/>
<text text-anchor="middle" x="564.293" y="-299.805" font-family="Times,serif" font-size="14.00" fill="orange">2</text>
</g>
<!-- chi&#45;&#45;tor -->
<g id="edge73" class="edge"><title>chi&#45;&#45;tor</title>
<path fill="none" stroke="white" d="M235.968,-158.08C256.908,-203.42 303.235,-303.726 324.929,-350.698"/>
<text text-anchor="middle" x="276.948" y="-257.189" font-family="Times,serif" font-size="14.00" fill="white">4</text>
</g>
<!-- chi&#45;&#45;pit -->
<g id="edge71" class="edge"><title>chi&#45;&#45;pit</title>
<path fill="none" stroke="orange" d="M245.534,-150.274C286.509,-175.254 378.861,-223.03 421.702,-241.36"/>
<text text-anchor="middle" x="330.118" y="-198.617" font-family="Times,serif" font-size="14.00" fill="orange">3</text>
</g>
<!-- chi&#45;&#45;pit -->
<g id="edge72" class="edge"><title>chi&#45;&#45;pit</title>
<path fill="none" stroke="black" d="M249.466,-142.681C293.513,-161.728 385.827,-209.578 425.519,-233.988"/>
<text text-anchor="middle" x="333.993" y="-177.135" font-family="Times,serif" font-size="14.00">3</text>
</g>
<!-- sfo&#45;&#45;slc -->
<g id="edge11" class="edge"><title>sfo&#45;&#45;slc</title>
<path fill="none" stroke="orange" d="M-778.954,272.006C-718.798,240.343 -554.162,165.95 -490.53,141.674"/>
<text text-anchor="middle" x="-638.242" y="204.04" font-family="Times,serif" font-size="14.00" fill="orange">5</text>
</g>
<!-- sfo&#45;&#45;slc -->
<g id="edge12" class="edge"><title>sfo&#45;&#45;slc</title>
<path fill="none" stroke="white" d="M-775.919,278.722C-712.399,254.503 -547.762,180.114 -487.49,148.403"/>
<text text-anchor="middle" x="-635.204" y="224.763" font-family="Times,serif" font-size="14.00" fill="white">5</text>
</g>
<!-- sfo&#45;&#45;lax -->
<g id="edge13" class="edge"><title>sfo&#45;&#45;lax</title>
<path fill="none" stroke="yellow" d="M-778.803,300.196C-738.382,330.9 -654.651,403.608 -617.32,440.354"/>
<text text-anchor="middle" x="-701.562" y="367.475" font-family="Times,serif" font-size="14.00" fill="yellow">3</text>
</g>
<!-- sfo&#45;&#45;lax -->
<g id="edge14" class="edge"><title>sfo&#45;&#45;lax</title>
<path fill="none" stroke="pink" d="M-784.328,306.553C-748.288,342.298 -664.616,415.074 -623.023,446.916"/>
<text text-anchor="middle" x="-707.175" y="387.934" font-family="Times,serif" font-size="14.00" fill="pink">3</text>
</g>
<!-- chr&#45;&#45;mim -->
<g id="edge99" class="edge"><title>chr&#45;&#45;mim</title>
<path fill="none" stroke="pink" d="M604.583,52.1196C639.701,95.4292 717.023,190.787 752.416,234.436"/>
<text text-anchor="middle" x="674.999" y="140.478" font-family="Times,serif" font-size="14.00" fill="pink">4</text>
</g>
<!-- win&#45;&#45;dul -->
<g id="edge27" class="edge"><title>win&#45;&#45;dul</title>
<path fill="none" stroke="black" d="M-243.35,-346.975C-192.209,-315.947 -72.8989,-243.562 -21.4617,-212.355"/>
<text text-anchor="middle" x="-135.906" y="-282.465" font-family="Times,serif" font-size="14.00">4</text>
</g>
<!-- win&#45;&#45;ssm -->
<g id="edge28" class="edge"><title>win&#45;&#45;ssm</title>
<path fill="none" stroke="lightgray" d="M-239.643,-364.03C-160.985,-371.16 63.2227,-391.481 142.078,-398.629"/>
<text text-anchor="middle" x="-52.2824" y="-384.129" font-family="Times,serif" font-size="14.00" fill="lightgray">6</text>
</g>
<!-- pnx&#45;&#45;sfe -->
<g id="edge47" class="edge"><title>pnx&#45;&#45;sfe</title>
<path fill="none" stroke="lightgray" d="M-321.939,482.989C-288.556,448.979 -221.041,380.197 -188.909,347.461"/>
<text text-anchor="middle" x="-258.924" y="412.425" font-family="Times,serif" font-size="14.00" fill="lightgray">3</text>
</g>
<!-- pnx&#45;&#45;elp -->
<g id="edge48" class="edge"><title>pnx&#45;&#45;elp</title>
<path fill="none" stroke="lightgray" d="M-313.822,499.404C-274.027,494.378 -201.143,485.174 -162.333,480.273"/>
<text text-anchor="middle" x="-241.578" y="487.039" font-family="Times,serif" font-size="14.00" fill="lightgray">3</text>
</g>
<!-- elp&#45;&#45;sfe -->
<g id="edge52" class="edge"><title>elp&#45;&#45;sfe</title>
<path fill="none" stroke="lightgray" d="M-142.376,451.618C-148.776,424.41 -158.874,381.484 -165.244,354.404"/>
<text text-anchor="middle" x="-157.31" y="400.211" font-family="Times,serif" font-size="14.00" fill="lightgray">2</text>
</g>
<!-- elp&#45;&#45;hst -->
<g id="edge49" class="edge"><title>elp&#45;&#45;hst</title>
<path fill="none" stroke="green" d="M-111.442,469.881C-48.3409,451.89 117.066,404.729 181.062,386.482"/>
<text text-anchor="middle" x="31.3101" y="425.382" font-family="Times,serif" font-size="14.00" fill="green">6</text>
</g>
<!-- elp&#45;&#45;dal -->
<g id="edge50" class="edge"><title>elp&#45;&#45;dal</title>
<path fill="none" stroke="red" d="M-113.416,464.87C-60.3687,436.883 70.248,367.972 125.319,338.918"/>
<text text-anchor="middle" x="2.45165" y="399.094" font-family="Times,serif" font-size="14.00" fill="red">4</text>
</g>
<!-- elp&#45;&#45;okc -->
<g id="edge51" class="edge"><title>elp&#45;&#45;okc</title>
<path fill="none" stroke="yellow" d="M-121.767,455.314C-88.0749,405.405 -5.23837,282.697 29.9794,230.528"/>
<text text-anchor="middle" x="-49.3939" y="340.121" font-family="Times,serif" font-size="14.00" fill="yellow">5</text>
</g>
<!-- stl&#45;&#45;pit -->
<g id="edge68" class="edge"><title>stl&#45;&#45;pit</title>
<path fill="none" stroke="green" d="M228.655,12.8756C272.039,-39.6912 387.774,-179.923 429.229,-230.153"/>
<text text-anchor="middle" x="325.442" y="-111.439" font-family="Times,serif" font-size="14.00" fill="green">5</text>
</g>
<!-- stl&#45;&#45;nsh -->
<g id="edge67" class="edge"><title>stl&#45;&#45;nsh</title>
<path fill="none" stroke="lightgray" d="M237.991,35.7265C266.194,38.5496 311.004,43.0352 339.84,45.9216"/>
<text text-anchor="middle" x="285.415" y="38.024" font-family="Times,serif" font-size="14.00" fill="lightgray">2</text>
</g>
<!-- stl&#45;&#45;chi -->
<g id="edge69" class="edge"><title>stl&#45;&#45;chi</title>
<path fill="none" stroke="white" d="M208.982,7.19187C209.186,-24.864 213.502,-79.0197 218.368,-110.428"/>
<text text-anchor="middle" x="210.175" y="-54.4182" font-family="Times,serif" font-size="14.00" fill="white">2</text>
</g>
<!-- stl&#45;&#45;chi -->
<g id="edge70" class="edge"><title>stl&#45;&#45;chi</title>
<path fill="none" stroke="green" d="M218.969,7.98518C223.829,-23.7009 228.116,-77.8589 228.269,-109.642"/>
<text text-anchor="middle" x="220.119" y="-53.6283" font-family="Times,serif" font-size="14.00" fill="green">2</text>
</g>
<!-- omh&#45;&#45;den -->
<g id="edge37" class="edge"><title>omh&#45;&#45;den</title>
<path fill="none" stroke="pink" d="M-21.6433,-8.52172C-65.1399,32.0796 -159.744,120.386 -201.7,159.55"/>
<text text-anchor="middle" x="-115.172" y="72.7139" font-family="Times,serif" font-size="14.00" fill="pink">4</text>
</g>
<!-- omh&#45;&#45;ksc -->
<g id="edge35" class="edge"><title>omh&#45;&#45;ksc</title>
<path fill="none" stroke="lightgray" d="M22.6823,-7.83611C26.694,-2.00539 30.67,4.34494 34.0774,10.3754"/>
<text text-anchor="middle" x="31.8798" y="-1.53033" font-family="Times,serif" font-size="14.00" fill="lightgray">1</text>
</g>
<!-- omh&#45;&#45;ksc -->
<g id="edge36" class="edge"><title>omh&#45;&#45;ksc</title>
<path fill="none" stroke="lightgray" d="M11.5646,-0.775126C15.1367,5.33482 19.1941,11.6335 23.2039,17.2813"/>
<text text-anchor="middle" x="13.8843" y="19.4531" font-family="Times,serif" font-size="14.00" fill="lightgray">1</text>
</g>
<!-- omh&#45;&#45;chi -->
<g id="edge34" class="edge"><title>omh&#45;&#45;chi</title>
<path fill="none" stroke="blue" d="M28.9663,-42.7954C73.707,-63.8029 160.58,-104.593 202.106,-124.091"/>
<text text-anchor="middle" x="112.036" y="-86.2432" font-family="Times,serif" font-size="14.00" fill="blue">4</text>
</g>
<!-- okc&#45;&#45;ltr -->
<g id="edge54" class="edge"><title>okc&#45;&#45;ltr</title>
<path fill="none" stroke="lightgray" d="M75.2478,203.982C104.757,201.491 150.073,197.667 178.425,195.275"/>
<text text-anchor="middle" x="123.336" y="196.828" font-family="Times,serif" font-size="14.00" fill="lightgray">2</text>
</g>
<!-- okc&#45;&#45;dal -->
<g id="edge55" class="edge"><title>okc&#45;&#45;dal</title>
<path fill="none" stroke="lightgray" d="M68.8801,224.247C89.2913,244.686 118.518,278.135 135.975,301.039"/>
<text text-anchor="middle" x="98.9274" y="259.843" font-family="Times,serif" font-size="14.00" fill="lightgray">2</text>
</g>
<!-- okc&#45;&#45;dal -->
<g id="edge56" class="edge"><title>okc&#45;&#45;dal</title>
<path fill="none" stroke="lightgray" d="M60.8749,231.243C78.3984,254.207 107.633,287.648 127.994,308.014"/>
<text text-anchor="middle" x="90.9346" y="266.829" font-family="Times,serif" font-size="14.00" fill="lightgray">2</text>
</g>
<!-- bos&#45;&#45;nyc -->
<g id="edge81" class="edge"><title>bos&#45;&#45;nyc</title>
<path fill="none" stroke="yellow" d="M613.446,-479.019C604.655,-453.328 588.461,-414.901 575.997,-390.083"/>
<text text-anchor="middle" x="591.221" y="-437.351" font-family="Times,serif" font-size="14.00" fill="yellow">2</text>
</g>
<!-- bos&#45;&#45;nyc -->
<g id="edge82" class="edge"><title>bos&#45;&#45;nyc</title>
<path fill="none" stroke="red" d="M603.697,-483.138C591.401,-458.929 575.132,-420.533 566.023,-394.298"/>
<text text-anchor="middle" x="581.36" y="-441.518" font-family="Times,serif" font-size="14.00" fill="red">2</text>
</g>
</g>
</svg>
