<?xml version="1.0" encoding="UTF-8" standalone="no"?>
<!DOCTYPE svg PUBLIC "-//W3C//DTD SVG 1.1//EN"
 "http://www.w3.org/Graphics/SVG/1.1/DTD/svg11.dtd">
<!-- Generated by graphviz version 2.38.0 (20140413.2041)
 -->
<!-- Title: USA Pages: 1 -->
<svg width="1157pt" height="1728pt"
 viewBox="7.20 7.20 1720.98 1149.37" xmlns="http://www.w3.org/2000/svg" xmlns:xlink="http://www.w3.org/1999/xlink">
<g id="graph0" class="graph" transform="scale(1 1) rotate(-90) translate(-807.471 530.237)">
<title>USA</title>
<polygon fill="darkgoldenrod" stroke="none" points="-913.507,619.13 -913.507,-523.037 800.271,-523.037 800.271,619.13 -913.507,619.13"/>
<!-- ral -->
<g id="node1" class="node"><title>ral</title>
<ellipse fill="white" stroke="black" cx="525.565" cy="38.8372" rx="27.589" ry="27.589"/>
<text text-anchor="middle" x="525.565" y="43.0372" font-family="Times,serif" font-size="14.00">RAL</text>
</g>
<!-- wsh -->
<g id="node31" class="node"><title>wsh</title>
<ellipse fill="white" stroke="black" cx="609.631" cy="158.982" rx="29.5189" ry="29.5189"/>
<text text-anchor="middle" x="609.631" y="163.182" font-family="Times,serif" font-size="14.00">WSH</text>
</g>
<!-- ral&#45;&#45;wsh -->
<g id="edge96" class="edge"><title>ral&#45;&#45;wsh</title>
<path fill="none" stroke="dimgray" d="M545.811,58.3332C561.888,78.2705 583.646,109.294 597.272,131.662"/>
<text text-anchor="middle" x="568.042" y="92.1978" font-family="Times,serif" font-size="14.00">2</text>
</g>
<!-- ral&#45;&#45;wsh -->
<g id="edge97" class="edge"><title>ral&#45;&#45;wsh</title>
<path fill="none" stroke="dimgray" d="M536.944,64.5379C550.165,86.473 571.855,117.544 588.201,138.01"/>
<text text-anchor="middle" x="559.072" y="98.4738" font-family="Times,serif" font-size="14.00">2</text>
</g>
<!-- chr -->
<g id="node36" class="node"><title>chr</title>
<ellipse fill="white" stroke="black" cx="579.019" cy="-98.5512" rx="28.0822" ry="28.0822"/>
<text text-anchor="middle" x="579.019" y="-94.3512" font-family="Times,serif" font-size="14.00">CHR</text>
</g>
<!-- ral&#45;&#45;chr -->
<g id="edge98" class="edge"><title>ral&#45;&#45;chr</title>
<path fill="none" stroke="dimgray" d="M535.745,12.6721C545.196,-11.6188 559.198,-47.6066 568.695,-72.0155"/>
<text text-anchor="middle" x="548.72" y="-32.4717" font-family="Times,serif" font-size="14.00">2</text>
</g>
<!-- van -->
<g id="node2" class="node"><title>van</title>
<ellipse fill="white" stroke="black" cx="-833.561" cy="356.545" rx="28.2531" ry="28.2531"/>
<text text-anchor="middle" x="-833.561" y="360.745" font-family="Times,serif" font-size="14.00">VAN</text>
</g>
<!-- sea -->
<g id="node20" class="node"><title>sea</title>
<ellipse fill="white" stroke="black" cx="-823.693" cy="282.485" rx="26.6284" ry="26.6284"/>
<text text-anchor="middle" x="-823.693" y="286.685" font-family="Times,serif" font-size="14.00">SEA</text>
</g>
<!-- van&#45;&#45;sea -->
<g id="edge2" class="edge"><title>van&#45;&#45;sea</title>
<path fill="none" stroke="dimgray" d="M-836.417,328.525C-835.818,321.715 -834.837,314.471 -833.608,307.795"/>
<text text-anchor="middle" x="-838.512" y="329.36" font-family="Times,serif" font-size="14.00">1</text>
</g>
<!-- van&#45;&#45;sea -->
<g id="edge3" class="edge"><title>van&#45;&#45;sea</title>
<path fill="none" stroke="dimgray" d="M-823.468,330.251C-822.263,323.521 -821.313,316.273 -820.751,309.507"/>
<text text-anchor="middle" x="-825.61" y="317.079" font-family="Times,serif" font-size="14.00">1</text>
</g>
<!-- cal -->
<g id="node22" class="node"><title>cal</title>
<ellipse fill="white" stroke="black" cx="-696.965" cy="555.336" rx="27.589" ry="27.589"/>
<text text-anchor="middle" x="-696.965" y="559.536" font-family="Times,serif" font-size="14.00">CAL</text>
</g>
<!-- van&#45;&#45;cal -->
<g id="edge1" class="edge"><title>van&#45;&#45;cal</title>
<path fill="none" stroke="dimgray" d="M-817.624,379.738C-791.304,418.043 -739.054,494.083 -712.8,532.291"/>
<text text-anchor="middle" x="-768.712" y="453.214" font-family="Times,serif" font-size="14.00">3</text>
</g>
<!-- tor -->
<g id="node3" class="node"><title>tor</title>
<ellipse fill="white" stroke="black" cx="378.217" cy="333.715" rx="27.7773" ry="27.7773"/>
<text text-anchor="middle" x="378.217" y="337.915" font-family="Times,serif" font-size="14.00">TOR</text>
</g>
<!-- ssm -->
<g id="node12" class="node"><title>ssm</title>
<ellipse fill="white" stroke="black" cx="215.69" cy="378.237" rx="27.6147" ry="27.6147"/>
<text text-anchor="middle" x="215.69" y="382.437" font-family="Times,serif" font-size="14.00">SSM</text>
</g>
<!-- tor&#45;&#45;ssm -->
<g id="edge74" class="edge"><title>tor&#45;&#45;ssm</title>
<path fill="none" stroke="dimgray" d="M351.379,341.067C321.265,349.316 272.698,362.62 242.568,370.874"/>
<text text-anchor="middle" x="293.473" y="353.171" font-family="Times,serif" font-size="14.00">2</text>
</g>
<!-- mon -->
<g id="node15" class="node"><title>mon</title>
<ellipse fill="white" stroke="black" cx="547.755" cy="511.15" rx="30.988" ry="30.988"/>
<text text-anchor="middle" x="547.755" y="515.35" font-family="Times,serif" font-size="14.00">MON</text>
</g>
<!-- tor&#45;&#45;mon -->
<g id="edge76" class="edge"><title>tor&#45;&#45;mon</title>
<path fill="none" stroke="dimgray" d="M397.336,353.724C429.204,387.077 492.969,453.812 526.315,488.712"/>
<text text-anchor="middle" x="458.325" y="418.418" font-family="Times,serif" font-size="14.00">3</text>
</g>
<!-- pit -->
<g id="node34" class="node"><title>pit</title>
<ellipse fill="white" stroke="black" cx="470.212" cy="194.445" rx="23.2447" ry="23.2447"/>
<text text-anchor="middle" x="470.212" y="198.645" font-family="Times,serif" font-size="14.00">PIT</text>
</g>
<!-- tor&#45;&#45;pit -->
<g id="edge75" class="edge"><title>tor&#45;&#45;pit</title>
<path fill="none" stroke="dimgray" d="M393.615,310.405C411.415,283.457 440.404,239.571 457.149,214.221"/>
<text text-anchor="middle" x="421.882" y="259.513" font-family="Times,serif" font-size="14.00">2</text>
</g>
<!-- hst -->
<g id="node4" class="node"><title>hst</title>
<ellipse fill="white" stroke="black" cx="160.989" cy="-401.043" rx="26.6284" ry="26.6284"/>
<text text-anchor="middle" x="160.989" y="-396.843" font-family="Times,serif" font-size="14.00">HST</text>
</g>
<!-- dal -->
<g id="node30" class="node"><title>dal</title>
<ellipse fill="white" stroke="black" cx="111.217" cy="-341.347" rx="28.0651" ry="28.0651"/>
<text text-anchor="middle" x="111.217" y="-337.147" font-family="Times,serif" font-size="14.00">DAL</text>
</g>
<!-- hst&#45;&#45;dal -->
<g id="edge59" class="edge"><title>hst&#45;&#45;dal</title>
<path fill="none" stroke="dimgray" d="M149.075,-376.717C144.534,-370.641 139.246,-364.26 134.067,-358.597"/>
<text text-anchor="middle" x="145.071" y="-356.457" font-family="Times,serif" font-size="14.00">1</text>
</g>
<!-- nor -->
<g id="node33" class="node"><title>nor</title>
<ellipse fill="white" stroke="black" cx="319.251" cy="-398.126" rx="28.5583" ry="28.5583"/>
<text text-anchor="middle" x="319.251" y="-393.926" font-family="Times,serif" font-size="14.00">NOR</text>
</g>
<!-- hst&#45;&#45;nor -->
<g id="edge60" class="edge"><title>hst&#45;&#45;nor</title>
<path fill="none" stroke="dimgray" d="M187.836,-400.549C216.321,-400.023 261.167,-399.197 290.394,-398.658"/>
<text text-anchor="middle" x="235.615" y="-402.403" font-family="Times,serif" font-size="14.00">2</text>
</g>
<!-- hel -->
<g id="node5" class="node"><title>hel</title>
<ellipse fill="white" stroke="black" cx="-374.808" cy="115.65" rx="27.0958" ry="27.0958"/>
<text text-anchor="middle" x="-374.808" y="119.85" font-family="Times,serif" font-size="14.00">HEL</text>
</g>
<!-- win -->
<g id="node6" class="node"><title>win</title>
<ellipse fill="white" stroke="black" cx="-222.943" cy="390.253" rx="27.5719" ry="27.5719"/>
<text text-anchor="middle" x="-222.943" y="394.453" font-family="Times,serif" font-size="14.00">WIN</text>
</g>
<!-- hel&#45;&#45;win -->
<g id="edge25" class="edge"><title>hel&#45;&#45;win</title>
<path fill="none" stroke="blue" d="M-361.597,139.539C-332.948,191.342 -265.364,313.547 -236.45,365.83"/>
<text text-anchor="middle" x="-302.524" y="249.885" font-family="Times,serif" font-size="14.00">4</text>
</g>
<!-- den -->
<g id="node9" class="node"><title>den</title>
<ellipse fill="white" stroke="black" cx="-241.954" cy="-151.771" rx="28.0651" ry="28.0651"/>
<text text-anchor="middle" x="-241.954" y="-147.571" font-family="Times,serif" font-size="14.00">DEN</text>
</g>
<!-- hel&#45;&#45;den -->
<g id="edge22" class="edge"><title>hel&#45;&#45;den</title>
<path fill="none" stroke="green" d="M-362.548,90.971C-337.367,40.2848 -280.055,-75.0791 -254.573,-126.372"/>
<text text-anchor="middle" x="-312.06" y="-20.5003" font-family="Times,serif" font-size="14.00">4</text>
</g>
<!-- omh -->
<g id="node19" class="node"><title>omh</title>
<ellipse fill="white" stroke="black" cx="4.4757" cy="29.0229" rx="30.988" ry="30.988"/>
<text text-anchor="middle" x="4.4757" y="33.2229" font-family="Times,serif" font-size="14.00">OMH</text>
</g>
<!-- hel&#45;&#45;omh -->
<g id="edge23" class="edge"><title>hel&#45;&#45;omh</title>
<path fill="none" stroke="red" d="M-348.138,109.559C-279.594,93.9034 -97.6207,52.3413 -25.538,35.8779"/>
<text text-anchor="middle" x="-190.338" y="69.9182" font-family="Times,serif" font-size="14.00">5</text>
</g>
<!-- dul -->
<g id="node35" class="node"><title>dul</title>
<ellipse fill="white" stroke="black" cx="25.971" cy="195.593" rx="28.0651" ry="28.0651"/>
<text text-anchor="middle" x="25.971" y="199.793" font-family="Times,serif" font-size="14.00">DUL</text>
</g>
<!-- hel&#45;&#45;dul -->
<g id="edge24" class="edge"><title>hel&#45;&#45;dul</title>
<path fill="none" stroke="orange" d="M-347.89,121.019C-275.23,135.513 -75.6355,175.326 -1.89033,190.036"/>
<text text-anchor="middle" x="-178.39" y="152.727" font-family="Times,serif" font-size="14.00">6</text>
</g>
<!-- win&#45;&#45;ssm -->
<g id="edge28" class="edge"><title>win&#45;&#45;ssm</title>
<path fill="none" stroke="dimgray" d="M-194.838,389.483C-115.611,387.313 108.879,381.163 187.818,379"/>
<text text-anchor="middle" x="-7.00965" y="381.442" font-family="Times,serif" font-size="14.00">6</text>
</g>
<!-- win&#45;&#45;dul -->
<g id="edge27" class="edge"><title>win&#45;&#45;dul</title>
<path fill="none" stroke="black" d="M-200.854,372.979C-153.737,336.131 -43.8161,250.169 3.57324,213.109"/>
<text text-anchor="middle" x="-102.14" y="290.244" font-family="Times,serif" font-size="14.00">4</text>
</g>
<!-- ltr -->
<g id="node7" class="node"><title>ltr</title>
<ellipse fill="white" stroke="black" cx="180.299" cy="-215.986" rx="25.9948" ry="25.9948"/>
<text text-anchor="middle" x="180.299" y="-211.786" font-family="Times,serif" font-size="14.00">LTR</text>
</g>
<!-- nsh -->
<g id="node26" class="node"><title>nsh</title>
<ellipse fill="white" stroke="black" cx="359.289" cy="-91.6133" rx="27.5976" ry="27.5976"/>
<text text-anchor="middle" x="359.289" y="-87.4133" font-family="Times,serif" font-size="14.00">NSH</text>
</g>
<!-- ltr&#45;&#45;nsh -->
<g id="edge65" class="edge"><title>ltr&#45;&#45;nsh</title>
<path fill="none" stroke="white" d="M201.889,-200.984C235.827,-177.402 301.37,-131.859 336.208,-107.651"/>
<text text-anchor="middle" x="265.548" y="-157.117" font-family="Times,serif" font-size="14.00">3</text>
</g>
<!-- stl -->
<g id="node28" class="node"><title>stl</title>
<ellipse fill="white" stroke="black" cx="206.588" cy="-58.0217" rx="25.6592" ry="25.6592"/>
<text text-anchor="middle" x="206.588" y="-53.8217" font-family="Times,serif" font-size="14.00">STL</text>
</g>
<!-- ltr&#45;&#45;stl -->
<g id="edge66" class="edge"><title>ltr&#45;&#45;stl</title>
<path fill="none" stroke="dimgray" d="M184.581,-190.255C189.47,-160.88 197.419,-113.112 202.307,-83.7419"/>
<text text-anchor="middle" x="189.944" y="-139.798" font-family="Times,serif" font-size="14.00">2</text>
</g>
<!-- ksc -->
<g id="node8" class="node"><title>ksc</title>
<ellipse fill="white" stroke="black" cx="38.4125" cy="-41.5359" rx="27.1216" ry="27.1216"/>
<text text-anchor="middle" x="38.4125" y="-37.3359" font-family="Times,serif" font-size="14.00">KSC</text>
</g>
<!-- ksc&#45;&#45;den -->
<g id="edge42" class="edge"><title>ksc&#45;&#45;den</title>
<path fill="none" stroke="black" d="M11.5443,-47.7157C-42.7247,-65.2511 -164.618,-113.155 -217.135,-137.56"/>
<text text-anchor="middle" x="-106.295" y="-95.4379" font-family="Times,serif" font-size="14.00">4</text>
</g>
<!-- ksc&#45;&#45;omh -->
<g id="edge36" class="edge"><title>ksc&#45;&#45;omh</title>
<path fill="none" stroke="dimgray" d="M32.5457,-14.458C29.9389,-8.25083 26.8387,-1.68883 23.6394,4.40846"/>
<text text-anchor="middle" x="24.5925" y="-7.82476" font-family="Times,serif" font-size="14.00">1</text>
</g>
<!-- okc -->
<g id="node24" class="node"><title>okc</title>
<ellipse fill="white" stroke="black" cx="21.7005" cy="-210.757" rx="28.5583" ry="28.5583"/>
<text text-anchor="middle" x="21.7005" y="-206.557" font-family="Times,serif" font-size="14.00">OKC</text>
</g>
<!-- ksc&#45;&#45;okc -->
<g id="edge40" class="edge"><title>ksc&#45;&#45;okc</title>
<path fill="none" stroke="dimgray" d="M30.7003,-67.8493C25.458,-98.7622 20.3743,-149.876 19.333,-181.864"/>
<text text-anchor="middle" x="21.5166" y="-127.657" font-family="Times,serif" font-size="14.00">2</text>
</g>
<!-- ksc&#45;&#45;stl -->
<g id="edge38" class="edge"><title>ksc&#45;&#45;stl</title>
<path fill="none" stroke="pink" d="M64.9338,-49.275C96.6576,-54.616 149.402,-59.7452 180.798,-60.5093"/>
<text text-anchor="middle" x="119.366" y="-57.6922" font-family="Times,serif" font-size="14.00">2</text>
</g>
<!-- ksc&#45;&#45;stl -->
<g id="edge39" class="edge"><title>ksc&#45;&#45;stl</title>
<path fill="none" stroke="blue" d="M65.9318,-39.0942C98.0888,-40.0153 150.825,-45.2261 181.772,-50.5735"/>
<text text-anchor="middle" x="120.352" y="-33.6338" font-family="Times,serif" font-size="14.00">2</text>
</g>
<!-- den&#45;&#45;ksc -->
<g id="edge43" class="edge"><title>den&#45;&#45;ksc</title>
<path fill="none" stroke="orange" d="M-214.319,-145.343C-159.338,-127.498 -37.1775,-79.4479 14.5554,-55.2985"/>
<text text-anchor="middle" x="-96.3816" y="-103.121" font-family="Times,serif" font-size="14.00">4</text>
</g>
<!-- sfe -->
<g id="node17" class="node"><title>sfe</title>
<ellipse fill="white" stroke="black" cx="-208.668" cy="-307.187" rx="25.1917" ry="25.1917"/>
<text text-anchor="middle" x="-208.668" y="-302.987" font-family="Times,serif" font-size="14.00">SFE</text>
</g>
<!-- den&#45;&#45;sfe -->
<g id="edge45" class="edge"><title>den&#45;&#45;sfe</title>
<path fill="none" stroke="dimgray" d="M-236.003,-179.556C-229.758,-208.718 -220.028,-254.146 -214.018,-282.209"/>
<text text-anchor="middle" x="-228.51" y="-233.682" font-family="Times,serif" font-size="14.00">2</text>
</g>
<!-- den&#45;&#45;okc -->
<g id="edge44" class="edge"><title>den&#45;&#45;okc</title>
<path fill="none" stroke="red" d="M-214.237,-157.972C-163.732,-169.271 -57.2539,-193.093 -6.439,-204.461"/>
<text text-anchor="middle" x="-113.838" y="-184.017" font-family="Times,serif" font-size="14.00">4</text>
</g>
<!-- pnx -->
<g id="node29" class="node"><title>pnx</title>
<ellipse fill="white" stroke="black" cx="-398.406" cy="-459.239" rx="27.5976" ry="27.5976"/>
<text text-anchor="middle" x="-398.406" y="-455.039" font-family="Times,serif" font-size="14.00">PNX</text>
</g>
<!-- den&#45;&#45;pnx -->
<g id="edge46" class="edge"><title>den&#45;&#45;pnx</title>
<path fill="none" stroke="white" d="M-254.89,-177.194C-284.394,-235.177 -356.366,-376.62 -385.673,-434.216"/>
<text text-anchor="middle" x="-323.782" y="-308.505" font-family="Times,serif" font-size="14.00">5</text>
</g>
<!-- chi -->
<g id="node10" class="node"><title>chi</title>
<ellipse fill="white" stroke="black" cx="239.524" cy="107.38" rx="25.1746" ry="25.1746"/>
<text text-anchor="middle" x="239.524" y="111.58" font-family="Times,serif" font-size="14.00">CHI</text>
</g>
<!-- chi&#45;&#45;tor -->
<g id="edge73" class="edge"><title>chi&#45;&#45;tor</title>
<path fill="none" stroke="white" d="M252.823,129.082C278.926,171.68 336.674,265.921 363.717,310.053"/>
<text text-anchor="middle" x="304.77" y="216.768" font-family="Times,serif" font-size="14.00">4</text>
</g>
<!-- chi&#45;&#45;stl -->
<g id="edge70" class="edge"><title>chi&#45;&#45;stl</title>
<path fill="none" stroke="green" d="M229.805,83.9426C221.282,53.3144 210.621,-0.141889 206.668,-31.9965"/>
<text text-anchor="middle" x="214.736" y="23.1731" font-family="Times,serif" font-size="14.00">2</text>
</g>
<!-- chi&#45;&#45;pit -->
<g id="edge71" class="edge"><title>chi&#45;&#45;pit</title>
<path fill="none" stroke="orange" d="M264.423,112.208C310.39,125.986 407.652,162.738 449.92,182.351"/>
<text text-anchor="middle" x="353.672" y="144.479" font-family="Times,serif" font-size="14.00">3</text>
</g>
<!-- bos -->
<g id="node11" class="node"><title>bos</title>
<ellipse fill="white" stroke="black" cx="674.013" cy="429.559" rx="27.1216" ry="27.1216"/>
<text text-anchor="middle" x="674.013" y="433.759" font-family="Times,serif" font-size="14.00">BOS</text>
</g>
<!-- bos&#45;&#45;mon -->
<g id="edge80" class="edge"><title>bos&#45;&#45;mon</title>
<path fill="none" stroke="dimgray" d="M654.326,448.611C633.333,464.361 600.002,485.989 576.176,499.378"/>
<text text-anchor="middle" x="611.751" y="485.195" font-family="Times,serif" font-size="14.00">2</text>
</g>
<!-- nyc -->
<g id="node23" class="node"><title>nyc</title>
<ellipse fill="white" stroke="black" cx="598.735" cy="297.626" rx="28.5583" ry="28.5583"/>
<text text-anchor="middle" x="598.735" y="301.826" font-family="Times,serif" font-size="14.00">NYC</text>
</g>
<!-- bos&#45;&#45;nyc -->
<g id="edge81" class="edge"><title>bos&#45;&#45;nyc</title>
<path fill="none" stroke="yellow" d="M656.132,408.898C641.057,386.317 620.358,350.122 608.208,325.152"/>
<text text-anchor="middle" x="628.67" y="364.225" font-family="Times,serif" font-size="14.00">2</text>
</g>
<!-- lav -->
<g id="node13" class="node"><title>lav</title>
<ellipse fill="white" stroke="black" cx="-637.117" cy="-256.669" rx="27.2842" ry="27.2842"/>
<text text-anchor="middle" x="-637.117" y="-252.469" font-family="Times,serif" font-size="14.00">LAV</text>
</g>
<!-- slc -->
<g id="node25" class="node"><title>slc</title>
<ellipse fill="white" stroke="black" cx="-477.525" cy="-78.6247" rx="26.1523" ry="26.1523"/>
<text text-anchor="middle" x="-477.525" y="-74.4247" font-family="Times,serif" font-size="14.00">SLC</text>
</g>
<!-- lav&#45;&#45;slc -->
<g id="edge18" class="edge"><title>lav&#45;&#45;slc</title>
<path fill="none" stroke="orange" d="M-618.81,-236.245C-587.861,-201.718 -525.601,-132.26 -495.132,-98.2679"/>
<text text-anchor="middle" x="-560.471" y="-170.057" font-family="Times,serif" font-size="14.00">3</text>
</g>
<!-- elp -->
<g id="node14" class="node"><title>elp</title>
<ellipse fill="white" stroke="black" cx="-191.608" cy="-457.869" rx="25.6592" ry="25.6592"/>
<text text-anchor="middle" x="-191.608" y="-453.669" font-family="Times,serif" font-size="14.00">ELP</text>
</g>
<!-- elp&#45;&#45;hst -->
<g id="edge49" class="edge"><title>elp&#45;&#45;hst</title>
<path fill="none" stroke="green" d="M-165.966,-453.737C-101.15,-443.291 68.7508,-415.909 134.486,-405.315"/>
<text text-anchor="middle" x="-19.2398" y="-432.326" font-family="Times,serif" font-size="14.00">6</text>
</g>
<!-- elp&#45;&#45;sfe -->
<g id="edge52" class="edge"><title>elp&#45;&#45;sfe</title>
<path fill="none" stroke="dimgray" d="M-194.541,-431.966C-197.694,-404.114 -202.675,-360.123 -205.802,-332.501"/>
<text text-anchor="middle" x="-203.671" y="-385.034" font-family="Times,serif" font-size="14.00">2</text>
</g>
<!-- elp&#45;&#45;okc -->
<g id="edge51" class="edge"><title>elp&#45;&#45;okc</title>
<path fill="none" stroke="yellow" d="M-174.512,-438.065C-135.165,-392.482 -38.4264,-280.412 2.70199,-232.766"/>
<text text-anchor="middle" x="-89.4052" y="-338.215" font-family="Times,serif" font-size="14.00">5</text>
</g>
<!-- elp&#45;&#45;dal -->
<g id="edge50" class="edge"><title>elp&#45;&#45;dal</title>
<path fill="none" stroke="red" d="M-167.338,-448.531C-111.339,-426.983 26.5477,-373.927 84.6839,-351.557"/>
<text text-anchor="middle" x="-44.8272" y="-402.844" font-family="Times,serif" font-size="14.00">4</text>
</g>
<!-- mon&#45;&#45;bos -->
<g id="edge79" class="edge"><title>mon&#45;&#45;bos</title>
<path fill="none" stroke="dimgray" d="M570.294,489.979C592.298,473.763 625.639,452.31 648.579,439.668"/>
<text text-anchor="middle" x="605.936" y="462.024" font-family="Times,serif" font-size="14.00">2</text>
</g>
<!-- mon&#45;&#45;ssm -->
<g id="edge77" class="edge"><title>mon&#45;&#45;ssm</title>
<path fill="none" stroke="black" d="M519.156,499.703C455.442,474.201 302.645,413.042 241.563,388.593"/>
<text text-anchor="middle" x="376.86" y="441.348" font-family="Times,serif" font-size="14.00">5</text>
</g>
<!-- mon&#45;&#45;nyc -->
<g id="edge78" class="edge"><title>mon&#45;&#45;nyc</title>
<path fill="none" stroke="blue" d="M554.951,481.01C564.805,439.74 582.366,366.186 591.982,325.91"/>
<text text-anchor="middle" x="569.967" y="400.66" font-family="Times,serif" font-size="14.00">3</text>
</g>
<!-- sfo -->
<g id="node16" class="node"><title>sfo</title>
<ellipse fill="white" stroke="black" cx="-829.442" cy="-189.455" rx="26.1609" ry="26.1609"/>
<text text-anchor="middle" x="-829.442" y="-185.255" font-family="Times,serif" font-size="14.00">SFO</text>
</g>
<!-- por -->
<g id="node21" class="node"><title>por</title>
<ellipse fill="white" stroke="black" cx="-850.197" cy="212.892" rx="27.1216" ry="27.1216"/>
<text text-anchor="middle" x="-850.197" y="217.092" font-family="Times,serif" font-size="14.00">POR</text>
</g>
<!-- sfo&#45;&#45;por -->
<g id="edge10" class="edge"><title>sfo&#45;&#45;por</title>
<path fill="none" stroke="pink" d="M-827.251,-163.184C-826.734,-90.5235 -837.193,112.591 -845.206,185.995"/>
<text text-anchor="middle" x="-839.728" y="8.60538" font-family="Times,serif" font-size="14.00">5</text>
</g>
<!-- sfo&#45;&#45;slc -->
<g id="edge11" class="edge"><title>sfo&#45;&#45;slc</title>
<path fill="none" stroke="orange" d="M-803.308,-185.089C-737.385,-168.609 -565.14,-114.366 -501.55,-90.062"/>
<text text-anchor="middle" x="-655.929" y="-140.375" font-family="Times,serif" font-size="14.00">5</text>
</g>
<!-- sfo&#45;&#45;slc -->
<g id="edge12" class="edge"><title>sfo&#45;&#45;slc</title>
<path fill="none" stroke="white" d="M-805.522,-178.059C-742.053,-153.788 -569.809,-99.5403 -503.768,-83.019"/>
<text text-anchor="middle" x="-658.145" y="-119.339" font-family="Times,serif" font-size="14.00">5</text>
</g>
<!-- lax -->
<g id="node32" class="node"><title>lax</title>
<ellipse fill="white" stroke="black" cx="-649.227" cy="-388.462" rx="28.0651" ry="28.0651"/>
<text text-anchor="middle" x="-649.227" y="-384.262" font-family="Times,serif" font-size="14.00">LAX</text>
</g>
<!-- sfo&#45;&#45;lax -->
<g id="edge13" class="edge"><title>sfo&#45;&#45;lax</title>
<path fill="none" stroke="yellow" d="M-814.955,-211.726C-783.42,-251.524 -708.993,-333.78 -671.48,-370.365"/>
<text text-anchor="middle" x="-746.717" y="-293.845" font-family="Times,serif" font-size="14.00">3</text>
</g>
<!-- sfe&#45;&#45;okc -->
<g id="edge53" class="edge"><title>sfe&#45;&#45;okc</title>
<path fill="none" stroke="blue" d="M-184.882,-297.231C-141.658,-279.137 -50.5078,-240.983 -5.13414,-221.989"/>
<text text-anchor="middle" x="-98.5082" y="-262.41" font-family="Times,serif" font-size="14.00">3</text>
</g>
<!-- atl -->
<g id="node18" class="node"><title>atl</title>
<ellipse fill="white" stroke="black" cx="434.067" cy="-95.9682" rx="26.1352" ry="26.1352"/>
<text text-anchor="middle" x="434.067" y="-91.7682" font-family="Times,serif" font-size="14.00">ATL</text>
</g>
<!-- atl&#45;&#45;ral -->
<g id="edge94" class="edge"><title>atl&#45;&#45;ral</title>
<path fill="none" stroke="dimgray" d="M453,-77.1819C471.545,-53.6758 498.887,-13.4571 514.305,12.9446"/>
<text text-anchor="middle" x="480.152" y="-34.9187" font-family="Times,serif" font-size="14.00">2</text>
</g>
<!-- atl&#45;&#45;ral -->
<g id="edge95" class="edge"><title>atl&#45;&#45;ral</title>
<path fill="none" stroke="dimgray" d="M444.536,-71.4369C459.534,-45.5238 486.816,-5.26404 505.66,18.8127"/>
<text text-anchor="middle" x="471.598" y="-29.1121" font-family="Times,serif" font-size="14.00">2</text>
</g>
<!-- mim -->
<g id="node27" class="node"><title>mim</title>
<ellipse fill="white" stroke="black" cx="735.493" cy="-345.482" rx="28.5583" ry="28.5583"/>
<text text-anchor="middle" x="735.493" y="-341.282" font-family="Times,serif" font-size="14.00">MIM</text>
</g>
<!-- atl&#45;&#45;mim -->
<g id="edge92" class="edge"><title>atl&#45;&#45;mim</title>
<path fill="none" stroke="blue" d="M454.785,-113.118C509.319,-158.26 656.517,-280.108 713.002,-326.865"/>
<text text-anchor="middle" x="580.394" y="-222.792" font-family="Times,serif" font-size="14.00">5</text>
</g>
<!-- atl&#45;&#45;nor -->
<g id="edge63" class="edge"><title>atl&#45;&#45;nor</title>
<path fill="none" stroke="orange" d="M421.014,-119.306C396.203,-174.074 344.284,-310.583 325.65,-369.895"/>
<text text-anchor="middle" x="369.832" y="-247.4" font-family="Times,serif" font-size="14.00">4</text>
</g>
<!-- atl&#45;&#45;chr -->
<g id="edge93" class="edge"><title>atl&#45;&#45;chr</title>
<path fill="none" stroke="dimgray" d="M460.653,-96.442C486.154,-96.8964 524.529,-97.5802 550.619,-98.0451"/>
<text text-anchor="middle" x="502.136" y="-100.044" font-family="Times,serif" font-size="14.00">2</text>
</g>
<!-- omh&#45;&#45;ksc -->
<g id="edge35" class="edge"><title>omh&#45;&#45;ksc</title>
<path fill="none" stroke="dimgray" d="M11.565,-0.909504C14.3959,-7.39593 17.6866,-14.1266 21.0064,-20.2055"/>
<text text-anchor="middle" x="12.7857" y="0.642482" font-family="Times,serif" font-size="14.00">1</text>
</g>
<!-- omh&#45;&#45;den -->
<g id="edge37" class="edge"><title>omh&#45;&#45;den</title>
<path fill="none" stroke="pink" d="M-20.5095,10.6924C-68.4756,-24.498 -172.8,-101.036 -219.068,-134.98"/>
<text text-anchor="middle" x="-123.289" y="-64.944" font-family="Times,serif" font-size="14.00">4</text>
</g>
<!-- omh&#45;&#45;chi -->
<g id="edge34" class="edge"><title>omh&#45;&#45;chi</title>
<path fill="none" stroke="blue" d="M33.7695,38.7885C80.6571,54.4192 171.699,84.7695 215.217,99.2771"/>
<text text-anchor="middle" x="120.993" y="66.2328" font-family="Times,serif" font-size="14.00">4</text>
</g>
<!-- omh&#45;&#45;dul -->
<g id="edge33" class="edge"><title>omh&#45;&#45;dul</title>
<path fill="none" stroke="dimgray" d="M13.6645,58.504C19.5725,89.1949 25.6785,136.924 27.5318,167.204"/>
<text text-anchor="middle" x="17.0981" y="110.054" font-family="Times,serif" font-size="14.00">2</text>
</g>
<!-- sea&#45;&#45;hel -->
<g id="edge5" class="edge"><title>sea&#45;&#45;hel</title>
<path fill="none" stroke="yellow" d="M-798.273,273.037C-719.45,243.741 -479.706,154.637 -400.506,125.201"/>
<text text-anchor="middle" x="-602.89" y="196.319" font-family="Times,serif" font-size="14.00">6</text>
</g>
<!-- sea&#45;&#45;por -->
<g id="edge6" class="edge"><title>sea&#45;&#45;por</title>
<path fill="none" stroke="dimgray" d="M-839.011,260.448C-841.856,253.991 -844.583,246.859 -846.784,240.122"/>
<text text-anchor="middle" x="-846.398" y="247.485" font-family="Times,serif" font-size="14.00">1</text>
</g>
<!-- sea&#45;&#45;cal -->
<g id="edge4" class="edge"><title>sea&#45;&#45;cal</title>
<path fill="none" stroke="dimgray" d="M-812.223,307.18C-788.218,358.865 -732.905,477.956 -708.684,530.105"/>
<text text-anchor="middle" x="-763.954" y="415.842" font-family="Times,serif" font-size="14.00">4</text>
</g>
<!-- por&#45;&#45;sfo -->
<g id="edge9" class="edge"><title>por&#45;&#45;sfo</title>
<path fill="none" stroke="green" d="M-852.396,185.367C-852.787,111.307 -842.302,-91.4597 -834.321,-163.575"/>
<text text-anchor="middle" x="-846.859" y="8.09612" font-family="Times,serif" font-size="14.00">5</text>
</g>
<!-- por&#45;&#45;sea -->
<g id="edge7" class="edge"><title>por&#45;&#45;sea</title>
<path fill="none" stroke="dimgray" d="M-834.542,235.699C-831.744,242.123 -829.076,249.163 -826.931,255.792"/>
<text text-anchor="middle" x="-834.237" y="256.945" font-family="Times,serif" font-size="14.00">1</text>
</g>
<!-- por&#45;&#45;slc -->
<g id="edge8" class="edge"><title>por&#45;&#45;slc</title>
<path fill="none" stroke="blue" d="M-828.55,195.959C-762.372,144.192 -563.312,-11.519 -498.307,-62.3678"/>
<text text-anchor="middle" x="-666.929" y="63.9954" font-family="Times,serif" font-size="14.00">6</text>
</g>
<!-- cal&#45;&#45;win -->
<g id="edge26" class="edge"><title>cal&#45;&#45;win</title>
<path fill="none" stroke="white" d="M-670.464,546.107C-587.308,517.147 -332.156,428.288 -249.258,399.418"/>
<text text-anchor="middle" x="-463.361" y="469.962" font-family="Times,serif" font-size="14.00">6</text>
</g>
<!-- nyc&#45;&#45;bos -->
<g id="edge82" class="edge"><title>nyc&#45;&#45;bos</title>
<path fill="none" stroke="red" d="M617.595,319.76C632.891,342.893 653.496,379.082 665.278,403.558"/>
<text text-anchor="middle" x="637.936" y="358.859" font-family="Times,serif" font-size="14.00">2</text>
</g>
<!-- nyc&#45;&#45;wsh -->
<g id="edge83" class="edge"><title>nyc&#45;&#45;wsh</title>
<path fill="none" stroke="black" d="M595.413,268.798C595.721,245.068 598.332,211.591 601.715,187.85"/>
<text text-anchor="middle" x="595.064" y="225.524" font-family="Times,serif" font-size="14.00">2</text>
</g>
<!-- nyc&#45;&#45;pit -->
<g id="edge85" class="edge"><title>nyc&#45;&#45;pit</title>
<path fill="none" stroke="green" d="M573.36,283.976C547.051,265.585 506.937,233.22 485.241,212.751"/>
<text text-anchor="middle" x="525.801" y="245.564" font-family="Times,serif" font-size="14.00">2</text>
</g>
<!-- okc&#45;&#45;ltr -->
<g id="edge54" class="edge"><title>okc&#45;&#45;ltr</title>
<path fill="none" stroke="dimgray" d="M50.7899,-211.716C80.3898,-212.692 125.845,-214.19 154.284,-215.128"/>
<text text-anchor="middle" x="99.0371" y="-216.222" font-family="Times,serif" font-size="14.00">2</text>
</g>
<!-- okc&#45;&#45;ksc -->
<g id="edge41" class="edge"><title>okc&#45;&#45;ksc</title>
<path fill="none" stroke="dimgray" d="M29.6644,-182.943C34.9079,-151.349 39.9302,-100.128 40.8307,-68.7746"/>
<text text-anchor="middle" x="31.7475" y="-128.659" font-family="Times,serif" font-size="14.00">2</text>
</g>
<!-- okc&#45;&#45;dal -->
<g id="edge55" class="edge"><title>okc&#45;&#45;dal</title>
<path fill="none" stroke="dimgray" d="M33.3196,-237.109C48.0316,-261.964 73.1462,-298.592 90.9804,-321.199"/>
<text text-anchor="middle" x="58.65" y="-281.954" font-family="Times,serif" font-size="14.00">2</text>
</g>
<!-- okc&#45;&#45;dal -->
<g id="edge56" class="edge"><title>okc&#45;&#45;dal</title>
<path fill="none" stroke="dimgray" d="M42.0889,-231.098C59.9642,-253.784 85.0699,-290.419 99.7227,-315.206"/>
<text text-anchor="middle" x="67.4058" y="-275.952" font-family="Times,serif" font-size="14.00">2</text>
</g>
<!-- slc&#45;&#45;hel -->
<g id="edge19" class="edge"><title>slc&#45;&#45;hel</title>
<path fill="none" stroke="pink" d="M-465.135,-55.1906C-445.552,-18.1529 -407.634,53.5653 -387.727,91.2164"/>
<text text-anchor="middle" x="-429.931" y="15.2129" font-family="Times,serif" font-size="14.00">3</text>
</g>
<!-- slc&#45;&#45;den -->
<g id="edge20" class="edge"><title>slc&#45;&#45;den</title>
<path fill="none" stroke="red" d="M-453.61,-90.6264C-409.793,-107.515 -316.901,-136.397 -270.112,-147.72"/>
<text text-anchor="middle" x="-365.361" y="-121.973" font-family="Times,serif" font-size="14.00">3</text>
</g>
<!-- slc&#45;&#45;den -->
<g id="edge21" class="edge"><title>slc&#45;&#45;den</title>
<path fill="none" stroke="yellow" d="M-451.018,-82.2789C-405.341,-93.1787 -312.428,-121.99 -267.455,-139.161"/>
<text text-anchor="middle" x="-362.737" y="-99.5198" font-family="Times,serif" font-size="14.00">3</text>
</g>
<!-- nsh&#45;&#45;ral -->
<g id="edge90" class="edge"><title>nsh&#45;&#45;ral</title>
<path fill="none" stroke="black" d="M381.369,-74.2904C413.26,-49.2707 471.865,-3.29296 503.659,21.6505"/>
<text text-anchor="middle" x="439.014" y="-29.12" font-family="Times,serif" font-size="14.00">3</text>
</g>
<!-- nsh&#45;&#45;atl -->
<g id="edge91" class="edge"><title>nsh&#45;&#45;atl</title>
<path fill="none" stroke="dimgray" d="M387.134,-93.2349C393.778,-93.6218 400.852,-94.0339 407.44,-94.4175"/>
<text text-anchor="middle" x="393.787" y="-96.6262" font-family="Times,serif" font-size="14.00">1</text>
</g>
<!-- stl&#45;&#45;chi -->
<g id="edge69" class="edge"><title>stl&#45;&#45;chi</title>
<path fill="none" stroke="white" d="M216.503,-33.879C225.038,-2.97579 235.635,50.3143 239.507,81.8644"/>
<text text-anchor="middle" x="224.505" y="21.1927" font-family="Times,serif" font-size="14.00">2</text>
</g>
<!-- stl&#45;&#45;nsh -->
<g id="edge67" class="edge"><title>stl&#45;&#45;nsh</title>
<path fill="none" stroke="dimgray" d="M232.147,-63.6442C259.825,-69.733 303.802,-79.407 332.101,-85.6323"/>
<text text-anchor="middle" x="278.624" y="-77.4382" font-family="Times,serif" font-size="14.00">2</text>
</g>
<!-- stl&#45;&#45;pit -->
<g id="edge68" class="edge"><title>stl&#45;&#45;pit</title>
<path fill="none" stroke="green" d="M225.547,-39.865C274.778,7.28237 406.111,133.057 453.153,178.108"/>
<text text-anchor="middle" x="335.85" y="66.3214" font-family="Times,serif" font-size="14.00">5</text>
</g>
<!-- pnx&#45;&#45;elp -->
<g id="edge48" class="edge"><title>pnx&#45;&#45;elp</title>
<path fill="none" stroke="dimgray" d="M-370.516,-459.054C-330.386,-458.788 -256.89,-458.302 -217.753,-458.043"/>
<text text-anchor="middle" x="-297.634" y="-461.348" font-family="Times,serif" font-size="14.00">3</text>
</g>
<!-- pnx&#45;&#45;sfe -->
<g id="edge47" class="edge"><title>pnx&#45;&#45;sfe</title>
<path fill="none" stroke="dimgray" d="M-376.64,-441.797C-339.457,-411.998 -264.255,-351.733 -228.464,-323.051"/>
<text text-anchor="middle" x="-306.052" y="-385.224" font-family="Times,serif" font-size="14.00">3</text>
</g>
<!-- dal&#45;&#45;hst -->
<g id="edge58" class="edge"><title>dal&#45;&#45;hst</title>
<path fill="none" stroke="dimgray" d="M123.918,-366.72C128.558,-372.849 133.901,-379.228 139.082,-384.819"/>
<text text-anchor="middle" x="128" y="-378.57" font-family="Times,serif" font-size="14.00">1</text>
</g>
<!-- dal&#45;&#45;ltr -->
<g id="edge57" class="edge"><title>dal&#45;&#45;ltr</title>
<path fill="none" stroke="dimgray" d="M125.03,-316.28C137.473,-293.701 155.61,-260.789 167.672,-238.899"/>
<text text-anchor="middle" x="142.851" y="-280.39" font-family="Times,serif" font-size="14.00">2</text>
</g>
<!-- wsh&#45;&#45;nyc -->
<g id="edge84" class="edge"><title>wsh&#45;&#45;nyc</title>
<path fill="none" stroke="orange" d="M612.939,188.826C612.567,212.791 609.92,246.195 606.523,269.65"/>
<text text-anchor="middle" x="606.231" y="226.438" font-family="Times,serif" font-size="14.00">2</text>
</g>
<!-- lax&#45;&#45;lav -->
<g id="edge15" class="edge"><title>lax&#45;&#45;lav</title>
<path fill="none" stroke="dimgray" d="M-646.629,-360.189C-644.558,-337.65 -641.675,-306.279 -639.628,-283.993"/>
<text text-anchor="middle" x="-646.628" y="-324.891" font-family="Times,serif" font-size="14.00">2</text>
</g>
<!-- lax&#45;&#45;elp -->
<g id="edge17" class="edge"><title>lax&#45;&#45;elp</title>
<path fill="none" stroke="black" d="M-620.946,-392.751C-538.128,-405.312 -296.974,-441.888 -217.411,-453.956"/>
<text text-anchor="middle" x="-422.678" y="-412.153" font-family="Times,serif" font-size="14.00">6</text>
</g>
<!-- lax&#45;&#45;sfo -->
<g id="edge14" class="edge"><title>lax&#45;&#45;sfo</title>
<path fill="none" stroke="pink" d="M-664.956,-364.628C-697.606,-323.723 -772.171,-241.445 -808.693,-206.091"/>
<text text-anchor="middle" x="-740.325" y="-274.16" font-family="Times,serif" font-size="14.00">3</text>
</g>
<!-- lax&#45;&#45;pnx -->
<g id="edge16" class="edge"><title>lax&#45;&#45;pnx</title>
<path fill="none" stroke="dimgray" d="M-621.907,-396.171C-573.533,-409.821 -473.39,-438.08 -425.312,-451.646"/>
<text text-anchor="middle" x="-527.11" y="-426.709" font-family="Times,serif" font-size="14.00">3</text>
</g>
<!-- nor&#45;&#45;ltr -->
<g id="edge64" class="edge"><title>nor&#45;&#45;ltr</title>
<path fill="none" stroke="green" d="M301.652,-375.058C274.413,-339.352 222.456,-271.246 196.252,-236.898"/>
<text text-anchor="middle" x="245.452" y="-308.778" font-family="Times,serif" font-size="14.00">3</text>
</g>
<!-- nor&#45;&#45;atl -->
<g id="edge62" class="edge"><title>nor&#45;&#45;atl</title>
<path fill="none" stroke="yellow" d="M333.223,-372.749C358.698,-315.984 410.571,-179.34 428.36,-121.982"/>
<text text-anchor="middle" x="377.291" y="-250.166" font-family="Times,serif" font-size="14.00">4</text>
</g>
<!-- nor&#45;&#45;mim -->
<g id="edge61" class="edge"><title>nor&#45;&#45;mim</title>
<path fill="none" stroke="red" d="M347.861,-394.508C423.902,-384.89 630.413,-358.772 706.682,-349.126"/>
<text text-anchor="middle" x="523.772" y="-374.617" font-family="Times,serif" font-size="14.00">6</text>
</g>
<!-- pit&#45;&#45;ral -->
<g id="edge88" class="edge"><title>pit&#45;&#45;ral</title>
<path fill="none" stroke="dimgray" d="M478.143,172.15C488.187,143.914 505.471,95.3245 516.168,65.256"/>
<text text-anchor="middle" x="493.655" y="115.903" font-family="Times,serif" font-size="14.00">2</text>
</g>
<!-- pit&#45;&#45;chi -->
<g id="edge72" class="edge"><title>pit&#45;&#45;chi</title>
<path fill="none" stroke="black" d="M447.045,190.133C402.43,176.955 305.227,140.319 261.537,120.269"/>
<text text-anchor="middle" x="350.791" y="166.401" font-family="Times,serif" font-size="14.00">3</text>
</g>
<!-- pit&#45;&#45;nyc -->
<g id="edge86" class="edge"><title>pit&#45;&#45;nyc</title>
<path fill="none" stroke="white" d="M491.116,205.014C515.648,221.646 555.807,253.703 579.567,275.474"/>
<text text-anchor="middle" x="538.841" y="237.444" font-family="Times,serif" font-size="14.00">2</text>
</g>
<!-- pit&#45;&#45;nsh -->
<g id="edge89" class="edge"><title>pit&#45;&#45;nsh</title>
<path fill="none" stroke="yellow" d="M461.692,172.473C441.552,120.535 391.077,-9.63547 369.419,-65.49"/>
<text text-anchor="middle" x="412.055" y="50.6917" font-family="Times,serif" font-size="14.00">4</text>
</g>
<!-- pit&#45;&#45;wsh -->
<g id="edge87" class="edge"><title>pit&#45;&#45;wsh</title>
<path fill="none" stroke="dimgray" d="M492.922,188.668C516.842,182.584 554.581,172.985 580.636,166.357"/>
<text text-anchor="middle" x="533.279" y="174.713" font-family="Times,serif" font-size="14.00">2</text>
</g>
<!-- dul&#45;&#45;tor -->
<g id="edge30" class="edge"><title>dul&#45;&#45;tor</title>
<path fill="none" stroke="pink" d="M52.4467,205.975C118.046,231.697 287.484,298.137 352.391,323.589"/>
<text text-anchor="middle" x="198.919" y="261.982" font-family="Times,serif" font-size="14.00">6</text>
</g>
<!-- dul&#45;&#45;chi -->
<g id="edge31" class="edge"><title>dul&#45;&#45;chi</title>
<path fill="none" stroke="red" d="M52.1569,184.776C94.1459,167.432 175.886,133.667 216.072,117.068"/>
<text text-anchor="middle" x="130.615" y="148.122" font-family="Times,serif" font-size="14.00">3</text>
</g>
<!-- dul&#45;&#45;ssm -->
<g id="edge29" class="edge"><title>dul&#45;&#45;ssm</title>
<path fill="none" stroke="dimgray" d="M46.6354,215.487C83.3216,250.805 159.37,324.017 195.624,358.919"/>
<text text-anchor="middle" x="117.63" y="284.403" font-family="Times,serif" font-size="14.00">3</text>
</g>
<!-- dul&#45;&#45;omh -->
<g id="edge32" class="edge"><title>dul&#45;&#45;omh</title>
<path fill="none" stroke="dimgray" d="M17.2241,168.377C11.3429,138.63 5.15406,91.0681 3.07644,59.9348"/>
<text text-anchor="middle" x="6.65029" y="111.356" font-family="Times,serif" font-size="14.00">2</text>
</g>
<!-- chr&#45;&#45;mim -->
<g id="edge99" class="edge"><title>chr&#45;&#45;mim</title>
<path fill="none" stroke="pink" d="M594.307,-122.678C624.144,-169.764 689.84,-273.437 719.911,-320.892"/>
<text text-anchor="middle" x="653.609" y="-224.585" font-family="Times,serif" font-size="14.00">4</text>
</g>
</g>
</svg>
