<?xml version="1.0" encoding="UTF-8" standalone="no"?>
<!DOCTYPE svg PUBLIC "-//W3C//DTD SVG 1.1//EN"
 "http://www.w3.org/Graphics/SVG/1.1/DTD/svg11.dtd">
<!-- Generated by graphviz version 2.38.0 (20140413.2041)
 -->
<!-- Title: USA Pages: 1 -->
<svg width="1808pt" height="1189pt"
 viewBox="7.20 7.20 1800.48 1182.24" xmlns="http://www.w3.org/2000/svg" xmlns:xlink="http://www.w3.org/1999/xlink">
<g id="graph0" class="graph" transform="scale(1 1) rotate(0) translate(983.131 634.145)">
<title>USA</title>
<polygon fill="darkgoldenrod" stroke="none" points="-975.931,548.095 -975.931,-626.945 817.344,-626.945 817.344,548.095 -975.931,548.095"/>
<!-- lav -->
<g id="node1" class="node"><title>lav</title>
<g id="a_node1"><a xlink:title="Las Vegas">
<ellipse fill="white" stroke="black" cx="-610.364" cy="314.728" rx="18" ry="18"/>
</a>
</g>
<text text-anchor="middle" x="-656.815" y="293.928" font-family="Times,serif" font-size="14.00">Las Vegas</text>
</g>
<!-- lax -->
<g id="node2" class="node"><title>lax</title>
<g id="a_node2"><a xlink:title="Los Angeles">
<ellipse fill="white" stroke="black" cx="-609.896" cy="447.291" rx="18" ry="18"/>
</a>
</g>
<text text-anchor="middle" x="-662.701" y="426.491" font-family="Times,serif" font-size="14.00">Los Angeles</text>
</g>
<!-- lav&#45;&#45;lax -->
<g id="edge1" class="edge"><title>lav&#45;&#45;lax</title>
<path fill="none" stroke="dimgray" d="M-610.3,332.882C-610.211,358.126 -610.05,403.578 -609.96,428.931"/>
<text text-anchor="middle" x="-613.63" y="378.107" font-family="Times,serif" font-size="14.00">2</text>
</g>
<!-- slc -->
<g id="node3" class="node"><title>slc</title>
<g id="a_node3"><a xlink:title="Salt Lake City">
<ellipse fill="white" stroke="black" cx="-468.413" cy="122.053" rx="18" ry="18"/>
</a>
</g>
<text text-anchor="middle" x="-526.851" y="101.253" font-family="Times,serif" font-size="14.00">Salt Lake City</text>
</g>
<!-- lav&#45;&#45;slc -->
<g id="edge2" class="edge"><title>lav&#45;&#45;slc</title>
<path fill="none" stroke="orange" d="M-599.461,299.929C-572.973,263.976 -505.484,172.37 -479.159,136.638"/>
<text text-anchor="middle" x="-542.81" y="215.484" font-family="Times,serif" font-size="14.00">3</text>
</g>
<!-- pnx -->
<g id="node16" class="node"><title>pnx</title>
<g id="a_node16"><a xlink:title="Phoenix">
<ellipse fill="white" stroke="black" cx="-353.805" cy="494.095" rx="18" ry="18"/>
</a>
</g>
<text text-anchor="middle" x="-394.75" y="473.295" font-family="Times,serif" font-size="14.00">Phoenix</text>
</g>
<!-- lax&#45;&#45;pnx -->
<g id="edge50" class="edge"><title>lax&#45;&#45;pnx</title>
<path fill="none" stroke="dimgray" d="M-591.888,450.583C-544.867,459.176 -418.791,482.218 -371.793,490.807"/>
<text text-anchor="middle" x="-485.34" y="467.895" font-family="Times,serif" font-size="14.00">3</text>
</g>
<!-- elp -->
<g id="node31" class="node"><title>elp</title>
<g id="a_node31"><a xlink:title="El Paso">
<ellipse fill="white" stroke="black" cx="-148.473" cy="472.739" rx="18" ry="18"/>
</a>
</g>
<text text-anchor="middle" x="-187.668" y="451.939" font-family="Times,serif" font-size="14.00">El Paso</text>
</g>
<!-- lax&#45;&#45;elp -->
<g id="edge49" class="edge"><title>lax&#45;&#45;elp</title>
<path fill="none" stroke="black" d="M-591.807,448.289C-518.077,452.355 -240.646,467.656 -166.686,471.734"/>
<text text-anchor="middle" x="-382.747" y="457.212" font-family="Times,serif" font-size="14.00">6</text>
</g>
<!-- sfo -->
<g id="node32" class="node"><title>sfo</title>
<g id="a_node32"><a xlink:title="San Francisco">
<ellipse fill="white" stroke="black" cx="-808.249" cy="266.994" rx="18" ry="18"/>
</a>
</g>
<text text-anchor="middle" x="-865.713" y="246.194" font-family="Times,serif" font-size="14.00">San Francisco</text>
</g>
<!-- lax&#45;&#45;sfo -->
<g id="edge51" class="edge"><title>lax&#45;&#45;sfo</title>
<path fill="none" stroke="yellow" d="M-625.637,437.842C-664.602,408.111 -764.166,317.608 -797.399,281.707"/>
<text text-anchor="middle" x="-715.018" y="356.975" font-family="Times,serif" font-size="14.00">3</text>
</g>
<!-- lax&#45;&#45;sfo -->
<g id="edge52" class="edge"><title>lax&#45;&#45;sfo</title>
<path fill="none" stroke="pink" d="M-620.8,432.521C-654.104,396.562 -753.671,306.062 -792.571,276.395"/>
<text text-anchor="middle" x="-703.185" y="351.658" font-family="Times,serif" font-size="14.00">3</text>
</g>
<!-- omh -->
<g id="node4" class="node"><title>omh</title>
<g id="a_node4"><a xlink:title="Omaha">
<ellipse fill="white" stroke="black" cx="1.60192" cy="-30.6266" rx="18" ry="18"/>
</a>
</g>
<text text-anchor="middle" x="-36.6119" y="-51.4266" font-family="Times,serif" font-size="14.00">Omaha</text>
</g>
<!-- den -->
<g id="node5" class="node"><title>den</title>
<g id="a_node5"><a xlink:title="Denver">
<ellipse fill="white" stroke="black" cx="-227.105" cy="172.506" rx="18" ry="18"/>
</a>
</g>
<text text-anchor="middle" x="-265.705" y="151.706" font-family="Times,serif" font-size="14.00">Denver</text>
</g>
<!-- omh&#45;&#45;den -->
<g id="edge3" class="edge"><title>omh&#45;&#45;den</title>
<path fill="none" stroke="pink" d="M-12.0198,-18.5281C-52.6975,17.6009 -172.97,124.424 -213.555,160.47"/>
<text text-anchor="middle" x="-116.287" y="68.1712" font-family="Times,serif" font-size="14.00">4</text>
</g>
<!-- hel -->
<g id="node6" class="node"><title>hel</title>
<g id="a_node6"><a xlink:title="Helena">
<ellipse fill="white" stroke="black" cx="-384.234" cy="-81.2435" rx="18" ry="18"/>
</a>
</g>
<text text-anchor="middle" x="-422.054" y="-102.043" font-family="Times,serif" font-size="14.00">Helena</text>
</g>
<!-- omh&#45;&#45;hel -->
<g id="edge4" class="edge"><title>omh&#45;&#45;hel</title>
<path fill="none" stroke="red" d="M-16.4902,-33.0001C-81.2994,-41.5023 -301.434,-70.3812 -366.181,-78.8751"/>
<text text-anchor="middle" x="-194.835" y="-58.7376" font-family="Times,serif" font-size="14.00">5</text>
</g>
<!-- dul -->
<g id="node7" class="node"><title>dul</title>
<g id="a_node7"><a xlink:title="Duluth">
<ellipse fill="white" stroke="black" cx="7.96772" cy="-198.447" rx="18" ry="18"/>
</a>
</g>
<text text-anchor="middle" x="-29.4771" y="-219.247" font-family="Times,serif" font-size="14.00">Duluth</text>
</g>
<!-- omh&#45;&#45;dul -->
<g id="edge5" class="edge"><title>omh&#45;&#45;dul</title>
<path fill="none" stroke="dimgray" d="M-2.06469,-48.4337C-4.054,-80.7868 -1.47338,-148.833 2.96055,-180.954"/>
<text text-anchor="middle" x="-3.05207" y="-117.494" font-family="Times,serif" font-size="14.00">2</text>
</g>
<!-- omh&#45;&#45;dul -->
<g id="edge6" class="edge"><title>omh&#45;&#45;dul</title>
<path fill="none" stroke="dimgray" d="M6.60697,-48.1047C11.0415,-80.2142 13.6231,-148.26 11.6353,-180.625"/>
<text text-anchor="middle" x="5.62113" y="-117.165" font-family="Times,serif" font-size="14.00">2</text>
</g>
<!-- chi -->
<g id="node8" class="node"><title>chi</title>
<g id="a_node8"><a xlink:title="Chicago">
<ellipse fill="white" stroke="black" cx="228.671" cy="-129.87" rx="18" ry="18"/>
</a>
</g>
<text text-anchor="middle" x="187.343" y="-150.67" font-family="Times,serif" font-size="14.00">Chicago</text>
</g>
<!-- omh&#45;&#45;chi -->
<g id="edge7" class="edge"><title>omh&#45;&#45;chi</title>
<path fill="none" stroke="blue" d="M18.2988,-37.9242C60.2907,-56.2772 169.931,-104.197 211.949,-122.561"/>
<text text-anchor="middle" x="111.624" y="-83.0427" font-family="Times,serif" font-size="14.00">4</text>
</g>
<!-- ksc -->
<g id="node9" class="node"><title>ksc</title>
<g id="a_node9"><a xlink:title="Kansas City">
<ellipse fill="white" stroke="black" cx="41.7651" cy="36.5908" rx="18" ry="18"/>
</a>
</g>
<text text-anchor="middle" x="-10.2608" y="51.7908" font-family="Times,serif" font-size="14.00">Kansas City</text>
</g>
<!-- omh&#45;&#45;ksc -->
<g id="edge8" class="edge"><title>omh&#45;&#45;ksc</title>
<path fill="none" stroke="dimgray" d="M15.4257,-18.6428C23.2618,-8.20905 32.3159,6.9474 37.7823,18.7835"/>
<text text-anchor="middle" x="23.104" y="-2.72969" font-family="Times,serif" font-size="14.00">1</text>
</g>
<!-- omh&#45;&#45;ksc -->
<g id="edge9" class="edge"><title>omh&#45;&#45;ksc</title>
<path fill="none" stroke="dimgray" d="M5.60516,-12.775C11.0805,-0.930614 20.1376,14.2241 27.9707,24.6461"/>
<text text-anchor="middle" x="13.2879" y="3.13555" font-family="Times,serif" font-size="14.00">1</text>
</g>
<!-- den&#45;&#45;slc -->
<g id="edge21" class="edge"><title>den&#45;&#45;slc</title>
<path fill="none" stroke="red" d="M-245.217,172.502C-290.463,167.187 -407.884,142.642 -451.653,129.355"/>
<text text-anchor="middle" x="-351.935" y="148.129" font-family="Times,serif" font-size="14.00">3</text>
</g>
<!-- den&#45;&#45;slc -->
<g id="edge22" class="edge"><title>den&#45;&#45;slc</title>
<path fill="none" stroke="yellow" d="M-243.702,165.253C-287.286,151.994 -404.705,127.439 -450.131,122.076"/>
<text text-anchor="middle" x="-343.416" y="140.864" font-family="Times,serif" font-size="14.00">3</text>
</g>
<!-- den&#45;&#45;hel -->
<g id="edge15" class="edge"><title>den&#45;&#45;hel</title>
<path fill="none" stroke="green" d="M-236.698,157.014C-264.749,111.714 -346.421,-20.1797 -374.567,-65.6326"/>
<text text-anchor="middle" x="-309.132" y="42.8909" font-family="Times,serif" font-size="14.00">4</text>
</g>
<!-- den&#45;&#45;ksc -->
<g id="edge16" class="edge"><title>den&#45;&#45;ksc</title>
<path fill="none" stroke="black" d="M-212.631,161.365C-166.818,133.218 -25.4233,61.7449 24.299,41.6046"/>
<text text-anchor="middle" x="-97.666" y="98.6846" font-family="Times,serif" font-size="14.00">4</text>
</g>
<!-- den&#45;&#45;ksc -->
<g id="edge17" class="edge"><title>den&#45;&#45;ksc</title>
<path fill="none" stroke="orange" d="M-209.552,167.456C-159.722,147.256 -18.3293,75.7785 27.3713,47.6823"/>
<text text-anchor="middle" x="-94.5901" y="118.769" font-family="Times,serif" font-size="14.00">4</text>
</g>
<!-- den&#45;&#45;pnx -->
<g id="edge18" class="edge"><title>den&#45;&#45;pnx</title>
<path fill="none" stroke="white" d="M-233.739,189.343C-255.582,244.785 -325.115,421.273 -347.084,477.036"/>
<text text-anchor="middle" x="-293.911" y="330.389" font-family="Times,serif" font-size="14.00">5</text>
</g>
<!-- okc -->
<g id="node17" class="node"><title>okc</title>
<g id="a_node17"><a xlink:title="Oklahoma City">
<ellipse fill="white" stroke="black" cx="40.6524" cy="206.637" rx="18" ry="18"/>
</a>
</g>
<text text-anchor="middle" x="-20.3149" y="185.837" font-family="Times,serif" font-size="14.00">Oklahoma City</text>
</g>
<!-- den&#45;&#45;okc -->
<g id="edge19" class="edge"><title>den&#45;&#45;okc</title>
<path fill="none" stroke="red" d="M-209.121,174.798C-160.343,181.016 -25.9398,198.148 22.7466,204.354"/>
<text text-anchor="middle" x="-96.6872" y="186.776" font-family="Times,serif" font-size="14.00">4</text>
</g>
<!-- sfe -->
<g id="node18" class="node"><title>sfe</title>
<g id="a_node18"><a xlink:title="Santa Fe">
<ellipse fill="white" stroke="black" cx="-179.647" cy="324.234" rx="18" ry="18"/>
</a>
</g>
<text text-anchor="middle" x="-221.949" y="303.434" font-family="Times,serif" font-size="14.00">Santa Fe</text>
</g>
<!-- den&#45;&#45;sfe -->
<g id="edge20" class="edge"><title>den&#45;&#45;sfe</title>
<path fill="none" stroke="dimgray" d="M-221.661,189.911C-212.506,219.179 -194.139,277.901 -185.027,307.032"/>
<text text-anchor="middle" x="-206.844" y="245.671" font-family="Times,serif" font-size="14.00">2</text>
</g>
<!-- hel&#45;&#45;slc -->
<g id="edge29" class="edge"><title>hel&#45;&#45;slc</title>
<path fill="none" stroke="pink" d="M-391.122,-64.6069C-406.908,-26.4852 -445.553,66.8435 -461.429,105.186"/>
<text text-anchor="middle" x="-429.776" y="17.4896" font-family="Times,serif" font-size="14.00">3</text>
</g>
<!-- hel&#45;&#45;dul -->
<g id="edge26" class="edge"><title>hel&#45;&#45;dul</title>
<path fill="none" stroke="orange" d="M-366.875,-86.4308C-302.091,-105.791 -74.8265,-173.705 -9.63527,-193.187"/>
<text text-anchor="middle" x="-191.755" y="-142.609" font-family="Times,serif" font-size="14.00">6</text>
</g>
<!-- win -->
<g id="node22" class="node"><title>win</title>
<g id="a_node22"><a xlink:title="Winnipeg">
<ellipse fill="white" stroke="black" cx="-258.113" cy="-368.821" rx="18" ry="18"/>
</a>
</g>
<text text-anchor="middle" x="-303.44" y="-389.621" font-family="Times,serif" font-size="14.00">Winnipeg</text>
</g>
<!-- hel&#45;&#45;win -->
<g id="edge27" class="edge"><title>hel&#45;&#45;win</title>
<path fill="none" stroke="blue" d="M-376.908,-97.9479C-354.617,-148.775 -287.777,-301.182 -265.46,-352.07"/>
<text text-anchor="middle" x="-324.684" y="-227.809" font-family="Times,serif" font-size="14.00">4</text>
</g>
<!-- sea -->
<g id="node23" class="node"><title>sea</title>
<g id="a_node23"><a xlink:title="Seattle">
<ellipse fill="white" stroke="black" cx="-850.385" cy="-203.548" rx="18" ry="18"/>
</a>
</g>
<text text-anchor="middle" x="-887.434" y="-224.348" font-family="Times,serif" font-size="14.00">Seattle</text>
</g>
<!-- hel&#45;&#45;sea -->
<g id="edge28" class="edge"><title>hel&#45;&#45;sea</title>
<path fill="none" stroke="yellow" d="M-401.657,-85.8148C-475.043,-105.069 -758.6,-179.467 -832.625,-198.889"/>
<text text-anchor="middle" x="-620.641" y="-145.152" font-family="Times,serif" font-size="14.00">6</text>
</g>
<!-- dul&#45;&#45;chi -->
<g id="edge31" class="edge"><title>dul&#45;&#45;chi</title>
<path fill="none" stroke="red" d="M25.2859,-193.066C66.543,-180.246 170.257,-148.02 211.433,-135.226"/>
<text text-anchor="middle" x="114.859" y="-166.946" font-family="Times,serif" font-size="14.00">3</text>
</g>
<!-- dul&#45;&#45;win -->
<g id="edge32" class="edge"><title>dul&#45;&#45;win</title>
<path fill="none" stroke="black" d="M-7.48803,-208.344C-54.6267,-238.527 -196.196,-329.175 -242.947,-359.11"/>
<text text-anchor="middle" x="-128.717" y="-286.527" font-family="Times,serif" font-size="14.00">4</text>
</g>
<!-- ssm -->
<g id="node24" class="node"><title>ssm</title>
<g id="a_node24"><a xlink:title="Sault St Marie">
<ellipse fill="white" stroke="black" cx="180.779" cy="-397.255" rx="18" ry="18"/>
</a>
</g>
<text text-anchor="middle" x="122.338" y="-418.055" font-family="Times,serif" font-size="14.00">Sault St Marie</text>
</g>
<!-- dul&#45;&#45;ssm -->
<g id="edge30" class="edge"><title>dul&#45;&#45;ssm</title>
<path fill="none" stroke="dimgray" d="M19.8458,-212.112C51.4158,-248.431 137.153,-347.066 168.818,-383.495"/>
<text text-anchor="middle" x="90.8321" y="-300.603" font-family="Times,serif" font-size="14.00">3</text>
</g>
<!-- tor -->
<g id="node25" class="node"><title>tor</title>
<g id="a_node25"><a xlink:title="Toronto">
<ellipse fill="white" stroke="black" cx="346.756" cy="-367.502" rx="18" ry="18"/>
</a>
</g>
<text text-anchor="middle" x="306.693" y="-388.302" font-family="Times,serif" font-size="14.00">Toronto</text>
</g>
<!-- dul&#45;&#45;tor -->
<g id="edge33" class="edge"><title>dul&#45;&#45;tor</title>
<path fill="none" stroke="pink" d="M24.3082,-206.601C81.6727,-235.226 273.472,-330.934 330.58,-359.43"/>
<text text-anchor="middle" x="173.944" y="-285.816" font-family="Times,serif" font-size="14.00">6</text>
</g>
<!-- stl -->
<g id="node11" class="node"><title>stl</title>
<g id="a_node11"><a xlink:title="Saint Louis">
<ellipse fill="white" stroke="black" cx="210.745" cy="37.8234" rx="18" ry="18"/>
</a>
</g>
<text text-anchor="middle" x="160.66" y="17.0234" font-family="Times,serif" font-size="14.00">Saint Louis</text>
</g>
<!-- chi&#45;&#45;stl -->
<g id="edge41" class="edge"><title>chi&#45;&#45;stl</title>
<path fill="none" stroke="white" d="M231.1,-111.779C230.853,-79.1458 223.548,-10.8812 216.895,20.8892"/>
<text text-anchor="middle" x="220.498" y="-48.245" font-family="Times,serif" font-size="14.00">2</text>
</g>
<!-- chi&#45;&#45;stl -->
<g id="edge42" class="edge"><title>chi&#45;&#45;stl</title>
<path fill="none" stroke="green" d="M222.472,-112.702C215.816,-80.7532 208.526,-12.4869 208.313,19.9718"/>
<text text-anchor="middle" x="211.892" y="-49.1649" font-family="Times,serif" font-size="14.00">2</text>
</g>
<!-- pit -->
<g id="node15" class="node"><title>pit</title>
<g id="a_node15"><a xlink:title="Pittsburgh">
<ellipse fill="white" stroke="black" cx="450.802" cy="-236.907" rx="18" ry="18"/>
</a>
</g>
<text text-anchor="middle" x="404.142" y="-257.707" font-family="Times,serif" font-size="14.00">Pittsburgh</text>
</g>
<!-- chi&#45;&#45;pit -->
<g id="edge44" class="edge"><title>chi&#45;&#45;pit</title>
<path fill="none" stroke="orange" d="M243.038,-140.903C282.162,-164.26 390.249,-216.349 433.059,-232.485"/>
<text text-anchor="middle" x="334.549" y="-189.494" font-family="Times,serif" font-size="14.00">3</text>
</g>
<!-- chi&#45;&#45;pit -->
<g id="edge45" class="edge"><title>chi&#45;&#45;pit</title>
<path fill="none" stroke="black" d="M246.253,-134.232C288.9,-150.277 396.991,-202.357 436.287,-225.786"/>
<text text-anchor="middle" x="337.77" y="-168.809" font-family="Times,serif" font-size="14.00">3</text>
</g>
<!-- chi&#45;&#45;tor -->
<g id="edge43" class="edge"><title>chi&#45;&#45;tor</title>
<path fill="none" stroke="white" d="M236.787,-146.203C258.412,-189.72 317.229,-308.082 338.739,-351.369"/>
<text text-anchor="middle" x="284.263" y="-251.586" font-family="Times,serif" font-size="14.00">4</text>
</g>
<!-- ksc&#45;&#45;stl -->
<g id="edge69" class="edge"><title>ksc&#45;&#45;stl</title>
<path fill="none" stroke="pink" d="M59.5611,32.3816C92.1233,29.3964 160.913,29.9061 193.25,33.3805"/>
<text text-anchor="middle" x="122.905" y="30.081" font-family="Times,serif" font-size="14.00">2</text>
</g>
<!-- ksc&#45;&#45;stl -->
<g id="edge70" class="edge"><title>ksc&#45;&#45;stl</title>
<path fill="none" stroke="blue" d="M59.4978,41.0592C92.013,44.5191 160.802,45.013 193.187,42.0107"/>
<text text-anchor="middle" x="122.842" y="52.735" font-family="Times,serif" font-size="14.00">2</text>
</g>
<!-- ksc&#45;&#45;okc -->
<g id="edge67" class="edge"><title>ksc&#45;&#45;okc</title>
<path fill="none" stroke="dimgray" d="M45.9574,54.1764C48.9958,86.7825 48.5464,156.265 45.0914,188.948"/>
<text text-anchor="middle" x="42.0244" y="118.762" font-family="Times,serif" font-size="14.00">2</text>
</g>
<!-- ksc&#45;&#45;okc -->
<g id="edge68" class="edge"><title>ksc&#45;&#45;okc</title>
<path fill="none" stroke="dimgray" d="M37.343,54.12C33.8782,86.6835 33.4183,156.166 36.4452,188.892"/>
<text text-anchor="middle" x="33.3941" y="118.706" font-family="Times,serif" font-size="14.00">2</text>
</g>
<!-- nsh -->
<g id="node10" class="node"><title>nsh</title>
<g id="a_node10"><a xlink:title="Nashville">
<ellipse fill="white" stroke="black" cx="365.85" cy="57.5515" rx="18" ry="18"/>
</a>
</g>
<text text-anchor="middle" x="321.022" y="36.7515" font-family="Times,serif" font-size="14.00">Nashville</text>
</g>
<!-- nsh&#45;&#45;stl -->
<g id="edge10" class="edge"><title>nsh&#45;&#45;stl</title>
<path fill="none" stroke="dimgray" d="M347.754,55.2498C317.867,51.4485 258.537,43.9022 228.726,40.1105"/>
<text text-anchor="middle" x="284.74" y="44.8801" font-family="Times,serif" font-size="14.00">2</text>
</g>
<!-- ltr -->
<g id="node12" class="node"><title>ltr</title>
<g id="a_node12"><a xlink:title="Little Rock">
<ellipse fill="white" stroke="black" cx="199.02" cy="197.573" rx="18" ry="18"/>
</a>
</g>
<text text-anchor="middle" x="149.332" y="176.773" font-family="Times,serif" font-size="14.00">Little Rock</text>
</g>
<!-- nsh&#45;&#45;ltr -->
<g id="edge11" class="edge"><title>nsh&#45;&#45;ltr</title>
<path fill="none" stroke="white" d="M351.913,69.2488C320.588,95.5399 244.89,159.074 213.271,185.612"/>
<text text-anchor="middle" x="279.092" y="124.63" font-family="Times,serif" font-size="14.00">3</text>
</g>
<!-- atl -->
<g id="node13" class="node"><title>atl</title>
<g id="a_node13"><a xlink:title="Atlanta">
<ellipse fill="white" stroke="black" cx="440.754" cy="55.6572" rx="18" ry="18"/>
</a>
</g>
<text text-anchor="middle" x="402.151" y="34.8572" font-family="Times,serif" font-size="14.00">Atlanta</text>
</g>
<!-- nsh&#45;&#45;atl -->
<g id="edge12" class="edge"><title>nsh&#45;&#45;atl</title>
<path fill="none" stroke="dimgray" d="M383.982,57.093C395.672,56.7973 410.821,56.4142 422.529,56.1181"/>
<text text-anchor="middle" x="399.756" y="53.8055" font-family="Times,serif" font-size="14.00">1</text>
</g>
<!-- ral -->
<g id="node14" class="node"><title>ral</title>
<g id="a_node14"><a xlink:title="Raleigh">
<ellipse fill="white" stroke="black" cx="519.904" cy="-86.7139" rx="18" ry="18"/>
</a>
</g>
<text text-anchor="middle" x="480.132" y="-107.514" font-family="Times,serif" font-size="14.00">Raleigh</text>
</g>
<!-- nsh&#45;&#45;ral -->
<g id="edge13" class="edge"><title>nsh&#45;&#45;ral</title>
<path fill="none" stroke="black" d="M379.252,45.0013C408.387,17.7174 477.217,-46.7392 506.424,-74.0899"/>
<text text-anchor="middle" x="439.338" y="-17.3443" font-family="Times,serif" font-size="14.00">3</text>
</g>
<!-- nsh&#45;&#45;pit -->
<g id="edge14" class="edge"><title>nsh&#45;&#45;pit</title>
<path fill="none" stroke="yellow" d="M370.909,40.0136C386.019,-12.3586 430.694,-167.209 445.769,-219.461"/>
<text text-anchor="middle" x="404.839" y="-92.5237" font-family="Times,serif" font-size="14.00">4</text>
</g>
<!-- stl&#45;&#45;ltr -->
<g id="edge88" class="edge"><title>stl&#45;&#45;ltr</title>
<path fill="none" stroke="dimgray" d="M209.423,55.8382C207.171,86.5192 202.616,148.576 200.355,179.379"/>
<text text-anchor="middle" x="201.389" y="114.808" font-family="Times,serif" font-size="14.00">2</text>
</g>
<!-- stl&#45;&#45;pit -->
<g id="edge89" class="edge"><title>stl&#45;&#45;pit</title>
<path fill="none" stroke="green" d="M222.649,24.1995C263.519,-22.5737 397.846,-176.303 438.826,-223.201"/>
<text text-anchor="middle" x="327.237" y="-102.301" font-family="Times,serif" font-size="14.00">5</text>
</g>
<!-- atl&#45;&#45;ral -->
<g id="edge97" class="edge"><title>atl&#45;&#45;ral</title>
<path fill="none" stroke="dimgray" d="M445.528,38.0113C458.016,9.10312 489.492,-47.5133 507.449,-73.3634"/>
<text text-anchor="middle" x="472.988" y="-20.4761" font-family="Times,serif" font-size="14.00">2</text>
</g>
<!-- atl&#45;&#45;ral -->
<g id="edge98" class="edge"><title>atl&#45;&#45;ral</title>
<path fill="none" stroke="dimgray" d="M453.222,42.2887C471.185,16.4242 502.66,-40.1929 515.139,-69.0881"/>
<text text-anchor="middle" x="480.681" y="-16.1997" font-family="Times,serif" font-size="14.00">2</text>
</g>
<!-- ral&#45;&#45;pit -->
<g id="edge99" class="edge"><title>ral&#45;&#45;pit</title>
<path fill="none" stroke="dimgray" d="M512.378,-103.073C499.155,-131.812 471.894,-191.064 458.53,-220.109"/>
<text text-anchor="middle" x="481.954" y="-164.391" font-family="Times,serif" font-size="14.00">2</text>
</g>
<!-- pnx&#45;&#45;sfe -->
<g id="edge71" class="edge"><title>pnx&#45;&#45;sfe</title>
<path fill="none" stroke="dimgray" d="M-340.715,481.327C-308.439,449.849 -225.323,368.784 -192.889,337.15"/>
<text text-anchor="middle" x="-270.302" y="406.439" font-family="Times,serif" font-size="14.00">3</text>
</g>
<!-- okc&#45;&#45;ltr -->
<g id="edge75" class="edge"><title>okc&#45;&#45;ltr</title>
<path fill="none" stroke="dimgray" d="M58.8191,205.597C89.2052,203.858 150.008,200.378 180.577,198.628"/>
<text text-anchor="middle" x="116.198" y="199.312" font-family="Times,serif" font-size="14.00">2</text>
</g>
<!-- okc&#45;&#45;sfe -->
<g id="edge72" class="edge"><title>okc&#45;&#45;sfe</title>
<path fill="none" stroke="blue" d="M24.4532,215.284C-16.3862,237.084 -123.178,294.091 -163.721,315.733"/>
<text text-anchor="middle" x="-73.1339" y="262.708" font-family="Times,serif" font-size="14.00">3</text>
</g>
<!-- dal -->
<g id="node33" class="node"><title>dal</title>
<g id="a_node33"><a xlink:title="Dallas">
<ellipse fill="white" stroke="black" cx="141.729" cy="328.61" rx="18" ry="18"/>
</a>
</g>
<text text-anchor="middle" x="105.847" y="307.81" font-family="Times,serif" font-size="14.00">Dallas</text>
</g>
<!-- okc&#45;&#45;dal -->
<g id="edge73" class="edge"><title>okc&#45;&#45;dal</title>
<path fill="none" stroke="dimgray" d="M55.2686,217.328C77.0748,238.804 116.804,286.743 133.895,312.197"/>
<text text-anchor="middle" x="91.0819" y="261.962" font-family="Times,serif" font-size="14.00">2</text>
</g>
<!-- okc&#45;&#45;dal -->
<g id="edge74" class="edge"><title>okc&#45;&#45;dal</title>
<path fill="none" stroke="dimgray" d="M48.4426,222.984C65.4946,248.4 105.22,296.342 127.057,317.864"/>
<text text-anchor="middle" x="84.2498" y="267.624" font-family="Times,serif" font-size="14.00">2</text>
</g>
<!-- mim -->
<g id="node19" class="node"><title>mim</title>
<g id="a_node19"><a xlink:title="Miami">
<ellipse fill="white" stroke="black" cx="763.344" cy="277.468" rx="18" ry="18"/>
</a>
</g>
<text text-anchor="middle" x="726.679" y="256.668" font-family="Times,serif" font-size="14.00">Miami</text>
</g>
<!-- mim&#45;&#45;atl -->
<g id="edge25" class="edge"><title>mim&#45;&#45;atl</title>
<path fill="none" stroke="blue" d="M748.218,267.067C694.032,229.81 509.981,103.257 455.848,66.0356"/>
<text text-anchor="middle" x="598.533" y="163.752" font-family="Times,serif" font-size="14.00">5</text>
</g>
<!-- chr -->
<g id="node20" class="node"><title>chr</title>
<g id="a_node20"><a xlink:title="Charleston">
<ellipse fill="white" stroke="black" cx="585.363" cy="45.496" rx="18" ry="18"/>
</a>
</g>
<text text-anchor="middle" x="537.035" y="24.696" font-family="Times,serif" font-size="14.00">Charleston</text>
</g>
<!-- mim&#45;&#45;chr -->
<g id="edge23" class="edge"><title>mim&#45;&#45;chr</title>
<path fill="none" stroke="pink" d="M752.211,262.957C720.248,221.298 628.45,101.654 596.492,60.0015"/>
<text text-anchor="middle" x="670.852" y="158.679" font-family="Times,serif" font-size="14.00">4</text>
</g>
<!-- nor -->
<g id="node21" class="node"><title>nor</title>
<g id="a_node21"><a xlink:title="New Orleans">
<ellipse fill="white" stroke="black" cx="353.865" cy="366.759" rx="18" ry="18"/>
</a>
</g>
<text text-anchor="middle" x="299.129" y="345.959" font-family="Times,serif" font-size="14.00">New Orleans</text>
</g>
<!-- mim&#45;&#45;nor -->
<g id="edge24" class="edge"><title>mim&#45;&#45;nor</title>
<path fill="none" stroke="red" d="M745.75,281.305C678.701,295.926 439.576,348.069 371.855,362.836"/>
<text text-anchor="middle" x="555.302" y="319.271" font-family="Times,serif" font-size="14.00">6</text>
</g>
<!-- chr&#45;&#45;atl -->
<g id="edge53" class="edge"><title>chr&#45;&#45;atl</title>
<path fill="none" stroke="dimgray" d="M567.341,46.7624C539.63,48.7096 486.851,52.4182 459.004,54.3749"/>
<text text-anchor="middle" x="509.672" y="47.7687" font-family="Times,serif" font-size="14.00">2</text>
</g>
<!-- chr&#45;&#45;ral -->
<g id="edge54" class="edge"><title>chr&#45;&#45;ral</title>
<path fill="none" stroke="dimgray" d="M577.337,29.2845C564.773,3.90986 540.6,-44.9137 527.997,-70.3698"/>
<text text-anchor="middle" x="549.167" y="-23.3426" font-family="Times,serif" font-size="14.00">2</text>
</g>
<!-- nor&#45;&#45;ltr -->
<g id="edge60" class="edge"><title>nor&#45;&#45;ltr</title>
<path fill="none" stroke="green" d="M341.455,353.2C312.462,321.521 240.541,242.939 211.489,211.196"/>
<text text-anchor="middle" x="272.972" y="279.398" font-family="Times,serif" font-size="14.00">3</text>
</g>
<!-- nor&#45;&#45;atl -->
<g id="edge61" class="edge"><title>nor&#45;&#45;atl</title>
<path fill="none" stroke="yellow" d="M355.481,348.702C366.241,293.073 413.194,124.966 432.799,71.8868"/>
<text text-anchor="middle" x="390.64" y="207.494" font-family="Times,serif" font-size="14.00">4</text>
</g>
<!-- nor&#45;&#45;atl -->
<g id="edge62" class="edge"><title>nor&#45;&#45;atl</title>
<path fill="none" stroke="orange" d="M361.839,350.478C381.462,297.324 428.411,129.216 439.148,73.6602"/>
<text text-anchor="middle" x="396.994" y="223.269" font-family="Times,serif" font-size="14.00">4</text>
</g>
<!-- hst -->
<g id="node34" class="node"><title>hst</title>
<g id="a_node34"><a xlink:title="Houston">
<ellipse fill="white" stroke="black" cx="196.564" cy="383.693" rx="18" ry="18"/>
</a>
</g>
<text text-anchor="middle" x="154.84" y="398.893" font-family="Times,serif" font-size="14.00">Houston</text>
</g>
<!-- nor&#45;&#45;hst -->
<g id="edge63" class="edge"><title>nor&#45;&#45;hst</title>
<path fill="none" stroke="dimgray" d="M335.82,368.702C305.639,371.951 245.246,378.452 214.883,381.721"/>
<text text-anchor="middle" x="271.851" y="372.411" font-family="Times,serif" font-size="14.00">2</text>
</g>
<!-- cal -->
<g id="node30" class="node"><title>cal</title>
<g id="a_node30"><a xlink:title="Calgary">
<ellipse fill="white" stroke="black" cx="-746.095" cy="-487.321" rx="18" ry="18"/>
</a>
</g>
<text text-anchor="middle" x="-786.253" y="-508.121" font-family="Times,serif" font-size="14.00">Calgary</text>
</g>
<!-- win&#45;&#45;cal -->
<g id="edge66" class="edge"><title>win&#45;&#45;cal</title>
<path fill="none" stroke="white" d="M-275.769,-373.108C-351.977,-391.615 -652.302,-464.545 -728.463,-483.04"/>
<text text-anchor="middle" x="-505.616" y="-430.874" font-family="Times,serif" font-size="14.00">6</text>
</g>
<!-- sea&#45;&#45;cal -->
<g id="edge87" class="edge"><title>sea&#45;&#45;cal</title>
<path fill="none" stroke="dimgray" d="M-844.174,-220.45C-825.668,-270.802 -771.039,-419.447 -752.406,-470.15"/>
<text text-anchor="middle" x="-801.79" y="-348.1" font-family="Times,serif" font-size="14.00">4</text>
</g>
<!-- por -->
<g id="node35" class="node"><title>por</title>
<g id="a_node35"><a xlink:title="Portland">
<ellipse fill="white" stroke="black" cx="-865.58" cy="-131.044" rx="18" ry="18"/>
</a>
</g>
<text text-anchor="middle" x="-907.301" y="-151.844" font-family="Times,serif" font-size="14.00">Portland</text>
</g>
<!-- sea&#45;&#45;por -->
<g id="edge85" class="edge"><title>sea&#45;&#45;por</title>
<path fill="none" stroke="dimgray" d="M-848.232,-185.542C-849.445,-173.569 -852.708,-158.013 -856.408,-146.581"/>
<text text-anchor="middle" x="-855.82" y="-168.862" font-family="Times,serif" font-size="14.00">1</text>
</g>
<!-- sea&#45;&#45;por -->
<g id="edge86" class="edge"><title>sea&#45;&#45;por</title>
<path fill="none" stroke="dimgray" d="M-859.587,-187.922C-863.284,-176.469 -866.541,-160.912 -867.743,-148.957"/>
<text text-anchor="middle" x="-867.165" y="-171.24" font-family="Times,serif" font-size="14.00">1</text>
</g>
<!-- ssm&#45;&#45;win -->
<g id="edge39" class="edge"><title>ssm&#45;&#45;win</title>
<path fill="none" stroke="dimgray" d="M162.756,-396.087C91.7819,-391.489 -168.028,-374.657 -239.696,-370.014"/>
<text text-anchor="middle" x="-41.9701" y="-385.851" font-family="Times,serif" font-size="14.00">6</text>
</g>
<!-- ssm&#45;&#45;tor -->
<g id="edge40" class="edge"><title>ssm&#45;&#45;tor</title>
<path fill="none" stroke="dimgray" d="M198.542,-394.071C230.404,-388.359 296.919,-376.436 328.871,-370.709"/>
<text text-anchor="middle" x="260.206" y="-385.19" font-family="Times,serif" font-size="14.00">2</text>
</g>
<!-- tor&#45;&#45;pit -->
<g id="edge96" class="edge"><title>tor&#45;&#45;pit</title>
<path fill="none" stroke="dimgray" d="M358.089,-353.278C378.103,-328.157 419.479,-276.223 439.483,-251.114"/>
<text text-anchor="middle" x="395.286" y="-304.996" font-family="Times,serif" font-size="14.00">2</text>
</g>
<!-- mon -->
<g id="node26" class="node"><title>mon</title>
<g id="a_node26"><a xlink:title="Montreal">
<ellipse fill="white" stroke="black" cx="500.313" cy="-558.945" rx="18" ry="18"/>
</a>
</g>
<text text-anchor="middle" x="456.654" y="-579.745" font-family="Times,serif" font-size="14.00">Montreal</text>
</g>
<!-- mon&#45;&#45;ssm -->
<g id="edge34" class="edge"><title>mon&#45;&#45;ssm</title>
<path fill="none" stroke="black" d="M484.028,-550.705C429.215,-522.968 251.796,-433.191 197.032,-405.479"/>
<text text-anchor="middle" x="337.03" y="-480.892" font-family="Times,serif" font-size="14.00">5</text>
</g>
<!-- mon&#45;&#45;tor -->
<g id="edge38" class="edge"><title>mon&#45;&#45;tor</title>
<path fill="none" stroke="dimgray" d="M489.022,-544.868C460.624,-509.464 386.479,-417.026 358.064,-381.6"/>
<text text-anchor="middle" x="420.043" y="-466.034" font-family="Times,serif" font-size="14.00">3</text>
</g>
<!-- bos -->
<g id="node27" class="node"><title>bos</title>
<g id="a_node27"><a xlink:title="Boston">
<ellipse fill="white" stroke="black" cx="633.333" cy="-488.686" rx="18" ry="18"/>
</a>
</g>
<text text-anchor="middle" x="595.495" y="-509.486" font-family="Times,serif" font-size="14.00">Boston</text>
</g>
<!-- mon&#45;&#45;bos -->
<g id="edge35" class="edge"><title>mon&#45;&#45;bos</title>
<path fill="none" stroke="dimgray" d="M517.946,-554.749C544.965,-543.838 595.845,-516.96 620.02,-500.822"/>
<text text-anchor="middle" x="565.483" y="-530.585" font-family="Times,serif" font-size="14.00">2</text>
</g>
<!-- mon&#45;&#45;bos -->
<g id="edge36" class="edge"><title>mon&#45;&#45;bos</title>
<path fill="none" stroke="dimgray" d="M513.967,-546.582C538.201,-530.471 588.49,-503.91 615.446,-492.986"/>
<text text-anchor="middle" x="561.207" y="-508.584" font-family="Times,serif" font-size="14.00">2</text>
</g>
<!-- nyc -->
<g id="node28" class="node"><title>nyc</title>
<g id="a_node28"><a xlink:title="New York">
<ellipse fill="white" stroke="black" cx="569.775" cy="-350.835" rx="18" ry="18"/>
</a>
</g>
<text text-anchor="middle" x="523.375" y="-371.635" font-family="Times,serif" font-size="14.00">New York</text>
</g>
<!-- mon&#45;&#45;nyc -->
<g id="edge37" class="edge"><title>mon&#45;&#45;nyc</title>
<path fill="none" stroke="blue" d="M506.116,-541.56C519.224,-502.289 550.992,-407.109 564.038,-368.025"/>
<text text-anchor="middle" x="531.577" y="-457.592" font-family="Times,serif" font-size="14.00">3</text>
</g>
<!-- bos&#45;&#45;nyc -->
<g id="edge64" class="edge"><title>bos&#45;&#45;nyc</title>
<path fill="none" stroke="yellow" d="M630.026,-470.709C620.478,-442.902 596.163,-390.174 581.242,-364.926"/>
<text text-anchor="middle" x="602.134" y="-420.618" font-family="Times,serif" font-size="14.00">2</text>
</g>
<!-- bos&#45;&#45;nyc -->
<g id="edge65" class="edge"><title>bos&#45;&#45;nyc</title>
<path fill="none" stroke="red" d="M621.809,-474.498C606.864,-449.179 582.556,-396.448 573.045,-368.705"/>
<text text-anchor="middle" x="593.927" y="-424.401" font-family="Times,serif" font-size="14.00">2</text>
</g>
<!-- nyc&#45;&#45;pit -->
<g id="edge94" class="edge"><title>nyc&#45;&#45;pit</title>
<path fill="none" stroke="green" d="M560.066,-335.486C539.364,-311.264 491.492,-265.428 466.456,-245.864"/>
<text text-anchor="middle" x="509.761" y="-279.475" font-family="Times,serif" font-size="14.00">2</text>
</g>
<!-- nyc&#45;&#45;pit -->
<g id="edge95" class="edge"><title>nyc&#45;&#45;pit</title>
<path fill="none" stroke="white" d="M554.02,-341.799C528.924,-322.166 481.058,-276.324 460.429,-252.159"/>
<text text-anchor="middle" x="503.725" y="-299.779" font-family="Times,serif" font-size="14.00">2</text>
</g>
<!-- van -->
<g id="node29" class="node"><title>van</title>
<g id="a_node29"><a xlink:title="Vancouver">
<ellipse fill="white" stroke="black" cx="-862.069" cy="-277.022" rx="18" ry="18"/>
</a>
</g>
<text text-anchor="middle" x="-910" y="-297.822" font-family="Times,serif" font-size="14.00">Vancouver</text>
</g>
<!-- van&#45;&#45;sea -->
<g id="edge46" class="edge"><title>van&#45;&#45;sea</title>
<path fill="none" stroke="dimgray" d="M-853.63,-260.892C-850.49,-249.221 -847.986,-233.456 -847.361,-221.406"/>
<text text-anchor="middle" x="-853.996" y="-243.949" font-family="Times,serif" font-size="14.00">1</text>
</g>
<!-- van&#45;&#45;sea -->
<g id="edge47" class="edge"><title>van&#45;&#45;sea</title>
<path fill="none" stroke="dimgray" d="M-865.088,-259.07C-864.454,-247.001 -861.943,-231.237 -858.799,-219.587"/>
<text text-anchor="middle" x="-865.444" y="-242.129" font-family="Times,serif" font-size="14.00">1</text>
</g>
<!-- van&#45;&#45;cal -->
<g id="edge48" class="edge"><title>van&#45;&#45;cal</title>
<path fill="none" stroke="dimgray" d="M-853.352,-292.829C-831.86,-331.802 -776.511,-432.166 -754.913,-471.331"/>
<text text-anchor="middle" x="-807.633" y="-384.88" font-family="Times,serif" font-size="14.00">3</text>
</g>
<!-- elp&#45;&#45;pnx -->
<g id="edge55" class="edge"><title>elp&#45;&#45;pnx</title>
<path fill="none" stroke="dimgray" d="M-166.695,474.634C-205.66,478.687 -296.695,488.155 -335.624,492.204"/>
<text text-anchor="middle" x="-254.659" y="480.619" font-family="Times,serif" font-size="14.00">3</text>
</g>
<!-- elp&#45;&#45;okc -->
<g id="edge56" class="edge"><title>elp&#45;&#45;okc</title>
<path fill="none" stroke="yellow" d="M-138.036,458.053C-105.047,411.638 -3.25214,268.411 30.0139,221.605"/>
<text text-anchor="middle" x="-57.5108" y="337.029" font-family="Times,serif" font-size="14.00">5</text>
</g>
<!-- elp&#45;&#45;sfe -->
<g id="edge57" class="edge"><title>elp&#45;&#45;sfe</title>
<path fill="none" stroke="dimgray" d="M-152.172,455.12C-158.139,426.693 -169.83,370.999 -175.856,342.293"/>
<text text-anchor="middle" x="-167.514" y="395.907" font-family="Times,serif" font-size="14.00">2</text>
</g>
<!-- elp&#45;&#45;dal -->
<g id="edge58" class="edge"><title>elp&#45;&#45;dal</title>
<path fill="none" stroke="red" d="M-132.039,464.577C-80.9603,439.209 74.6436,361.928 125.476,336.683"/>
<text text-anchor="middle" x="-6.78172" y="397.83" font-family="Times,serif" font-size="14.00">4</text>
</g>
<!-- elp&#45;&#45;hst -->
<g id="edge59" class="edge"><title>elp&#45;&#45;hst</title>
<path fill="none" stroke="green" d="M-130.888,468.201C-71.7,452.926 119.879,403.484 179.015,388.222"/>
<text text-anchor="middle" x="20.5632" y="425.411" font-family="Times,serif" font-size="14.00">6</text>
</g>
<!-- sfo&#45;&#45;slc -->
<g id="edge78" class="edge"><title>sfo&#45;&#45;slc</title>
<path fill="none" stroke="orange" d="M-793.078,257.143C-737.571,228.199 -545.934,146.458 -486.265,126.265"/>
<text text-anchor="middle" x="-643.172" y="188.904" font-family="Times,serif" font-size="14.00">5</text>
</g>
<!-- sfo&#45;&#45;slc -->
<g id="edge79" class="edge"><title>sfo&#45;&#45;slc</title>
<path fill="none" stroke="white" d="M-790.638,262.864C-731.327,242.837 -539.686,161.108 -483.81,132.021"/>
<text text-anchor="middle" x="-640.724" y="208.643" font-family="Times,serif" font-size="14.00">5</text>
</g>
<!-- sfo&#45;&#45;por -->
<g id="edge76" class="edge"><title>sfo&#45;&#45;por</title>
<path fill="none" stroke="green" d="M-813.749,249.804C-828.171,184.769 -861.399,-45.8771 -865.988,-112.75"/>
<text text-anchor="middle" x="-843.368" y="65.7269" font-family="Times,serif" font-size="14.00">5</text>
</g>
<!-- sfo&#45;&#45;por -->
<g id="edge77" class="edge"><title>sfo&#45;&#45;por</title>
<path fill="none" stroke="pink" d="M-807.825,248.951C-812.342,182.489 -845.557,-48.1588 -860.027,-113.609"/>
<text text-anchor="middle" x="-830.426" y="64.8709" font-family="Times,serif" font-size="14.00">5</text>
</g>
<!-- dal&#45;&#45;ltr -->
<g id="edge91" class="edge"><title>dal&#45;&#45;ltr</title>
<path fill="none" stroke="dimgray" d="M148.985,312.014C159.945,286.946 180.611,239.679 191.642,214.448"/>
<text text-anchor="middle" x="166.814" y="260.431" font-family="Times,serif" font-size="14.00">2</text>
</g>
<!-- dal&#45;&#45;hst -->
<g id="edge92" class="edge"><title>dal&#45;&#45;hst</title>
<path fill="none" stroke="dimgray" d="M157.953,336.799C168.014,344.957 180.377,357.378 188.479,367.471"/>
<text text-anchor="middle" x="169.716" y="349.335" font-family="Times,serif" font-size="14.00">1</text>
</g>
<!-- dal&#45;&#45;hst -->
<g id="edge93" class="edge"><title>dal&#45;&#45;hst</title>
<path fill="none" stroke="dimgray" d="M149.845,344.87C157.958,354.969 170.323,367.387 180.378,375.534"/>
<text text-anchor="middle" x="161.612" y="357.402" font-family="Times,serif" font-size="14.00">1</text>
</g>
<!-- por&#45;&#45;slc -->
<g id="edge90" class="edge"><title>por&#45;&#45;slc</title>
<path fill="none" stroke="blue" d="M-850.011,-121.123C-786.476,-80.635 -547.211,71.8384 -483.875,112.199"/>
<text text-anchor="middle" x="-670.443" y="-7.26166" font-family="Times,serif" font-size="14.00">6</text>
</g>
<!-- wsh -->
<g id="node36" class="node"><title>wsh</title>
<g id="a_node36"><a xlink:title="Washington">
<ellipse fill="white" stroke="black" cx="592.873" cy="-213.709" rx="18" ry="18"/>
</a>
</g>
<text text-anchor="middle" x="541.603" y="-234.509" font-family="Times,serif" font-size="14.00">Washington</text>
</g>
<!-- wsh&#45;&#45;ral -->
<g id="edge82" class="edge"><title>wsh&#45;&#45;ral</title>
<path fill="none" stroke="dimgray" d="M588.047,-196.107C576.523,-170.26 549.261,-122.808 532.718,-99.7997"/>
<text text-anchor="middle" x="556.882" y="-150.753" font-family="Times,serif" font-size="14.00">2</text>
</g>
<!-- wsh&#45;&#45;ral -->
<g id="edge83" class="edge"><title>wsh&#45;&#45;ral</title>
<path fill="none" stroke="dimgray" d="M579.925,-200.436C563.366,-177.354 536.211,-130.073 524.724,-104.3"/>
<text text-anchor="middle" x="548.824" y="-155.168" font-family="Times,serif" font-size="14.00">2</text>
</g>
<!-- wsh&#45;&#45;pit -->
<g id="edge84" class="edge"><title>wsh&#45;&#45;pit</title>
<path fill="none" stroke="dimgray" d="M574.88,-216.647C547.552,-221.11 495.89,-229.545 468.649,-233.993"/>
<text text-anchor="middle" x="518.265" y="-214.12" font-family="Times,serif" font-size="14.00">2</text>
</g>
<!-- wsh&#45;&#45;nyc -->
<g id="edge80" class="edge"><title>wsh&#45;&#45;nyc</title>
<path fill="none" stroke="black" d="M585.34,-230.3C578.161,-256.216 569.767,-306.08 568.083,-332.835"/>
<text text-anchor="middle" x="573.212" y="-284.368" font-family="Times,serif" font-size="14.00">2</text>
</g>
<!-- wsh&#45;&#45;nyc -->
<g id="edge81" class="edge"><title>wsh&#45;&#45;nyc</title>
<path fill="none" stroke="orange" d="M594.556,-231.853C592.849,-258.69 584.445,-308.552 577.27,-334.383"/>
<text text-anchor="middle" x="582.413" y="-285.918" font-family="Times,serif" font-size="14.00">2</text>
</g>
</g>
</svg>
