<?xml version="1.0" encoding="UTF-8" standalone="no"?>
<!DOCTYPE svg PUBLIC "-//W3C//DTD SVG 1.1//EN"
 "http://www.w3.org/Graphics/SVG/1.1/DTD/svg11.dtd">
<!-- Generated by graphviz version 2.38.0 (20140413.2041)
 -->
<!-- Title: USA Pages: 1 -->
<svg width="1488pt" height="1662pt"
 viewBox="0.00 0.00 1488.24 1662.31" xmlns="http://www.w3.org/2000/svg" xmlns:xlink="http://www.w3.org/1999/xlink">
<g id="graph0" class="graph" transform="scale(1 1) rotate(0) translate(826.135 842.471)">
<title>USA</title>
<polygon fill="white" stroke="none" points="-826.135,819.839 -826.135,-842.471 662.102,-842.471 662.102,819.839 -826.135,819.839"/>
<!-- ssm -->
<g id="node1" class="node"><title>ssm</title>
<g id="a_node1"><a xlink:title="Sault St Marie">
<ellipse fill="white" stroke="black" cx="-250.404" cy="357.87" rx="23.7379" ry="23.7379"/>
<text text-anchor="middle" x="-250.404" y="362.07" font-family="Times,serif" font-size="14.00">ssm</text>
</a>
</g>
</g>
<!-- tor -->
<g id="node2" class="node"><title>tor</title>
<g id="a_node2"><a xlink:title="Toronto">
<ellipse fill="white" stroke="black" cx="-137.846" cy="481.666" rx="19.8612" ry="19.8612"/>
<text text-anchor="middle" x="-137.846" y="485.866" font-family="Times,serif" font-size="14.00">tor</text>
</a>
</g>
</g>
<!-- ssm&#45;&#45;tor -->
<g id="edge1" class="edge"><title>ssm&#45;&#45;tor</title>
<path fill="none" stroke="dimgray" d="M-234.277,375.607C-212.029,400.077 -172.312,443.759 -151.47,466.682"/>
<text text-anchor="middle" x="-196.374" y="418.344" font-family="Times,serif" font-size="14.00">2</text>
</g>
<!-- dul -->
<g id="node3" class="node"><title>dul</title>
<g id="a_node3"><a xlink:title="Duluth">
<ellipse fill="white" stroke="black" cx="-166.599" cy="112.706" rx="21.315" ry="21.315"/>
<text text-anchor="middle" x="-166.599" y="116.906" font-family="Times,serif" font-size="14.00">dul</text>
</a>
</g>
</g>
<!-- ssm&#45;&#45;dul -->
<g id="edge2" class="edge"><title>ssm&#45;&#45;dul</title>
<path fill="none" stroke="dimgray" d="M-242.67,335.245C-226.462,287.829 -189.149,178.673 -173.6,133.187"/>
<text text-anchor="middle" x="-211.635" y="231.416" font-family="Times,serif" font-size="14.00">3</text>
</g>
<!-- win -->
<g id="node4" class="node"><title>win</title>
<g id="a_node4"><a xlink:title="Winnipeg">
<ellipse fill="white" stroke="black" cx="-453.194" cy="-43.0049" rx="23.2447" ry="23.2447"/>
<text text-anchor="middle" x="-453.194" y="-38.8049" font-family="Times,serif" font-size="14.00">win</text>
</a>
</g>
</g>
<!-- ssm&#45;&#45;win -->
<g id="edge3" class="edge"><title>ssm&#45;&#45;win</title>
<path fill="none" stroke="dimgray" d="M-261.307,336.317C-296.6,266.55 -407.466,47.3901 -442.483,-21.8321"/>
<text text-anchor="middle" x="-355.395" y="154.443" font-family="Times,serif" font-size="14.00">6</text>
</g>
<!-- mon -->
<g id="node5" class="node"><title>mon</title>
<g id="a_node5"><a xlink:title="Montreal">
<ellipse fill="white" stroke="black" cx="-223.57" cy="714.477" rx="25.6592" ry="25.6592"/>
<text text-anchor="middle" x="-223.57" y="718.677" font-family="Times,serif" font-size="14.00">mon</text>
</a>
</g>
</g>
<!-- ssm&#45;&#45;mon -->
<g id="edge4" class="edge"><title>ssm&#45;&#45;mon</title>
<path fill="none" stroke="black" d="M-248.602,381.822C-243.772,446.005 -230.566,621.501 -225.544,688.242"/>
<text text-anchor="middle" x="-240.573" y="532.232" font-family="Times,serif" font-size="14.00">5</text>
</g>
<!-- tor&#45;&#45;dul -->
<g id="edge41" class="edge"><title>tor&#45;&#45;dul</title>
<path fill="none" stroke="pink" d="M-139.412,461.567C-144.381,397.807 -159.764,200.403 -164.906,134.43"/>
<text text-anchor="middle" x="-155.659" y="295.198" font-family="Times,serif" font-size="14.00">6</text>
</g>
<!-- tor&#45;&#45;mon -->
<g id="edge42" class="edge"><title>tor&#45;&#45;mon</title>
<path fill="none" stroke="dimgray" d="M-144.861,500.718C-160.336,542.745 -197.385,643.364 -214.554,689.99"/>
<text text-anchor="middle" x="-183.207" y="592.554" font-family="Times,serif" font-size="14.00">3</text>
</g>
<!-- pit -->
<g id="node9" class="node"><title>pit</title>
<g id="a_node9"><a xlink:title="Pittsburgh">
<ellipse fill="white" stroke="black" cx="27.9749" cy="508.324" rx="19.3853" ry="19.3853"/>
<text text-anchor="middle" x="27.9749" y="512.524" font-family="Times,serif" font-size="14.00">pit</text>
</a>
</g>
</g>
<!-- tor&#45;&#45;pit -->
<g id="edge43" class="edge"><title>tor&#45;&#45;pit</title>
<path fill="none" stroke="dimgray" d="M-117.844,484.882C-85.7139,490.047 -23.0072,500.128 8.67249,505.221"/>
<text text-anchor="middle" x="-58.0856" y="492.251" font-family="Times,serif" font-size="14.00">2</text>
</g>
<!-- chi -->
<g id="node28" class="node"><title>chi</title>
<g id="a_node28"><a xlink:title="Chicago">
<ellipse fill="white" stroke="black" cx="7.14912" cy="263.562" rx="20.8218" ry="20.8218"/>
<text text-anchor="middle" x="7.14912" y="267.762" font-family="Times,serif" font-size="14.00">chi</text>
</a>
</g>
</g>
<!-- tor&#45;&#45;chi -->
<g id="edge40" class="edge"><title>tor&#45;&#45;chi</title>
<path fill="none" stroke="white" d="M-126.709,464.914C-99.9183,424.615 -32.064,322.547 -4.62998,281.28"/>
<text text-anchor="middle" x="-69.1694" y="370.297" font-family="Times,serif" font-size="14.00">4</text>
</g>
<!-- dul&#45;&#45;win -->
<g id="edge74" class="edge"><title>dul&#45;&#45;win</title>
<path fill="none" stroke="black" d="M-185.848,102.247C-237.556,74.1538 -379.159,-2.78073 -432.5,-31.7616"/>
<text text-anchor="middle" x="-312.674" y="32.4428" font-family="Times,serif" font-size="14.00">4</text>
</g>
<!-- omh -->
<g id="node23" class="node"><title>omh</title>
<g id="a_node23"><a xlink:title="Omaha">
<ellipse fill="white" stroke="black" cx="-24.8564" cy="20.0343" rx="25.6592" ry="25.6592"/>
<text text-anchor="middle" x="-24.8564" y="24.2343" font-family="Times,serif" font-size="14.00">omh</text>
</a>
</g>
</g>
<!-- dul&#45;&#45;omh -->
<g id="edge75" class="edge"><title>dul&#45;&#45;omh</title>
<path fill="none" stroke="dimgray" d="M-151.475,97.2693C-126.896,77.9908 -78.3135,46.0875 -48.9533,29.821"/>
<text text-anchor="middle" x="-103.714" y="60.7451" font-family="Times,serif" font-size="14.00">2</text>
</g>
<!-- dul&#45;&#45;omh -->
<g id="edge76" class="edge"><title>dul&#45;&#45;omh</title>
<path fill="none" stroke="dimgray" d="M-146.392,105.043C-118.953,90.3025 -70.4408,58.7337 -43.7151,38.3569"/>
<text text-anchor="middle" x="-98.5537" y="82.8999" font-family="Times,serif" font-size="14.00">2</text>
</g>
<!-- wsh -->
<g id="node6" class="node"><title>wsh</title>
<g id="a_node6"><a xlink:title="Washington">
<ellipse fill="white" stroke="black" cx="120.64" cy="618.551" rx="24.2139" ry="24.2139"/>
<text text-anchor="middle" x="120.64" y="622.751" font-family="Times,serif" font-size="14.00">wsh</text>
</a>
</g>
</g>
<!-- nyc -->
<g id="node7" class="node"><title>nyc</title>
<g id="a_node7"><a xlink:title="New York">
<ellipse fill="white" stroke="black" cx="-9.21075" cy="668.595" rx="22.7515" ry="22.7515"/>
<text text-anchor="middle" x="-9.21075" y="672.795" font-family="Times,serif" font-size="14.00">nyc</text>
</a>
</g>
</g>
<!-- wsh&#45;&#45;nyc -->
<g id="edge5" class="edge"><title>wsh&#45;&#45;nyc</title>
<path fill="none" stroke="black" d="M100.203,632.045C76.7184,643.286 38.3268,658.046 13.8095,665.234"/>
<text text-anchor="middle" x="53.506" y="659.84" font-family="Times,serif" font-size="14.00">2</text>
</g>
<!-- wsh&#45;&#45;nyc -->
<g id="edge6" class="edge"><title>wsh&#45;&#45;nyc</title>
<path fill="none" stroke="orange" d="M96.4324,622.262C71.4786,629.69 33.1108,644.512 10.1109,655.637"/>
<text text-anchor="middle" x="49.7716" y="636.15" font-family="Times,serif" font-size="14.00">2</text>
</g>
<!-- ral -->
<g id="node8" class="node"><title>ral</title>
<g id="a_node8"><a xlink:title="Raleigh">
<ellipse fill="white" stroke="black" cx="193.114" cy="491.36" rx="19.368" ry="19.368"/>
<text text-anchor="middle" x="193.114" y="495.56" font-family="Times,serif" font-size="14.00">ral</text>
</a>
</g>
</g>
<!-- wsh&#45;&#45;ral -->
<g id="edge7" class="edge"><title>wsh&#45;&#45;ral</title>
<path fill="none" stroke="dimgray" d="M127.979,595.287C140.282,569.102 164.153,527.483 179.513,505.666"/>
<text text-anchor="middle" x="150.246" y="547.677" font-family="Times,serif" font-size="14.00">2</text>
</g>
<!-- wsh&#45;&#45;ral -->
<g id="edge8" class="edge"><title>wsh&#45;&#45;ral</title>
<path fill="none" stroke="dimgray" d="M136.912,600.377C153.166,576.443 176.801,534.69 187.739,510.354"/>
<text text-anchor="middle" x="158.825" y="552.565" font-family="Times,serif" font-size="14.00">2</text>
</g>
<!-- wsh&#45;&#45;pit -->
<g id="edge9" class="edge"><title>wsh&#45;&#45;pit</title>
<path fill="none" stroke="dimgray" d="M104.92,599.852C86.7444,578.232 57.1916,543.078 40.4961,523.218"/>
<text text-anchor="middle" x="69.2082" y="558.735" font-family="Times,serif" font-size="14.00">2</text>
</g>
<!-- nyc&#45;&#45;mon -->
<g id="edge91" class="edge"><title>nyc&#45;&#45;mon</title>
<path fill="none" stroke="blue" d="M-31.7458,673.419C-71.9479,682.023 -155.772,699.965 -198.037,709.012"/>
<text text-anchor="middle" x="-118.392" y="688.415" font-family="Times,serif" font-size="14.00">3</text>
</g>
<!-- nyc&#45;&#45;pit -->
<g id="edge92" class="edge"><title>nyc&#45;&#45;pit</title>
<path fill="none" stroke="green" d="M-8.81043,645.557C-4.05326,613.233 9.52444,555.144 19.2296,525.999"/>
<text text-anchor="middle" x="1.70956" y="582.978" font-family="Times,serif" font-size="14.00">2</text>
</g>
<!-- nyc&#45;&#45;pit -->
<g id="edge93" class="edge"><title>nyc&#45;&#45;pit</title>
<path fill="none" stroke="white" d="M0.573994,647.735C10.5362,616.618 23.9238,558.485 28.0439,528.044"/>
<text text-anchor="middle" x="10.8089" y="585.089" font-family="Times,serif" font-size="14.00">2</text>
</g>
<!-- ral&#45;&#45;pit -->
<g id="edge96" class="edge"><title>ral&#45;&#45;pit</title>
<path fill="none" stroke="dimgray" d="M173.522,493.372C141.739,496.637 79.3075,503.051 47.5414,506.314"/>
<text text-anchor="middle" x="107.032" y="497.043" font-family="Times,serif" font-size="14.00">2</text>
</g>
<!-- atl -->
<g id="node31" class="node"><title>atl</title>
<g id="a_node31"><a xlink:title="Atlanta">
<ellipse fill="white" stroke="black" cx="275.767" cy="350.821" rx="18.8921" ry="18.8921"/>
<text text-anchor="middle" x="275.767" y="355.021" font-family="Times,serif" font-size="14.00">atl</text>
</a>
</g>
</g>
<!-- ral&#45;&#45;atl -->
<g id="edge94" class="edge"><title>ral&#45;&#45;atl</title>
<path fill="none" stroke="dimgray" d="M198.857,472.669C212.222,444.083 243.841,390.327 262.295,364.825"/>
<text text-anchor="middle" x="227.076" y="415.947" font-family="Times,serif" font-size="14.00">2</text>
</g>
<!-- ral&#45;&#45;atl -->
<g id="edge95" class="edge"><title>ral&#45;&#45;atl</title>
<path fill="none" stroke="dimgray" d="M206.657,477.256C225.144,451.682 256.757,397.922 270.075,369.401"/>
<text text-anchor="middle" x="234.866" y="420.529" font-family="Times,serif" font-size="14.00">2</text>
</g>
<!-- lav -->
<g id="node10" class="node"><title>lav</title>
<g id="a_node10"><a xlink:title="Las Vegas">
<ellipse fill="white" stroke="black" cx="-46.214" cy="-683.455" rx="20.8218" ry="20.8218"/>
<text text-anchor="middle" x="-46.214" y="-679.255" font-family="Times,serif" font-size="14.00">lav</text>
</a>
</g>
</g>
<!-- slc -->
<g id="node11" class="node"><title>slc</title>
<g id="a_node11"><a xlink:title="Salt Lake City">
<ellipse fill="white" stroke="black" cx="-132.543" cy="-459.259" rx="19.8612" ry="19.8612"/>
<text text-anchor="middle" x="-132.543" y="-455.059" font-family="Times,serif" font-size="14.00">slc</text>
</a>
</g>
</g>
<!-- lav&#45;&#45;slc -->
<g id="edge10" class="edge"><title>lav&#45;&#45;slc</title>
<path fill="none" stroke="orange" d="M-53.8751,-663.56C-70.3813,-620.693 -109.112,-520.11 -125.266,-478.156"/>
<text text-anchor="middle" x="-93.0707" y="-573.658" font-family="Times,serif" font-size="14.00">3</text>
</g>
<!-- lax -->
<g id="node12" class="node"><title>lax</title>
<g id="a_node12"><a xlink:title="Los Angeles">
<ellipse fill="white" stroke="black" cx="65.7701" cy="-750.769" rx="20.8218" ry="20.8218"/>
<text text-anchor="middle" x="65.7701" y="-746.569" font-family="Times,serif" font-size="14.00">lax</text>
</a>
</g>
</g>
<!-- lav&#45;&#45;lax -->
<g id="edge11" class="edge"><title>lav&#45;&#45;lax</title>
<path fill="none" stroke="dimgray" d="M-28.2218,-694.271C-7.32437,-706.832 26.9442,-727.431 47.8226,-739.981"/>
<text text-anchor="middle" x="6.30038" y="-719.926" font-family="Times,serif" font-size="14.00">2</text>
</g>
<!-- hel -->
<g id="node15" class="node"><title>hel</title>
<g id="a_node15"><a xlink:title="Helena">
<ellipse fill="white" stroke="black" cx="-262.469" cy="-280.015" rx="20.8218" ry="20.8218"/>
<text text-anchor="middle" x="-262.469" y="-275.815" font-family="Times,serif" font-size="14.00">hel</text>
</a>
</g>
</g>
<!-- slc&#45;&#45;hel -->
<g id="edge44" class="edge"><title>slc&#45;&#45;hel</title>
<path fill="none" stroke="pink" d="M-144.302,-443.036C-168.789,-409.255 -225.048,-331.641 -250.074,-297.115"/>
<text text-anchor="middle" x="-200.688" y="-372.876" font-family="Times,serif" font-size="14.00">3</text>
</g>
<!-- por -->
<g id="node17" class="node"><title>por</title>
<g id="a_node17"><a xlink:title="Portland">
<ellipse fill="white" stroke="black" cx="-550.956" cy="-597.49" rx="21.791" ry="21.791"/>
<text text-anchor="middle" x="-550.956" y="-593.29" font-family="Times,serif" font-size="14.00">por</text>
</a>
</g>
</g>
<!-- slc&#45;&#45;por -->
<g id="edge47" class="edge"><title>slc&#45;&#45;por</title>
<path fill="none" stroke="blue" d="M-151.609,-465.557C-220.673,-488.374 -457.492,-566.612 -529.812,-590.505"/>
<text text-anchor="middle" x="-344.21" y="-530.831" font-family="Times,serif" font-size="14.00">6</text>
</g>
<!-- sfo -->
<g id="node29" class="node"><title>sfo</title>
<g id="a_node29"><a xlink:title="San Francisco">
<ellipse fill="white" stroke="black" cx="-198.434" cy="-817.556" rx="20.8304" ry="20.8304"/>
<text text-anchor="middle" x="-198.434" y="-813.356" font-family="Times,serif" font-size="14.00">sfo</text>
</a>
</g>
</g>
<!-- slc&#45;&#45;sfo -->
<g id="edge45" class="edge"><title>slc&#45;&#45;sfo</title>
<path fill="none" stroke="orange" d="M-139.36,-478.183C-155.294,-539.416 -190.714,-731.868 -197.945,-796.303"/>
<text text-anchor="middle" x="-172.153" y="-640.043" font-family="Times,serif" font-size="14.00">5</text>
</g>
<!-- slc&#45;&#45;sfo -->
<g id="edge46" class="edge"><title>slc&#45;&#45;sfo</title>
<path fill="none" stroke="white" d="M-132.905,-479.37C-139.797,-542.265 -175.163,-734.728 -191.329,-797.519"/>
<text text-anchor="middle" x="-158.617" y="-641.245" font-family="Times,serif" font-size="14.00">5</text>
</g>
<!-- pnx -->
<g id="node22" class="node"><title>pnx</title>
<g id="a_node22"><a xlink:title="Phoenix">
<ellipse fill="white" stroke="black" cx="240.955" cy="-556.017" rx="23.2447" ry="23.2447"/>
<text text-anchor="middle" x="240.955" y="-551.817" font-family="Times,serif" font-size="14.00">pnx</text>
</a>
</g>
</g>
<!-- lax&#45;&#45;pnx -->
<g id="edge98" class="edge"><title>lax&#45;&#45;pnx</title>
<path fill="none" stroke="dimgray" d="M79.8101,-735.161C112.044,-699.327 191.175,-611.357 225.096,-573.647"/>
<text text-anchor="middle" x="148.953" y="-657.204" font-family="Times,serif" font-size="14.00">3</text>
</g>
<!-- sea -->
<g id="node13" class="node"><title>sea</title>
<g id="a_node13"><a xlink:title="Seattle">
<ellipse fill="white" stroke="black" cx="-611.815" cy="-553.984" rx="21.2978" ry="21.2978"/>
<text text-anchor="middle" x="-611.815" y="-549.784" font-family="Times,serif" font-size="14.00">sea</text>
</a>
</g>
</g>
<!-- van -->
<g id="node14" class="node"><title>van</title>
<g id="a_node14"><a xlink:title="Vancouver">
<ellipse fill="white" stroke="black" cx="-685.06" cy="-544.735" rx="22.7515" ry="22.7515"/>
<text text-anchor="middle" x="-685.06" y="-540.535" font-family="Times,serif" font-size="14.00">van</text>
</a>
</g>
</g>
<!-- sea&#45;&#45;van -->
<g id="edge12" class="edge"><title>sea&#45;&#45;van</title>
<path fill="none" stroke="dimgray" d="M-631.451,-545.333C-640.918,-543.341 -652.33,-541.857 -662.188,-541.32"/>
<text text-anchor="middle" x="-650.319" y="-532.127" font-family="Times,serif" font-size="14.00">1</text>
</g>
<!-- sea&#45;&#45;van -->
<g id="edge13" class="edge"><title>sea&#45;&#45;van</title>
<path fill="none" stroke="dimgray" d="M-632.985,-557.483C-642.65,-557.058 -654.073,-555.66 -663.754,-553.729"/>
<text text-anchor="middle" x="-651.87" y="-558.406" font-family="Times,serif" font-size="14.00">1</text>
</g>
<!-- sea&#45;&#45;hel -->
<g id="edge14" class="edge"><title>sea&#45;&#45;hel</title>
<path fill="none" stroke="yellow" d="M-594.965,-540.77C-535.813,-494.381 -338.037,-339.278 -279.15,-293.097"/>
<text text-anchor="middle" x="-440.557" y="-419.733" font-family="Times,serif" font-size="14.00">6</text>
</g>
<!-- cal -->
<g id="node16" class="node"><title>cal</title>
<g id="a_node16"><a xlink:title="Calgary">
<ellipse fill="white" stroke="black" cx="-801.721" cy="-627.004" rx="20.3286" ry="20.3286"/>
<text text-anchor="middle" x="-801.721" y="-622.804" font-family="Times,serif" font-size="14.00">cal</text>
</a>
</g>
</g>
<!-- sea&#45;&#45;cal -->
<g id="edge15" class="edge"><title>sea&#45;&#45;cal</title>
<path fill="none" stroke="dimgray" d="M-632.138,-561.799C-668.977,-575.963 -746.301,-605.695 -782.395,-619.573"/>
<text text-anchor="middle" x="-710.767" y="-593.486" font-family="Times,serif" font-size="14.00">4</text>
</g>
<!-- sea&#45;&#45;por -->
<g id="edge16" class="edge"><title>sea&#45;&#45;por</title>
<path fill="none" stroke="dimgray" d="M-598.423,-571.085C-590.602,-577.689 -580.632,-584.83 -571.82,-590.142"/>
<text text-anchor="middle" x="-588.622" y="-583.413" font-family="Times,serif" font-size="14.00">1</text>
</g>
<!-- sea&#45;&#45;por -->
<g id="edge17" class="edge"><title>sea&#45;&#45;por</title>
<path fill="none" stroke="dimgray" d="M-591.301,-561.122C-582.521,-566.385 -572.538,-573.508 -564.66,-580.126"/>
<text text-anchor="middle" x="-581.481" y="-573.424" font-family="Times,serif" font-size="14.00">1</text>
</g>
<!-- van&#45;&#45;cal -->
<g id="edge18" class="edge"><title>van&#45;&#45;cal</title>
<path fill="none" stroke="dimgray" d="M-703.804,-557.953C-726.218,-573.759 -763.398,-599.979 -784.917,-615.154"/>
<text text-anchor="middle" x="-747.861" y="-589.353" font-family="Times,serif" font-size="14.00">3</text>
</g>
<!-- hel&#45;&#45;dul -->
<g id="edge56" class="edge"><title>hel&#45;&#45;dul</title>
<path fill="none" stroke="orange" d="M-257.45,-259.454C-240.922,-191.748 -188.308,23.7763 -171.684,91.8739"/>
<text text-anchor="middle" x="-218.067" y="-86.5898" font-family="Times,serif" font-size="14.00">6</text>
</g>
<!-- hel&#45;&#45;win -->
<g id="edge57" class="edge"><title>hel&#45;&#45;win</title>
<path fill="none" stroke="blue" d="M-275.881,-263.349C-310.475,-220.359 -402.53,-105.964 -438.5,-61.2643"/>
<text text-anchor="middle" x="-360.69" y="-165.107" font-family="Times,serif" font-size="14.00">4</text>
</g>
<!-- hel&#45;&#45;omh -->
<g id="edge58" class="edge"><title>hel&#45;&#45;omh</title>
<path fill="none" stroke="red" d="M-249.356,-263.456C-208.785,-212.225 -85.3823,-56.3958 -40.985,-0.332317"/>
<text text-anchor="middle" x="-148.67" y="-134.694" font-family="Times,serif" font-size="14.00">5</text>
</g>
<!-- cal&#45;&#45;win -->
<g id="edge86" class="edge"><title>cal&#45;&#45;win</title>
<path fill="none" stroke="white" d="M-791.1,-609.207C-739.991,-523.568 -519.613,-154.299 -465.317,-63.3196"/>
<text text-anchor="middle" x="-631.709" y="-339.063" font-family="Times,serif" font-size="14.00">6</text>
</g>
<!-- den -->
<g id="node18" class="node"><title>den</title>
<g id="a_node18"><a xlink:title="Denver">
<ellipse fill="white" stroke="black" cx="34.4029" cy="-280.243" rx="22.7515" ry="22.7515"/>
<text text-anchor="middle" x="34.4029" y="-276.043" font-family="Times,serif" font-size="14.00">den</text>
</a>
</g>
</g>
<!-- den&#45;&#45;slc -->
<g id="edge21" class="edge"><title>den&#45;&#45;slc</title>
<path fill="none" stroke="red" d="M15.9881,-293.958C-19.0858,-326.306 -93.9445,-406.686 -121.903,-442.145"/>
<text text-anchor="middle" x="-56.4574" y="-370.851" font-family="Times,serif" font-size="14.00">3</text>
</g>
<!-- den&#45;&#45;slc -->
<g id="edge22" class="edge"><title>den&#45;&#45;slc</title>
<path fill="none" stroke="yellow" d="M22.0045,-299.568C-7.82084,-336.812 -82.7882,-417.09 -116.213,-447.452"/>
<text text-anchor="middle" x="-43.6041" y="-376.31" font-family="Times,serif" font-size="14.00">3</text>
</g>
<!-- den&#45;&#45;hel -->
<g id="edge23" class="edge"><title>den&#45;&#45;hel</title>
<path fill="none" stroke="green" d="M11.1079,-280.225C-45.0714,-280.182 -187.345,-280.073 -241.29,-280.031"/>
<text text-anchor="middle" x="-118.591" y="-282.928" font-family="Times,serif" font-size="14.00">4</text>
</g>
<!-- ksc -->
<g id="node19" class="node"><title>ksc</title>
<g id="a_node19"><a xlink:title="Kansas City">
<ellipse fill="white" stroke="black" cx="53.5719" cy="19.3755" rx="21.791" ry="21.791"/>
<text text-anchor="middle" x="53.5719" y="23.5755" font-family="Times,serif" font-size="14.00">ksc</text>
</a>
</g>
</g>
<!-- den&#45;&#45;ksc -->
<g id="edge19" class="edge"><title>den&#45;&#45;ksc</title>
<path fill="none" stroke="black" d="M39.6094,-257.963C47.1716,-202.284 56.4056,-57.5919 55.8889,-2.4257"/>
<text text-anchor="middle" x="44.2492" y="-132.995" font-family="Times,serif" font-size="14.00">4</text>
</g>
<!-- den&#45;&#45;ksc -->
<g id="edge20" class="edge"><title>den&#45;&#45;ksc</title>
<path fill="none" stroke="orange" d="M32.078,-257.482C31.673,-201.293 40.9531,-56.6033 48.4956,-1.9527"/>
<text text-anchor="middle" x="36.7868" y="-132.517" font-family="Times,serif" font-size="14.00">4</text>
</g>
<!-- okc -->
<g id="node20" class="node"><title>okc</title>
<g id="a_node20"><a xlink:title="Oklahoma City">
<ellipse fill="white" stroke="black" cx="198.845" cy="-69.2927" rx="22.7515" ry="22.7515"/>
<text text-anchor="middle" x="198.845" y="-65.0927" font-family="Times,serif" font-size="14.00">okc</text>
</a>
</g>
</g>
<!-- den&#45;&#45;okc -->
<g id="edge24" class="edge"><title>den&#45;&#45;okc</title>
<path fill="none" stroke="red" d="M48.7084,-261.891C79.8862,-221.896 153.649,-127.271 184.689,-87.4515"/>
<text text-anchor="middle" x="113.199" y="-177.471" font-family="Times,serif" font-size="14.00">4</text>
</g>
<!-- sfe -->
<g id="node21" class="node"><title>sfe</title>
<g id="a_node21"><a xlink:title="Santa Fe">
<ellipse fill="white" stroke="black" cx="188.262" cy="-318.952" rx="20.3372" ry="20.3372"/>
<text text-anchor="middle" x="188.262" y="-314.752" font-family="Times,serif" font-size="14.00">sfe</text>
</a>
</g>
</g>
<!-- den&#45;&#45;sfe -->
<g id="edge25" class="edge"><title>den&#45;&#45;sfe</title>
<path fill="none" stroke="dimgray" d="M56.7753,-285.871C86.7794,-293.42 139.595,-306.708 168.31,-313.932"/>
<text text-anchor="middle" x="109.043" y="-302.702" font-family="Times,serif" font-size="14.00">2</text>
</g>
<!-- den&#45;&#45;pnx -->
<g id="edge26" class="edge"><title>den&#45;&#45;pnx</title>
<path fill="none" stroke="white" d="M48.2761,-298.765C85.8138,-348.883 189.087,-486.766 226.87,-537.212"/>
<text text-anchor="middle" x="134.073" y="-420.789" font-family="Times,serif" font-size="14.00">5</text>
</g>
<!-- den&#45;&#45;omh -->
<g id="edge27" class="edge"><title>den&#45;&#45;omh</title>
<path fill="none" stroke="pink" d="M29.9489,-257.673C19.1283,-202.843 -8.48644,-62.9151 -19.8527,-5.3205"/>
<text text-anchor="middle" x="1.54809" y="-134.297" font-family="Times,serif" font-size="14.00">4</text>
</g>
<!-- ksc&#45;&#45;okc -->
<g id="edge36" class="edge"><title>ksc&#45;&#45;okc</title>
<path fill="none" stroke="dimgray" d="M69.5362,4.15676C95.7452,-15.0545 147.711,-46.802 177.199,-61.6444"/>
<text text-anchor="middle" x="119.868" y="-31.5438" font-family="Times,serif" font-size="14.00">2</text>
</g>
<!-- ksc&#45;&#45;okc -->
<g id="edge37" class="edge"><title>ksc&#45;&#45;okc</title>
<path fill="none" stroke="dimgray" d="M74.4055,12.1345C103.473,-2.39287 155.466,-34.0974 182.147,-53.538"/>
<text text-anchor="middle" x="124.776" y="-9.50173" font-family="Times,serif" font-size="14.00">2</text>
</g>
<!-- ksc&#45;&#45;omh -->
<g id="edge38" class="edge"><title>ksc&#45;&#45;omh</title>
<path fill="none" stroke="dimgray" d="M32.1922,25.6461C22.4023,26.507 10.728,26.6939 0.497993,26.1788"/>
<text text-anchor="middle" x="12.8451" y="37.1125" font-family="Times,serif" font-size="14.00">1</text>
</g>
<!-- ksc&#45;&#45;omh -->
<g id="edge39" class="edge"><title>ksc&#45;&#45;omh</title>
<path fill="none" stroke="dimgray" d="M32.0899,13.4649C22.2869,12.7686 10.6111,12.7778 0.391206,13.4647"/>
<text text-anchor="middle" x="12.7405" y="10.6648" font-family="Times,serif" font-size="14.00">1</text>
</g>
<!-- stl -->
<g id="node27" class="node"><title>stl</title>
<g id="a_node27"><a xlink:title="Saint Louis">
<ellipse fill="white" stroke="black" cx="142.427" cy="162.929" rx="18.4248" ry="18.4248"/>
<text text-anchor="middle" x="142.427" y="167.129" font-family="Times,serif" font-size="14.00">stl</text>
</a>
</g>
</g>
<!-- ksc&#45;&#45;stl -->
<g id="edge34" class="edge"><title>ksc&#45;&#45;stl</title>
<path fill="none" stroke="pink" d="M69.0046,35.3739C89.1349,62.5047 122.795,117.098 136.648,145.294"/>
<text text-anchor="middle" x="99.3261" y="87.5341" font-family="Times,serif" font-size="14.00">2</text>
</g>
<!-- ksc&#45;&#45;stl -->
<g id="edge35" class="edge"><title>ksc&#45;&#45;stl</title>
<path fill="none" stroke="blue" d="M61.0079,40.3236C76.3124,70.4414 110.163,124.918 129.221,149.891"/>
<text text-anchor="middle" x="91.6142" y="92.3075" font-family="Times,serif" font-size="14.00">2</text>
</g>
<!-- okc&#45;&#45;sfe -->
<g id="edge66" class="edge"><title>okc&#45;&#45;sfe</title>
<path fill="none" stroke="blue" d="M197.868,-92.3326C195.816,-140.739 191.086,-252.331 189.131,-298.442"/>
<text text-anchor="middle" x="190" y="-198.187" font-family="Times,serif" font-size="14.00">3</text>
</g>
<!-- dal -->
<g id="node26" class="node"><title>dal</title>
<g id="a_node26"><a xlink:title="Dallas">
<ellipse fill="white" stroke="black" cx="355.139" cy="-46.6847" rx="20.8218" ry="20.8218"/>
<text text-anchor="middle" x="355.139" y="-42.4847" font-family="Times,serif" font-size="14.00">dal</text>
</a>
</g>
</g>
<!-- okc&#45;&#45;dal -->
<g id="edge68" class="edge"><title>okc&#45;&#45;dal</title>
<path fill="none" stroke="dimgray" d="M221.939,-70.9037C252.687,-69.0053 306.533,-61.1574 335.452,-54.3064"/>
<text text-anchor="middle" x="275.196" y="-65.405" font-family="Times,serif" font-size="14.00">2</text>
</g>
<!-- okc&#45;&#45;dal -->
<g id="edge69" class="edge"><title>okc&#45;&#45;dal</title>
<path fill="none" stroke="dimgray" d="M220.536,-61.2035C250.562,-54.3109 304.424,-46.5788 334.1,-44.9539"/>
<text text-anchor="middle" x="273.818" y="-41.8787" font-family="Times,serif" font-size="14.00">2</text>
</g>
<!-- ltr -->
<g id="node32" class="node"><title>ltr</title>
<g id="a_node32"><a xlink:title="Little Rock">
<ellipse fill="white" stroke="black" cx="273.621" cy="70.7086" rx="18" ry="18"/>
<text text-anchor="middle" x="273.621" y="74.9086" font-family="Times,serif" font-size="14.00">ltr</text>
</a>
</g>
</g>
<!-- okc&#45;&#45;ltr -->
<g id="edge67" class="edge"><title>okc&#45;&#45;ltr</title>
<path fill="none" stroke="dimgray" d="M209.718,-48.9354C224.705,-20.8753 251.403,29.1111 265.059,54.6796"/>
<text text-anchor="middle" x="233.889" y="0.0721134" font-family="Times,serif" font-size="14.00">2</text>
</g>
<!-- sfe&#45;&#45;pnx -->
<g id="edge97" class="edge"><title>sfe&#45;&#45;pnx</title>
<path fill="none" stroke="dimgray" d="M192.754,-339.164C202.51,-383.057 225.582,-486.854 235.86,-533.098"/>
<text text-anchor="middle" x="210.807" y="-438.931" font-family="Times,serif" font-size="14.00">3</text>
</g>
<!-- elp -->
<g id="node24" class="node"><title>elp</title>
<g id="a_node24"><a xlink:title="El Paso">
<ellipse fill="white" stroke="black" cx="332.531" cy="-365.916" rx="20.8218" ry="20.8218"/>
<text text-anchor="middle" x="332.531" y="-361.716" font-family="Times,serif" font-size="14.00">elp</text>
</a>
</g>
</g>
<!-- elp&#45;&#45;lax -->
<g id="edge31" class="edge"><title>elp&#45;&#45;lax</title>
<path fill="none" stroke="black" d="M320.551,-383.2C276.247,-447.116 121.966,-669.696 77.7175,-733.533"/>
<text text-anchor="middle" x="195.634" y="-561.167" font-family="Times,serif" font-size="14.00">6</text>
</g>
<!-- elp&#45;&#45;okc -->
<g id="edge29" class="edge"><title>elp&#45;&#45;okc</title>
<path fill="none" stroke="yellow" d="M323.76,-346.454C299.769,-293.223 233.204,-145.528 208.359,-90.4022"/>
<text text-anchor="middle" x="262.559" y="-221.228" font-family="Times,serif" font-size="14.00">5</text>
</g>
<!-- elp&#45;&#45;sfe -->
<g id="edge30" class="edge"><title>elp&#45;&#45;sfe</title>
<path fill="none" stroke="dimgray" d="M312.471,-359.386C284.753,-350.363 235.07,-334.19 207.691,-325.277"/>
<text text-anchor="middle" x="256.581" y="-345.131" font-family="Times,serif" font-size="14.00">2</text>
</g>
<!-- elp&#45;&#45;pnx -->
<g id="edge32" class="edge"><title>elp&#45;&#45;pnx</title>
<path fill="none" stroke="dimgray" d="M323.416,-384.839C306.224,-420.526 269.128,-497.532 251.144,-534.867"/>
<text text-anchor="middle" x="283.78" y="-462.653" font-family="Times,serif" font-size="14.00">3</text>
</g>
<!-- hst -->
<g id="node25" class="node"><title>hst</title>
<g id="a_node25"><a xlink:title="Houston">
<ellipse fill="white" stroke="black" cx="430.941" cy="-31.6442" rx="20.3544" ry="20.3544"/>
<text text-anchor="middle" x="430.941" y="-27.4442" font-family="Times,serif" font-size="14.00">hst</text>
</a>
</g>
</g>
<!-- elp&#45;&#45;hst -->
<g id="edge28" class="edge"><title>elp&#45;&#45;hst</title>
<path fill="none" stroke="green" d="M338.466,-345.759C356.044,-286.051 407.696,-110.599 425.123,-51.4061"/>
<text text-anchor="middle" x="378.294" y="-201.382" font-family="Times,serif" font-size="14.00">6</text>
</g>
<!-- elp&#45;&#45;dal -->
<g id="edge33" class="edge"><title>elp&#45;&#45;dal</title>
<path fill="none" stroke="red" d="M334.015,-344.97C338.111,-287.128 349.547,-125.642 353.65,-67.7075"/>
<text text-anchor="middle" x="340.332" y="-209.139" font-family="Times,serif" font-size="14.00">4</text>
</g>
<!-- hst&#45;&#45;dal -->
<g id="edge60" class="edge"><title>hst&#45;&#45;dal</title>
<path fill="none" stroke="dimgray" d="M410.254,-29.6437C398.828,-30.8815 384.756,-33.6675 373.688,-36.8812"/>
<text text-anchor="middle" x="388.471" y="-36.0625" font-family="Times,serif" font-size="14.00">1</text>
</g>
<!-- hst&#45;&#45;dal -->
<g id="edge61" class="edge"><title>hst&#45;&#45;dal</title>
<path fill="none" stroke="dimgray" d="M412.585,-41.3912C401.552,-44.6099 387.483,-47.4074 376.026,-48.6632"/>
<text text-anchor="middle" x="397.805" y="-47.8272" font-family="Times,serif" font-size="14.00">1</text>
</g>
<!-- nor -->
<g id="node35" class="node"><title>nor</title>
<g id="a_node35"><a xlink:title="New Orleans">
<ellipse fill="white" stroke="black" cx="497.698" cy="114.024" rx="21.791" ry="21.791"/>
<text text-anchor="middle" x="497.698" y="118.224" font-family="Times,serif" font-size="14.00">nor</text>
</a>
</g>
</g>
<!-- hst&#45;&#45;nor -->
<g id="edge59" class="edge"><title>hst&#45;&#45;nor</title>
<path fill="none" stroke="dimgray" d="M439.531,-12.8988C452.138,14.6102 475.553,65.7029 488.498,93.9496"/>
<text text-anchor="middle" x="460.515" y="37.7254" font-family="Times,serif" font-size="14.00">2</text>
</g>
<!-- stl&#45;&#45;pit -->
<g id="edge65" class="edge"><title>stl&#45;&#45;pit</title>
<path fill="none" stroke="green" d="M136.594,180.532C117.097,239.369 54.2944,428.896 34.2121,489.501"/>
<text text-anchor="middle" x="81.9028" y="332.216" font-family="Times,serif" font-size="14.00">5</text>
</g>
<!-- stl&#45;&#45;chi -->
<g id="edge62" class="edge"><title>stl&#45;&#45;chi</title>
<path fill="none" stroke="white" d="M130.558,177.205C107.049,198.549 54.8146,237.502 26.3648,255.002"/>
<text text-anchor="middle" x="74.9614" y="227.304" font-family="Times,serif" font-size="14.00">2</text>
</g>
<!-- stl&#45;&#45;chi -->
<g id="edge63" class="edge"><title>stl&#45;&#45;chi</title>
<path fill="none" stroke="green" d="M125.341,170.192C98.1389,186.571 45.8125,225.401 20.8721,247.618"/>
<text text-anchor="middle" x="69.6066" y="206.105" font-family="Times,serif" font-size="14.00">2</text>
</g>
<!-- stl&#45;&#45;ltr -->
<g id="edge64" class="edge"><title>stl&#45;&#45;ltr</title>
<path fill="none" stroke="dimgray" d="M157.733,152.17C183.148,134.305 233.734,98.7464 258.814,81.1166"/>
<text text-anchor="middle" x="204.774" y="113.843" font-family="Times,serif" font-size="14.00">2</text>
</g>
<!-- chi&#45;&#45;dul -->
<g id="edge70" class="edge"><title>chi&#45;&#45;dul</title>
<path fill="none" stroke="red" d="M-8.88522,249.64C-41.9009,220.974 -117.153,155.636 -150.351,126.813"/>
<text text-anchor="middle" x="-83.1179" y="185.426" font-family="Times,serif" font-size="14.00">3</text>
</g>
<!-- chi&#45;&#45;pit -->
<g id="edge72" class="edge"><title>chi&#45;&#45;pit</title>
<path fill="none" stroke="orange" d="M12.8902,284.093C20.6017,330.596 30.1548,443.441 30.1699,488.885"/>
<text text-anchor="middle" x="18.0301" y="383.689" font-family="Times,serif" font-size="14.00">3</text>
</g>
<!-- chi&#45;&#45;pit -->
<g id="edge73" class="edge"><title>chi&#45;&#45;pit</title>
<path fill="none" stroke="black" d="M4.95925,284.767C5.21527,331.905 14.8644,444.742 22.5272,489.535"/>
<text text-anchor="middle" x="10.2432" y="384.351" font-family="Times,serif" font-size="14.00">3</text>
</g>
<!-- chi&#45;&#45;omh -->
<g id="edge71" class="edge"><title>chi&#45;&#45;omh</title>
<path fill="none" stroke="blue" d="M4.42035,242.799C-1.41476,198.4 -15.0918,94.3325 -21.4701,45.8007"/>
<text text-anchor="middle" x="-12.0249" y="141.5" font-family="Times,serif" font-size="14.00">4</text>
</g>
<!-- sfo&#45;&#45;lax -->
<g id="edge89" class="edge"><title>sfo&#45;&#45;lax</title>
<path fill="none" stroke="yellow" d="M-177.207,-816.118C-126.944,-807.466 -1.33228,-775.706 46.6973,-759.495"/>
<text text-anchor="middle" x="-68.755" y="-790.607" font-family="Times,serif" font-size="14.00">3</text>
</g>
<!-- sfo&#45;&#45;lax -->
<g id="edge90" class="edge"><title>sfo&#45;&#45;lax</title>
<path fill="none" stroke="pink" d="M-179.074,-808.734C-130.737,-792.462 -5.12141,-760.716 44.8421,-752.156"/>
<text text-anchor="middle" x="-70.6159" y="-769.245" font-family="Times,serif" font-size="14.00">3</text>
</g>
<!-- sfo&#45;&#45;por -->
<g id="edge87" class="edge"><title>sfo&#45;&#45;por</title>
<path fill="none" stroke="green" d="M-214.712,-803.637C-272.399,-762.049 -466.59,-640.799 -530.455,-606.457"/>
<text text-anchor="middle" x="-376.084" y="-693.847" font-family="Times,serif" font-size="14.00">5</text>
</g>
<!-- sfo&#45;&#45;por -->
<g id="edge88" class="edge"><title>sfo&#45;&#45;por</title>
<path fill="none" stroke="pink" d="M-217.834,-809.179C-280.391,-775.737 -475.74,-653.809 -534.269,-611.703"/>
<text text-anchor="middle" x="-379.551" y="-713.241" font-family="Times,serif" font-size="14.00">5</text>
</g>
<!-- nsh -->
<g id="node30" class="node"><title>nsh</title>
<g id="a_node30"><a xlink:title="Nashville">
<ellipse fill="white" stroke="black" cx="239.06" cy="285.598" rx="22.2841" ry="22.2841"/>
<text text-anchor="middle" x="239.06" y="289.798" font-family="Times,serif" font-size="14.00">nsh</text>
</a>
</g>
</g>
<!-- nsh&#45;&#45;ral -->
<g id="edge49" class="edge"><title>nsh&#45;&#45;ral</title>
<path fill="none" stroke="black" d="M234.143,307.618C225.091,348.155 205.936,433.935 197.388,472.216"/>
<text text-anchor="middle" x="212.266" y="387.117" font-family="Times,serif" font-size="14.00">3</text>
</g>
<!-- nsh&#45;&#45;pit -->
<g id="edge52" class="edge"><title>nsh&#45;&#45;pit</title>
<path fill="none" stroke="yellow" d="M223.538,301.976C183.836,343.868 79.081,454.399 41.5741,493.975"/>
<text text-anchor="middle" x="129.056" y="395.175" font-family="Times,serif" font-size="14.00">4</text>
</g>
<!-- nsh&#45;&#45;stl -->
<g id="edge48" class="edge"><title>nsh&#45;&#45;stl</title>
<path fill="none" stroke="dimgray" d="M225.008,267.761C205.85,243.441 171.883,200.322 154.069,177.708"/>
<text text-anchor="middle" x="186.038" y="219.934" font-family="Times,serif" font-size="14.00">2</text>
</g>
<!-- nsh&#45;&#45;atl -->
<g id="edge50" class="edge"><title>nsh&#45;&#45;atl</title>
<path fill="none" stroke="dimgray" d="M250.073,305.167C255.226,314.323 261.303,325.12 266.253,333.916"/>
<text text-anchor="middle" x="254.663" y="330.741" font-family="Times,serif" font-size="14.00">1</text>
</g>
<!-- nsh&#45;&#45;ltr -->
<g id="edge51" class="edge"><title>nsh&#45;&#45;ltr</title>
<path fill="none" stroke="white" d="M242.628,263.411C249.492,220.731 264.412,127.962 270.716,88.7669"/>
<text text-anchor="middle" x="253.172" y="173.289" font-family="Times,serif" font-size="14.00">3</text>
</g>
<!-- ltr&#45;&#45;dal -->
<g id="edge99" class="edge"><title>ltr&#45;&#45;dal</title>
<path fill="none" stroke="dimgray" d="M283.945,55.8407C299.025,34.1233 327.02,-6.19194 343.044,-29.2681"/>
<text text-anchor="middle" x="309.995" y="10.4863" font-family="Times,serif" font-size="14.00">2</text>
</g>
<!-- mim -->
<g id="node33" class="node"><title>mim</title>
<g id="a_node33"><a xlink:title="Miami">
<ellipse fill="white" stroke="black" cx="631.78" cy="511.73" rx="26.1438" ry="26.1438"/>
<text text-anchor="middle" x="631.78" y="515.93" font-family="Times,serif" font-size="14.00">mim</text>
</a>
</g>
</g>
<!-- mim&#45;&#45;atl -->
<g id="edge55" class="edge"><title>mim&#45;&#45;atl</title>
<path fill="none" stroke="blue" d="M607.59,500.797C540.294,470.381 351.987,385.27 293.396,358.789"/>
<text text-anchor="middle" x="446.993" y="426.993" font-family="Times,serif" font-size="14.00">5</text>
</g>
<!-- chr -->
<g id="node34" class="node"><title>chr</title>
<g id="a_node34"><a xlink:title="Charleston">
<ellipse fill="white" stroke="black" cx="340.569" cy="480.245" rx="21.2978" ry="21.2978"/>
<text text-anchor="middle" x="340.569" y="484.445" font-family="Times,serif" font-size="14.00">chr</text>
</a>
</g>
</g>
<!-- mim&#45;&#45;chr -->
<g id="edge53" class="edge"><title>mim&#45;&#45;chr</title>
<path fill="none" stroke="pink" d="M605.424,508.881C548.44,502.72 414.69,488.259 362.228,482.587"/>
<text text-anchor="middle" x="480.326" y="492.934" font-family="Times,serif" font-size="14.00">4</text>
</g>
<!-- mim&#45;&#45;nor -->
<g id="edge54" class="edge"><title>mim&#45;&#45;nor</title>
<path fill="none" stroke="red" d="M623.291,486.55C598.653,413.469 527.443,202.252 504.741,134.914"/>
<text text-anchor="middle" x="560.516" y="307.932" font-family="Times,serif" font-size="14.00">6</text>
</g>
<!-- chr&#45;&#45;ral -->
<g id="edge81" class="edge"><title>chr&#45;&#45;ral</title>
<path fill="none" stroke="dimgray" d="M319.128,481.861C290.532,484.017 240.317,487.802 212.696,489.884"/>
<text text-anchor="middle" x="262.412" y="483.072" font-family="Times,serif" font-size="14.00">2</text>
</g>
<!-- chr&#45;&#45;atl -->
<g id="edge82" class="edge"><title>chr&#45;&#45;atl</title>
<path fill="none" stroke="dimgray" d="M330.868,460.869C318.227,435.624 296.325,391.879 284.292,367.848"/>
<text text-anchor="middle" x="304.08" y="411.558" font-family="Times,serif" font-size="14.00">2</text>
</g>
<!-- nor&#45;&#45;atl -->
<g id="edge83" class="edge"><title>nor&#45;&#45;atl</title>
<path fill="none" stroke="yellow" d="M485.415,132.387C447.427,179.177 332.884,301.284 291.093,339.4"/>
<text text-anchor="middle" x="384.754" y="247.094" font-family="Times,serif" font-size="14.00">4</text>
</g>
<!-- nor&#45;&#45;atl -->
<g id="edge84" class="edge"><title>nor&#45;&#45;atl</title>
<path fill="none" stroke="orange" d="M480.168,127.47C435.936,168.407 321.501,290.616 286.171,334.787"/>
<text text-anchor="middle" x="379.67" y="228.328" font-family="Times,serif" font-size="14.00">4</text>
</g>
<!-- nor&#45;&#45;ltr -->
<g id="edge85" class="edge"><title>nor&#45;&#45;ltr</title>
<path fill="none" stroke="green" d="M475.804,109.792C431.534,101.234 332.142,82.021 291.478,74.1604"/>
<text text-anchor="middle" x="380.141" y="89.176" font-family="Times,serif" font-size="14.00">3</text>
</g>
<!-- bos -->
<g id="node36" class="node"><title>bos</title>
<g id="a_node36"><a xlink:title="Boston">
<ellipse fill="white" stroke="black" cx="-95.3234" cy="793.447" rx="22.2841" ry="22.2841"/>
<text text-anchor="middle" x="-95.3234" y="797.647" font-family="Times,serif" font-size="14.00">bos</text>
</a>
</g>
</g>
<!-- bos&#45;&#45;mon -->
<g id="edge79" class="edge"><title>bos&#45;&#45;mon</title>
<path fill="none" stroke="dimgray" d="M-116.556,786.16C-141.12,773.772 -181.075,749.279 -204.628,732.259"/>
<text text-anchor="middle" x="-164.092" y="756.41" font-family="Times,serif" font-size="14.00">2</text>
</g>
<!-- bos&#45;&#45;mon -->
<g id="edge80" class="edge"><title>bos&#45;&#45;mon</title>
<path fill="none" stroke="dimgray" d="M-111.388,777.767C-133.507,761.409 -173.364,736.756 -199.165,723.386"/>
<text text-anchor="middle" x="-151.776" y="747.777" font-family="Times,serif" font-size="14.00">2</text>
</g>
<!-- bos&#45;&#45;nyc -->
<g id="edge77" class="edge"><title>bos&#45;&#45;nyc</title>
<path fill="none" stroke="yellow" d="M-86.8586,772.494C-72.6132,747.588 -44.4617,706.746 -26.1212,684.356"/>
<text text-anchor="middle" x="-59.9899" y="725.625" font-family="Times,serif" font-size="14.00">2</text>
</g>
<!-- bos&#45;&#45;nyc -->
<g id="edge78" class="edge"><title>bos&#45;&#45;nyc</title>
<path fill="none" stroke="red" d="M-78.7451,778.09C-60.5244,755.925 -32.3489,715.1 -17.9359,690.002"/>
<text text-anchor="middle" x="-51.8405" y="731.246" font-family="Times,serif" font-size="14.00">2</text>
</g>
</g>
</svg>
